<?xml version="1.0" encoding="UTF-8" standalone="no"?>
<!-- Created with Inkscape (http://www.inkscape.org/) -->

<svg
   xmlns:dc="http://purl.org/dc/elements/1.1/"
   xmlns:cc="http://creativecommons.org/ns#"
   xmlns:rdf="http://www.w3.org/1999/02/22-rdf-syntax-ns#"
   xmlns:svg="http://www.w3.org/2000/svg"
   xmlns="http://www.w3.org/2000/svg"
   xmlns:sodipodi="http://sodipodi.sourceforge.net/DTD/sodipodi-0.dtd"
   xmlns:inkscape="http://www.inkscape.org/namespaces/inkscape"
   width="77.884521mm"
   height="78.207741mm"
   viewBox="0 0 77.884521 78.207741"
   version="1.1"
   id="svg8"
   inkscape:version="0.92.4 (5da689c313, 2019-01-14)"
   sodipodi:docname="oreo1.svg">
  <defs
     id="defs2" />
  <sodipodi:namedview
     id="base"
     pagecolor="#ffffff"
     bordercolor="#666666"
     borderopacity="1.0"
     inkscape:pageopacity="0.0"
     inkscape:pageshadow="2"
     inkscape:zoom="0.35"
     inkscape:cx="-198.53094"
     inkscape:cy="227.79414"
     inkscape:document-units="mm"
     inkscape:current-layer="layer1"
     showgrid="false"
     fit-margin-top="0"
     fit-margin-left="0"
     fit-margin-right="0"
     fit-margin-bottom="0"
     inkscape:window-width="1920"
     inkscape:window-height="1017"
     inkscape:window-x="1912"
     inkscape:window-y="-8"
     inkscape:window-maximized="1" />
  <metadata
     id="metadata5">
    <rdf:RDF>
      <cc:Work
         rdf:about="">
        <dc:format>image/svg+xml</dc:format>
        <dc:type
           rdf:resource="http://purl.org/dc/dcmitype/StillImage" />
        <dc:title></dc:title>
      </cc:Work>
    </rdf:RDF>
  </metadata>
  <g
     inkscape:label="Calque 1"
     inkscape:groupmode="layer"
     id="layer1"
     transform="translate(-117.53988,-130.89613)">
    <g
       id="layer1-9"
       inkscape:label="Calque 1"
       transform="translate(59.720245,105.83333)">
      <g
         inkscape:label="Oreo"
         id="g6357"
         transform="matrix(0.26458333,0,0,0.26458333,-223.47213,7.2267882)">
        <path
           style="fill:#454545"
           inkscape:connector-curvature="0"
           class="cls-5"
           d="m 1097.54,236.2 a 43.16,43.16 0 0 1 -0.81,14.58 c 1.82,3.34 6.1,5.74 9.82,6.51 3.93,-4 8,-8.23 9.53,-13.62 -1.5,-3.55 -1.94,-9.31 -3.44,-12.86 a 2,2 0 0 0 -3,-1.41 c -3.29,0.81 -8.77,6 -12.1,6.8 z"
           id="path1683" />
        <path
           style="fill:#454545"
           inkscape:connector-curvature="0"
           class="cls-5"
           d="M 1091.41,286.3 V 305 a 18.07,18.07 0 0 0 6.9,2.86 38.38,38.38 0 0 1 7.85,-16.34 c -3.64,-3.46 -9.71,-5.25 -14.75,-5.22 z"
           id="path1685" />
        <path
           style="fill:#454545"
           inkscape:connector-curvature="0"
           class="cls-5"
           d="m 1154.81,324.07 9.56,10.21 a 13.51,13.51 0 0 0 5.23,-2 28.7,28.7 0 0 1 -4.06,-12.93 c -3.77,0.01 -7.99,2.13 -10.73,4.72 z"
           id="path1687" />
        <path
           style="fill:#454545"
           inkscape:connector-curvature="0"
           class="cls-5"
           d="m 1067,202.7 a 57.53,57.53 0 0 1 75.78,62.48 57.53,57.53 0 0 1 54.34,81.82 57.17,57.17 0 0 1 17.17,16 147.83,147.83 0 1 0 -151.14,-167.27 57.58,57.58 0 0 1 3.85,6.97 z"
           id="path1689" />
        <path
           style="fill:#333333"
           inkscape:connector-curvature="0"
           class="cls-6"
           d="m 1240.57,93.77 q -1.36,4.62 -2.54,9.28 a 3.15,3.15 0 0 0 3.43,3.95 3.34,3.34 0 0 0 2.83,-2.71 c 0.74,-2.68 1.47,-5.36 2.2,-8 0.6,-2.18 0.26,-3.2 -1.52,-4.56 l -1.12,-0.31 -0.36,0.06 a 3.17,3.17 0 0 0 -2.92,2.29 z"
           id="path1691" />
        <path
           style="fill:#333333"
           inkscape:connector-curvature="0"
           class="cls-6"
           d="m 1318,246 a 3.27,3.27 0 0 0 2.45,3.87 c 2.72,0.76 5.46,1.45 8.16,2.26 1.9,0.57 3.44,0.27 4.61,-1.42 l 0.34,-1.24 a 3.4,3.4 0 0 0 -2.48,-3.3 c -3,-0.87 -6.05,-1.71 -9.1,-2.49 A 3.21,3.21 0 0 0 1318,246 Z"
           id="path1693" />
        <path
           style="fill:#333333"
           inkscape:connector-curvature="0"
           class="cls-6"
           d="m 1249,96.68 c -0.42,1.43 -1,2.83 -1.49,4.24 -0.49,1.41 -1,2.82 -1.43,4.26 a 3.06,3.06 0 0 0 0.93,3.22 2.9,2.9 0 0 0 3,0.65 3.48,3.48 0 0 0 2.23,-2.39 c 0.64,-1.86 1.3,-3.72 1.94,-5.58 q 0.4,-1.15 0.79,-2.31 c 0.74,-2.23 0.49,-3.15 -1.27,-4.67 l -1.24,-0.34 a 3.67,3.67 0 0 0 -3.46,2.92 z"
           id="path1695" />
        <path
           style="fill:#333333"
           inkscape:connector-curvature="0"
           class="cls-6"
           d="m 1206.26,267.54 a 30.73,30.73 0 0 0 14.34,-6 53.45,53.45 0 0 0 12.56,-13.16 77.45,77.45 0 0 0 10.4,-21.94 c 0.08,-0.28 0.15,-0.56 0.24,-0.86 l 5.27,1.44 -7.07,25.79 4.66,1.28 7.08,-25.89 5.69,1.56 -5.21,19.05 4.68,1.28 5.25,-19.18 7.53,2.06 1.28,-4.67 -7.58,-2.07 5,-18.17 -4.64,-1.27 -5,18.23 -5.71,-1.56 6.92,-25.28 -4.64,-1.27 -6.94,25.37 -5.26,-1.44 c 0.06,-0.32 0.12,-0.63 0.16,-0.95 0.53,-3.44 1.21,-6.87 1.56,-10.34 a 63.6,63.6 0 0 0 -1.46,-21.9 39.85,39.85 0 0 0 -7.14,-15.31 24.05,24.05 0 0 0 -12.13,-8.55 23.8,23.8 0 0 0 -15.9,0.92 41.16,41.16 0 0 0 -15.6,11.29 c -7.2,8 -12,17.39 -15.15,27.62 a 81.69,81.69 0 0 0 -3.62,20 62.83,62.83 0 0 0 2.43,22 35.86,35.86 0 0 0 8.13,14.63 c 5.42,5.68 12.02,8.25 19.87,7.29 z m -17.88,-12.34 a 34.55,34.55 0 0 1 -6,-12.62 61.75,61.75 0 0 1 -1.42,-22.65 81.46,81.46 0 0 1 2.4,-12.56 73.74,73.74 0 0 1 10.85,-23.16 47.18,47.18 0 0 1 11.64,-11.74 24.89,24.89 0 0 1 12.26,-4.72 c 6.48,-0.49 11.66,2.08 15.79,7 a 33.22,33.22 0 0 1 6.42,12.82 60.16,60.16 0 0 1 1.71,21.55 77.64,77.64 0 0 1 -3.64,17.69 c -3.13,9.47 -7.68,18.14 -14.56,25.46 a 35.85,35.85 0 0 1 -12.52,9 19.2,19.2 0 0 1 -13.42,0.87 19.41,19.41 0 0 1 -9.51,-6.94 z"
           id="path1697" />
        <path
           style="fill:#333333"
           inkscape:connector-curvature="0"
           class="cls-6"
           d="m 1166.85,217.8 a 1.88,1.88 0 0 0 0.47,0.75 c 0.21,0.21 0.54,0.48 0.77,0.45 0.23,-0.03 0.45,-0.4 0.56,-0.67 0.41,-1 0.74,-2.1 1.16,-3.12 a 2.47,2.47 0 0 0 0,-2.05 7.5,7.5 0 0 0 -1.13,-1.77 c -0.8,-0.91 -1.69,-1.73 -2.55,-2.6 1.16,-0.53 2.35,-1 3.51,-1.63 a 13.23,13.23 0 0 0 2,-1.26 c 0.91,-0.69 1,-1.06 0.58,-2.1 a 11.82,11.82 0 0 0 -1,-1.94 c -0.72,-1.13 -1.51,-2.22 -2.32,-3.4 l 0.35,-0.07 c 1.42,-0.4 2.86,-0.71 4.24,-1.23 a 2.8,2.8 0 0 0 1.89,-2.53 c 0.07,-0.85 0.26,-1.69 0.42,-2.53 0.09,-0.48 0.52,-1.12 0,-1.39 -0.35,-0.18 -1,0.15 -1.47,0.28 a 0.83,0.83 0 0 0 -0.31,0.23 19.56,19.56 0 0 1 -4.7,3.11 60.74,60.74 0 0 1 -13.1,4.64 3.51,3.51 0 0 0 -0.78,0.28 1.14,1.14 0 0 0 -0.58,1.75 8.79,8.79 0 0 0 1.09,1.42 c 1.82,2.07 3.74,4.06 5.47,6.21 a 27.72,27.72 0 0 1 5.43,9.17 z m -3.22,-14.52 c -0.24,-0.16 -0.35,-0.53 -0.51,-0.81 0.29,-0.15 0.57,-0.43 0.86,-0.42 1.1,0 2.2,0.14 3.33,0.23 1,0.5 2,1 3,1.51 0.24,0.13 0.34,0.5 0.51,0.75 -0.28,0.16 -0.56,0.44 -0.85,0.46 a 10.15,10.15 0 0 1 -6.34,-1.72 z"
           id="path1699" />
        <path
           style="fill:#333333"
           inkscape:connector-curvature="0"
           class="cls-6"
           d="m 1252,117.86 c -3,-1.13 -6.08,-2.31 -9.17,-3.3 a 109.46,109.46 0 0 0 -14.73,-3.49 c -1.73,-0.3 -3.46,-0.58 -5.2,-0.77 a 2.21,2.21 0 0 0 -2.34,2 2.28,2.28 0 0 0 2,2.5 73.54,73.54 0 0 1 10.24,1.72 81.45,81.45 0 0 1 10.25,2.85 c 2.44,1 4.94,1.82 7.6,2.79 a 2.27,2.27 0 0 0 1.37,-4.3 z"
           id="path1701" />
        <path
           style="fill:#333333"
           inkscape:connector-curvature="0"
           class="cls-6"
           d="m 1140,160.25 2.95,9.43 a 4.22,4.22 0 0 0 2.7,2.76 11.33,11.33 0 0 0 2.13,-0.21 c 3.35,-1 6.68,-2 10,-3 a 1.88,1.88 0 0 0 1.4,-1.73 1.92,1.92 0 0 0 -1.13,-2 4.53,4.53 0 0 0 -1.61,-0.35 15.46,15.46 0 0 1 -8.41,-2.37 11.77,11.77 0 0 1 -3.83,-4.24 2.47,2.47 0 0 0 -3.07,-1.3 2.34,2.34 0 0 0 -1.13,3.01 z"
           id="path1703" />
        <path
           style="fill:#333333"
           inkscape:connector-curvature="0"
           class="cls-6"
           d="m 1223.64,315.9 a 2.2,2.2 0 0 0 -2,1.46 2.28,2.28 0 0 0 2.33,3.07 c 0.51,0 1,-0.11 1.53,-0.19 a 111.62,111.62 0 0 0 21.09,-5.36 c 2,-0.7 3.93,-1.45 5.89,-2.21 a 2.31,2.31 0 1 0 -1.82,-4.17 c -0.4,0.19 -0.81,0.39 -1.23,0.56 a 107.57,107.57 0 0 1 -21.4,6.16 c -1.43,0.27 -2.91,0.47 -4.39,0.68 z"
           id="path1705" />
        <path
           style="fill:#333333"
           inkscape:connector-curvature="0"
           class="cls-6"
           d="m 1201.61,278.07 a 2.3,2.3 0 0 0 0.46,3.16 c 2.35,2.28 4.69,4.56 7.07,6.81 a 10,10 0 0 0 1.42,1 3.9,3.9 0 0 0 4,-0.84 c 2.52,-2.53 5,-5.09 7.51,-7.64 a 1.87,1.87 0 0 0 0.4,-2.08 c -0.47,-1.31 -2,-1.71 -3.47,-0.95 -4.71,2.5 -9.42,3.1 -14.18,0.09 a 2.4,2.4 0 0 0 -3.21,0.45 z"
           id="path1707" />
        <path
           style="fill:#333333"
           inkscape:connector-curvature="0"
           class="cls-6"
           d="m 1141.86,192.57 a 2.45,2.45 0 0 0 3,1.27 2.2,2.2 0 0 0 1.26,-2.71 q -1.54,-5 -3.14,-10 a 3.9,3.9 0 0 0 -2.92,-2.5 7.55,7.55 0 0 0 -1.74,0.16 c -3.37,1 -6.72,2 -10.08,3 a 1.91,1.91 0 0 0 -1.42,1.79 1.81,1.81 0 0 0 1,1.92 4.17,4.17 0 0 0 1.71,0.42 15.64,15.64 0 0 1 8.09,2.15 11.77,11.77 0 0 1 4.24,4.5 z"
           id="path1709" />
        <path
           style="fill:#333333"
           inkscape:connector-curvature="0"
           class="cls-6"
           d="m 1293.66,183.82 a 2.41,2.41 0 0 0 2.38,-1.35 2.2,2.2 0 0 0 -1.63,-3.1 c -3.22,-0.79 -6.45,-1.56 -9.68,-2.34 a 3.86,3.86 0 0 0 -4.9,2.94 c -0.42,1.59 -0.87,3.18 -1.3,4.77 l 0.24,0.07 c -0.47,1.71 -0.95,3.42 -1.4,5.14 a 1.92,1.92 0 0 0 0.77,2.15 1.85,1.85 0 0 0 2.28,0.09 4.29,4.29 0 0 0 1.18,-1.23 c 2.82,-4.42 6.52,-7.3 12.06,-7.14 z"
           id="path1711" />
        <path
           style="fill:#333333"
           inkscape:connector-curvature="0"
           class="cls-6"
           d="m 1227.71,302.91 a 2.55,2.55 0 0 0 -0.14,-2.68 15.82,15.82 0 0 1 -2,-6.76 12,12 0 0 1 2,-7.3 2.41,2.41 0 0 0 -0.41,-3.25 2.27,2.27 0 0 0 -3.15,0.46 c -2.27,2.35 -4.55,4.69 -6.8,7.07 a 10.18,10.18 0 0 0 -1,1.41 3.9,3.9 0 0 0 0.85,4 q 3.76,3.76 7.59,7.46 a 2,2 0 0 0 3.06,-0.41 z"
           id="path1713" />
        <path
           style="fill:#333333"
           inkscape:connector-curvature="0"
           class="cls-6"
           d="m 1182,130.88 a 3.06,3.06 0 0 0 -0.27,-1.18 2.06,2.06 0 0 0 -2.08,-1.4 2.18,2.18 0 0 0 -2,1.66 c -0.83,3.37 -1.67,6.73 -2.43,10.11 a 3.75,3.75 0 0 0 2.86,4.6 l 4.77,1.3 0.07,-0.25 5.33,1.45 a 2,2 0 0 0 2.15,-3.06 5.14,5.14 0 0 0 -1.39,-1.28 c -4.4,-2.83 -7.2,-6.49 -7.01,-11.95 z"
           id="path1715" />
        <path
           style="fill:#333333"
           inkscape:connector-curvature="0"
           class="cls-6"
           d="m 1281.43,268.32 c -0.95,-3.44 -1.91,-6.88 -2.91,-10.31 a 3.82,3.82 0 0 0 -2.87,-2.51 6.59,6.59 0 0 0 -1.59,0.09 c -3.46,0.9 -6.9,1.86 -10.34,2.8 a 1.83,1.83 0 0 0 -1.3,1.3 2.24,2.24 0 0 0 2.21,2.84 c 0.87,0.07 1.76,0.08 2.62,0.23 4.28,0.71 7.72,2.68 9.79,6.67 a 3.75,3.75 0 0 0 1,1.14 2,2 0 0 0 2.4,0.14 2.19,2.19 0 0 0 0.99,-2.39 z"
           id="path1717" />
        <path
           style="fill:#333333"
           inkscape:connector-curvature="0"
           class="cls-6"
           d="m 1196,141.21 c -0.21,0.34 -0.4,0.7 -0.59,1.05 a 2.32,2.32 0 0 0 1,2.77 2.24,2.24 0 0 0 2.85,-0.51 q 3.5,-3.61 7,-7.24 a 3.76,3.76 0 0 0 0,-5.41 q -3.73,-3.75 -7.54,-7.42 a 2,2 0 0 0 -3.27,0.75 2.73,2.73 0 0 0 0.22,2.29 24.05,24.05 0 0 1 1.08,2.32 c 1.4,3.89 1.44,7.72 -0.75,11.4 z"
           id="path1719" />
        <path
           style="fill:#333333"
           inkscape:connector-curvature="0"
           class="cls-6"
           d="m 1125.81,174.17 a 2.48,2.48 0 0 0 -1.4,2.48 2.45,2.45 0 0 0 1.68,1.92 6.89,6.89 0 0 0 1.25,-0.15 c 3.29,-1 6.58,-2 9.85,-3.09 a 3.71,3.71 0 0 0 2.48,-4.59 c -1,-3.43 -2.05,-6.84 -3.1,-10.25 a 2,2 0 0 0 -3.67,-0.35 4.36,4.36 0 0 0 -0.43,1.77 15.51,15.51 0 0 1 -2.38,8.4 12.19,12.19 0 0 1 -4.28,3.86 z"
           id="path1721" />
        <path
           style="fill:#333333"
           inkscape:connector-curvature="0"
           class="cls-6"
           d="m 1136.26,210.14 c 2.5,-2.52 5,-5.06 7.45,-7.61 a 1.86,1.86 0 0 0 0.37,-2.14 1.81,1.81 0 0 0 -1.84,-1.24 4.66,4.66 0 0 0 -1.76,0.48 c -4.69,2.39 -9.34,2.94 -14,0 a 2.39,2.39 0 0 0 -3.19,0.47 2.19,2.19 0 0 0 -0.42,1.06 57.38,57.38 0 0 1 12.34,9.76 3.81,3.81 0 0 0 1.05,-0.78 z"
           id="path1723" />
        <path
           style="fill:#333333"
           inkscape:connector-curvature="0"
           class="cls-6"
           d="m 1263,176.33 a 17.42,17.42 0 0 1 4.23,3.6 12,12 0 0 1 2.88,8.42 2.48,2.48 0 0 0 1.89,2.65 2.35,2.35 0 0 0 2.59,-2 c 0.73,-3.26 1.57,-6.49 2.3,-9.75 a 3.73,3.73 0 0 0 -2.91,-4.66 c -1.59,-0.42 -3.18,-0.87 -4.77,-1.3 l -0.07,0.24 -5.2,-1.42 a 1.86,1.86 0 0 0 -2.06,0.68 1.82,1.82 0 0 0 -0.22,2.21 4.31,4.31 0 0 0 1.34,1.33 z"
           id="path1725" />
        <path
           style="fill:#333333"
           inkscape:connector-curvature="0"
           class="cls-6"
           d="m 1234.08,274.73 a 2.34,2.34 0 0 0 2.07,2.44 q 4.69,1.1 9.37,2.23 a 3.85,3.85 0 0 0 5,-3 c 0.42,-1.57 0.86,-3.14 1.29,-4.71 l -0.24,-0.07 c 0.47,-1.71 1,-3.42 1.4,-5.14 a 2,2 0 0 0 -1.09,-2.35 2.42,2.42 0 0 0 -3.09,1.21 19.4,19.4 0 0 1 -1.44,2.12 12.64,12.64 0 0 1 -9.25,5.14 c -0.51,0 -1,0 -1.54,0 a 2.43,2.43 0 0 0 -2.48,2.13 z"
           id="path1727" />
        <path
           style="fill:#333333"
           inkscape:connector-curvature="0"
           class="cls-6"
           d="m 1164.54,161.77 a 2.27,2.27 0 0 0 2.52,-1.94 c 0.42,-1.57 0.86,-3.14 1.29,-4.71 h -0.15 c 0.41,-1.73 0.84,-3.45 1.21,-5.19 a 3.66,3.66 0 0 0 -2.31,-4.29 21.34,21.34 0 0 0 -2.48,-0.66 l -8,-2 a 2,2 0 0 0 -2.42,1 2.41,2.41 0 0 0 1.17,3.2 c 4.54,2.79 7.44,6.56 7.24,12.18 a 2.4,2.4 0 0 0 1.93,2.41 z"
           id="path1729" />
        <path
           style="fill:#333333"
           inkscape:connector-curvature="0"
           class="cls-6"
           d="m 1149,190.29 a 1.88,1.88 0 0 0 1.74,1.39 1.84,1.84 0 0 0 2,-1 4.21,4.21 0 0 0 0.4,-1.71 16.43,16.43 0 0 1 1.66,-7.18 11.78,11.78 0 0 1 5,-5.09 2.44,2.44 0 0 0 1.25,-3.08 2.3,2.3 0 0 0 -3,-1.11 l -9.42,3 a 4,4 0 0 0 -2.74,3 6.74,6.74 0 0 0 0.12,1.69 c 0.92,3.31 1.99,6.7 2.99,10.09 z"
           id="path1731" />
        <path
           style="fill:#333333"
           inkscape:connector-curvature="0"
           class="cls-6"
           d="m 1280.85,155.79 a 2.42,2.42 0 0 0 -3.09,1.2 20.42,20.42 0 0 1 -1.44,2.12 12.65,12.65 0 0 1 -9.31,5.15 c -0.47,0 -0.94,0 -1.41,0 a 2.47,2.47 0 0 0 -2.54,2.09 2.34,2.34 0 0 0 2.07,2.44 q 4.69,1.1 9.37,2.24 a 3.87,3.87 0 0 0 5,-3 c 0.41,-1.55 0.84,-3.1 1.27,-4.64 l -0.24,-0.07 c 0.47,-1.73 1,-3.46 1.42,-5.2 a 2,2 0 0 0 -1.1,-2.33 z"
           id="path1733" />
        <path
           style="fill:#333333"
           inkscape:connector-curvature="0"
           class="cls-6"
           d="m 1181,155.51 a 11.81,11.81 0 0 1 5,-0.87 2.56,2.56 0 0 0 2.49,-1.28 1.88,1.88 0 0 0 -0.22,-2.28 3.49,3.49 0 0 0 -1.6,-0.94 c -3.13,-0.8 -6.29,-1.51 -9.43,-2.26 a 3.85,3.85 0 0 0 -4.92,3 c -0.41,1.57 -0.86,3.14 -1.28,4.71 l 0.24,0.07 c -0.47,1.71 -0.95,3.42 -1.4,5.14 a 2,2 0 0 0 3.12,2.2 4.36,4.36 0 0 0 1.07,-1.16 15.07,15.07 0 0 1 6.93,-6.33 z"
           id="path1735" />
        <path
           style="fill:#333333"
           inkscape:connector-curvature="0"
           class="cls-6"
           d="m 1206.64,296.55 0.2,-0.21 a 13.57,13.57 0 0 0 1.19,-1.71 4.21,4.21 0 0 0 -1.2,-3.84 q -3.1,-3.06 -6.22,-6.1 a 57.12,57.12 0 0 1 6.03,11.86 z"
           id="path1737" />
        <path
           style="fill:#333333"
           inkscape:connector-curvature="0"
           class="cls-6"
           d="m 1264.74,292.19 a 2.35,2.35 0 0 0 2.35,-1.4 2.18,2.18 0 0 0 -1.58,-3 q -4.86,-1.2 -9.74,-2.35 a 3.86,3.86 0 0 0 -4.93,3 c -0.42,1.57 -0.86,3.14 -1.28,4.71 l 0.25,0.07 c -0.47,1.73 -1,3.46 -1.42,5.2 a 1.88,1.88 0 0 0 0.72,2.06 1.83,1.83 0 0 0 2.21,0.19 4,4 0 0 0 1.26,-1.23 c 2.83,-4.53 6.56,-7.44 12.16,-7.25 z"
           id="path1739" />
        <path
           style="fill:#333333"
           inkscape:connector-curvature="0"
           class="cls-6"
           d="m 1251.65,129 a 2.44,2.44 0 0 0 -3,-1.22 2.28,2.28 0 0 0 -1.13,3 c 1,3.17 2,6.33 3,9.49 a 3.72,3.72 0 0 0 4.71,2.57 c 3.39,-1 6.76,-2 10.13,-3.07 a 1.86,1.86 0 0 0 1.31,-1.37 1.94,1.94 0 0 0 -0.51,-2 2.92,2.92 0 0 0 -2.18,-0.76 14.65,14.65 0 0 1 -8.98,-2.64 12.08,12.08 0 0 1 -3.35,-4 z"
           id="path1741" />
        <path
           style="fill:#333333"
           inkscape:connector-curvature="0"
           class="cls-6"
           d="m 1298.91,197.63 a 2.62,2.62 0 0 0 -2.46,0.15 c -0.75,0.37 -1.49,0.77 -2.26,1.06 a 12.69,12.69 0 0 1 -10.46,-0.14 c -0.71,-0.34 -1.38,-0.76 -1.86,-1 -1.41,-0.38 -2.42,0 -2.94,0.84 a 2.28,2.28 0 0 0 0.48,2.86 q 3.64,3.53 7.29,7 a 3.74,3.74 0 0 0 5.36,0 q 3.74,-3.75 7.41,-7.56 a 2,2 0 0 0 -0.56,-3.21 z"
           id="path1743" />
        <path
           style="fill:#333333"
           inkscape:connector-curvature="0"
           class="cls-6"
           d="M 1273.6,299.24 A 92.08,92.08 0 0 0 1286,288 c 2.87,-3.16 5.6,-6.46 8.35,-9.73 a 2.27,2.27 0 0 0 -1.25,-3.74 2.18,2.18 0 0 0 -2.29,0.9 c -0.26,0.33 -0.48,0.71 -0.74,1 -4.64,6.31 -10.29,11.66 -16.15,16.79 -1,0.89 -2.14,1.64 -3.19,2.49 a 2.27,2.27 0 0 0 0.5,3.93 2.3,2.3 0 0 0 2.37,-0.4 z"
           id="path1745" />
        <path
           style="fill:#333333"
           inkscape:connector-curvature="0"
           class="cls-6"
           d="m 1144.43,223.56 1.83,1.8 a 1.86,1.86 0 0 0 2.08,0.4 2.31,2.31 0 0 0 1,-3.36 23.4,23.4 0 0 1 -1.1,-2.32 12.83,12.83 0 0 1 -0.16,-9.87 c 0.32,-0.76 0.78,-1.47 1.17,-2.2 a 2.43,2.43 0 0 0 -0.53,-3.13 2.28,2.28 0 0 0 -3.11,0.45 c -2.29,2.37 -4.58,4.73 -6.84,7.12 a 9.72,9.72 0 0 0 -1,1.35 57.51,57.51 0 0 1 6.66,9.76 z"
           id="path1747" />
        <path
           style="fill:#333333"
           inkscape:connector-curvature="0"
           class="cls-6"
           d="m 1152.13,259 -1.44,-0.35 c 0,0.12 0,0.24 0,0.36 0.45,-0.01 0.95,-0.01 1.44,-0.01 z"
           id="path1749" />
        <path
           style="fill:#333333"
           inkscape:connector-curvature="0"
           class="cls-6"
           d="m 1155.31,256.56 0.07,-0.25 5.2,1.42 a 1.89,1.89 0 0 0 2.06,-0.7 1.78,1.78 0 0 0 0.24,-2.15 4.46,4.46 0 0 0 -1.35,-1.39 c -4.42,-2.83 -7.29,-6.55 -7.09,-12.09 a 2.43,2.43 0 0 0 -2.06,-2.55 2.1,2.1 0 0 0 -2.13,1.21 57.8,57.8 0 0 1 0.8,15.33 z"
           id="path1751" />
        <path
           style="fill:#333333"
           inkscape:connector-curvature="0"
           class="cls-6"
           d="m 1258.45,265.87 a 2.27,2.27 0 0 0 -2.42,2 c -0.77,3.18 -1.55,6.36 -2.3,9.55 a 3.84,3.84 0 0 0 3,4.88 c 1.55,0.41 3.1,0.84 4.65,1.27 l 0.07,-0.24 5.2,1.42 a 1.94,1.94 0 0 0 2.16,-0.75 1.91,1.91 0 0 0 0.08,-2.34 4.37,4.37 0 0 0 -1.19,-1.13 c -4.46,-2.82 -7.34,-6.55 -7.14,-12.12 a 2.41,2.41 0 0 0 -2.11,-2.54 z"
           id="path1753" />
        <path
           style="fill:#333333"
           inkscape:connector-curvature="0"
           class="cls-6"
           d="m 1201.07,119.34 c -0.78,1 -0.58,2.24 0.52,3.3 2.3,2.23 4.59,4.48 6.92,6.68 a 10.74,10.74 0 0 0 1.45,1 3.9,3.9 0 0 0 4,-0.84 c 2.53,-2.52 5,-5.08 7.52,-7.63 a 1.85,1.85 0 0 0 0.37,-2.14 1.83,1.83 0 0 0 -1.84,-1.25 4.06,4.06 0 0 0 -1.64,0.42 16.62,16.62 0 0 1 -6.78,2 11.75,11.75 0 0 1 -7.14,-1.88 2.5,2.5 0 0 0 -3.38,0.34 z"
           id="path1755" />
        <path
           style="fill:#333333"
           inkscape:connector-curvature="0"
           class="cls-6"
           d="m 1268.55,144.2 a 2.32,2.32 0 0 0 -3.08,-1.13 c -3.12,1 -6.24,2 -9.36,2.93 a 4.21,4.21 0 0 0 -2.81,2.71 10.26,10.26 0 0 0 0.17,2.07 c 1,3.39 2,6.76 3.05,10.13 a 1.87,1.87 0 0 0 1.63,1.36 1.79,1.79 0 0 0 1.94,-0.84 4,4 0 0 0 0.53,-1.8 15,15 0 0 1 3.11,-9.5 12,12 0 0 1 3.51,-2.86 2.49,2.49 0 0 0 1.31,-3.07 z"
           id="path1757" />
        <path
           style="fill:#333333"
           inkscape:connector-curvature="0"
           class="cls-6"
           d="m 1219,308.7 a 3.9,3.9 0 0 0 0.62,0.29 2.29,2.29 0 0 0 2.83,-0.88 2.18,2.18 0 0 0 -0.35,-2.71 c -2.51,-2.45 -5,-4.9 -7.58,-7.3 a 3.67,3.67 0 0 0 -5.08,0 c -0.57,0.56 -1.13,1.14 -1.7,1.71 a 57.41,57.41 0 0 1 1.69,7.29 11.87,11.87 0 0 1 9.57,1.6 z"
           id="path1759" />
        <path
           style="fill:#333333"
           inkscape:connector-curvature="0"
           class="cls-6"
           d="m 1273.43,204.81 a 2.94,2.94 0 0 0 0.39,2.09 14.34,14.34 0 0 1 1.67,10.46 11,11 0 0 1 -0.43,1.27 c -0.37,0.77 -0.77,1.52 -1.19,2.26 a 2.51,2.51 0 0 0 0.39,3.27 2.29,2.29 0 0 0 3.2,-0.46 q 3.45,-3.58 6.89,-7.16 a 3.74,3.74 0 0 0 0,-5.41 q -3.72,-3.71 -7.5,-7.37 a 2,2 0 0 0 -3.42,1.05 z"
           id="path1761" />
        <path
           style="fill:#333333"
           inkscape:connector-curvature="0"
           class="cls-6"
           d="m 1280.32,235.41 a 2.45,2.45 0 0 0 -3,-1.3 2.2,2.2 0 0 0 -1.34,2.61 q 1.4,5.14 2.89,10.25 a 3.83,3.83 0 0 0 2.87,2.52 7.54,7.54 0 0 0 1.7,-0.11 c 3.39,-0.89 6.77,-1.83 10.15,-2.76 a 2,2 0 0 0 0.4,-3.76 4.76,4.76 0 0 0 -1.66,-0.4 14.91,14.91 0 0 1 -9.08,-3.22 12.39,12.39 0 0 1 -2.93,-3.83 z"
           id="path1763" />
        <path
           style="fill:#333333"
           inkscape:connector-curvature="0"
           class="cls-6"
           d="m 1289.51,160.07 a 2.29,2.29 0 0 0 -3.4,-2.26 2.32,2.32 0 0 0 -1.08,1.6 c -0.76,3.21 -1.55,6.41 -2.31,9.62 a 3.86,3.86 0 0 0 3,4.92 c 1.57,0.41 3.14,0.85 4.71,1.28 l 0.07,-0.24 c 1.71,0.47 3.42,0.95 5.14,1.4 a 1.92,1.92 0 0 0 2.15,-0.78 1.83,1.83 0 0 0 0.1,-2.22 4.4,4.4 0 0 0 -1.26,-1.23 c -4.43,-2.84 -7.3,-6.54 -7.12,-12.09 z"
           id="path1765" />
        <path
           style="fill:#333333"
           inkscape:connector-curvature="0"
           class="cls-6"
           d="m 1208.88,139.66 c -2.45,2.45 -4.87,4.93 -7.29,7.4 a 2,2 0 0 0 -0.44,2.3 2,2 0 0 0 2,1.2 5.26,5.26 0 0 0 1.46,-0.41 c 1,-0.42 2,-1 3.06,-1.31 a 12.3,12.3 0 0 1 9.32,0.33 c 0.81,0.37 1.58,0.84 2.13,1.15 1.45,0.39 2.46,0 3,-0.85 a 2.28,2.28 0 0 0 -0.51,-2.86 q -3.61,-3.51 -7.24,-7 a 3.76,3.76 0 0 0 -5.49,0.05 z"
           id="path1767" />
        <path
           style="fill:#333333"
           inkscape:connector-curvature="0"
           class="cls-6"
           d="m 1244.1,131.1 a 1.88,1.88 0 0 0 -1.68,-1.38 1.78,1.78 0 0 0 -1.92,0.87 4.77,4.77 0 0 0 -0.51,1.74 c -0.19,1.52 -0.3,3.05 -0.44,4.58 a 16.86,16.86 0 0 1 -2.52,4.78 12.22,12.22 0 0 1 -3.69,3 2.47,2.47 0 0 0 -1.26,3.08 2.3,2.3 0 0 0 3,1.11 c 3.14,-1 6.29,-2 9.42,-3 a 3.76,3.76 0 0 0 2.59,-4.8 c -0.94,-3.27 -1.98,-6.62 -2.99,-9.98 z"
           id="path1769" />
        <path
           style="fill:#333333"
           inkscape:connector-curvature="0"
           class="cls-6"
           d="m 1245.79,149.34 c -3.34,1 -6.67,2 -10,3 a 1.88,1.88 0 0 0 -1.41,1.66 1.81,1.81 0 0 0 1,2 4.28,4.28 0 0 0 1.76,0.46 c 5.28,0.14 9.65,1.89 12.36,6.75 a 4.75,4.75 0 0 0 1.25,1.17 2.23,2.23 0 0 0 2.93,-2.82 c -1,-3.25 -2,-6.5 -3.05,-9.74 a 3.75,3.75 0 0 0 -4.84,-2.48 z"
           id="path1771" />
        <path
           style="fill:#333333"
           inkscape:connector-curvature="0"
           class="cls-6"
           d="m 1305,206.32 a 2.43,2.43 0 0 0 -0.5,-3.14 2.27,2.27 0 0 0 -3.11,0.42 q -3.47,3.6 -6.94,7.2 a 3.78,3.78 0 0 0 0,5.46 c 2.47,2.46 5,4.89 7.46,7.32 a 6.26,6.26 0 0 0 0.82,0.58 2.13,2.13 0 0 0 2.51,-1.34 2.82,2.82 0 0 0 -0.3,-2.34 c -2,-3.83 -2.83,-7.78 -1.15,-12 a 23.38,23.38 0 0 1 1.21,-2.16 z"
           id="path1773" />
        <path
           style="fill:#333333"
           inkscape:connector-curvature="0"
           class="cls-6"
           d="m 1226.15,145 a 2.35,2.35 0 0 0 0.81,-3.24 c -0.25,-0.5 -0.54,-1 -0.76,-1.49 -1.87,-4.36 -2.08,-8.65 0.61,-12.8 a 3.19,3.19 0 0 0 0.24,-0.48 c 0.38,-1.37 0,-2.36 -0.89,-2.9 a 2.23,2.23 0 0 0 -2.89,0.56 c -2.33,2.41 -4.68,4.81 -7,7.24 a 3.76,3.76 0 0 0 0,5.37 c 2.49,2.5 5,5 7.53,7.43 a 1.93,1.93 0 0 0 2.35,0.31 z"
           id="path1775" />
        <path
           style="fill:#333333"
           inkscape:connector-curvature="0"
           class="cls-6"
           d="m 1296.94,229.23 c 1.39,0.37 2.4,0 2.9,-0.81 a 2.28,2.28 0 0 0 -0.47,-2.92 q -3.62,-3.51 -7.25,-7 a 3.73,3.73 0 0 0 -5.41,0 c -2.5,2.49 -5,5 -7.41,7.57 a 2,2 0 0 0 0.64,3.21 2.62,2.62 0 0 0 2.35,-0.16 c 0.75,-0.37 1.48,-0.77 2.26,-1.07 3.54,-1.35 7.08,-1.58 10.58,0.16 0.7,0.36 1.36,0.79 1.81,1.02 z"
           id="path1777" />
        <path
           style="fill:#333333"
           inkscape:connector-curvature="0"
           class="cls-6"
           d="m 1158.08,135.08 a 2.42,2.42 0 0 0 -2.51,2 2.28,2.28 0 0 0 2,2.45 c 3.18,0.77 6.36,1.55 9.55,2.3 a 3.84,3.84 0 0 0 4.88,-3 c 0.42,-1.59 0.87,-3.18 1.3,-4.77 l -0.24,-0.07 c 0.47,-1.71 0.95,-3.42 1.4,-5.14 a 1.94,1.94 0 0 0 -0.82,-2.18 c -1.09,-0.76 -2.52,-0.28 -3.36,1.07 -2.81,4.63 -6.58,7.53 -12.2,7.34 z"
           id="path1779" />
        <path
           style="fill:#333333"
           inkscape:connector-curvature="0"
           class="cls-6"
           d="m 1182.13,112.27 c -4.26,1.35 -8.45,2.91 -12.67,4.38 a 2.36,2.36 0 0 0 -1.58,1.64 2.19,2.19 0 0 0 0.66,2.22 2.15,2.15 0 0 0 2.26,0.49 c 0.44,-0.15 0.85,-0.39 1.29,-0.57 a 103.19,103.19 0 0 1 26.3,-7.06 2.28,2.28 0 1 0 -0.56,-4.5 87.55,87.55 0 0 0 -15.7,3.4 z"
           id="path1781" />
        <path
           style="fill:#333333"
           inkscape:connector-curvature="0"
           class="cls-6"
           d="m 1232.86,281.2 a 1.83,1.83 0 0 0 -0.17,2.22 4.08,4.08 0 0 0 1.24,1.25 c 4.49,2.83 7.37,6.57 7.17,12.17 a 2.43,2.43 0 0 0 2,2.51 2.28,2.28 0 0 0 2.51,-2 c 0.79,-3.27 1.59,-6.53 2.33,-9.81 a 3.73,3.73 0 0 0 -2.84,-4.6 l -4.83,-1.32 -0.07,0.25 -5.2,-1.42 a 1.88,1.88 0 0 0 -2.14,0.75 z"
           id="path1783" />
        <path
           style="fill:#333333"
           inkscape:connector-curvature="0"
           class="cls-6"
           d="m 1295.55,254.09 a 2.45,2.45 0 0 0 1.22,-3 2.28,2.28 0 0 0 -2.95,-1.22 l -9.56,2.7 a 4,4 0 0 0 -2.84,3 6.67,6.67 0 0 0 0.09,1.63 c 0.9,3.45 1.85,6.89 2.79,10.34 a 1.79,1.79 0 0 0 1.19,1.25 2.25,2.25 0 0 0 3,-2.23 26.7,26.7 0 0 1 0.29,-3 12.65,12.65 0 0 1 4.49,-8 21.57,21.57 0 0 1 2.28,-1.47 z"
           id="path1785" />
        <path
           style="fill:#333333"
           inkscape:connector-curvature="0"
           class="cls-6"
           d="m 1272.72,237.33 a 1.87,1.87 0 0 0 -1.64,-1.42 1.81,1.81 0 0 0 -2,0.88 4.1,4.1 0 0 0 -0.52,1.74 15.94,15.94 0 0 1 -2.19,7.75 11.63,11.63 0 0 1 -4.71,4.32 2.51,2.51 0 0 0 -1.46,3.06 c 0.46,1.18 1.62,1.63 3.1,1.22 l 9.44,-2.66 a 4.15,4.15 0 0 0 2.84,-2.66 9.44,9.44 0 0 0 -0.1,-2 c -0.87,-3.39 -1.82,-6.81 -2.76,-10.23 z"
           id="path1787" />
        <path
           style="fill:#333333"
           inkscape:connector-curvature="0"
           class="cls-6"
           d="m 1294.88,154.39 a 2.17,2.17 0 0 0 0.09,-2.63 c -0.42,-0.64 -0.92,-1.24 -1.4,-1.84 a 106.79,106.79 0 0 0 -12.95,-13.5 c -2.25,-2 -4.57,-3.86 -6.9,-5.74 a 2.23,2.23 0 0 0 -3.28,0.41 2.29,2.29 0 0 0 0.63,3.27 c 0.38,0.28 0.78,0.53 1.15,0.82 a 102.59,102.59 0 0 1 18.95,19 8.36,8.36 0 0 0 1.21,1.08 2.59,2.59 0 0 0 2.5,-0.87 z"
           id="path1789" />
        <path
           style="fill:#333333"
           inkscape:connector-curvature="0"
           class="cls-6"
           d="m 1314.63,201.61 a 116.66,116.66 0 0 0 -7.8,-28.45 2.28,2.28 0 1 0 -4.16,1.82 88.64,88.64 0 0 1 5.56,16.79 c 0.8,3.45 1.28,7 1.87,10.47 a 2.29,2.29 0 1 0 4.52,-0.63 z"
           id="path1791" />
        <path
           style="fill:#333333"
           inkscape:connector-curvature="0"
           class="cls-6"
           d="m 1112.32,196.29 q 0.42,-2.06 0.89,-4.11 a 117.41,117.41 0 0 1 5,-15.09 2.3,2.3 0 0 0 -1.17,-3.11 2.25,2.25 0 0 0 -3,1.35 120,120 0 0 0 -4.32,12.3 q -0.78,3.7 -1.56,7.41 2.1,0.55 4.16,1.25 z"
           id="path1793" />
        <path
           style="fill:#333333"
           inkscape:connector-curvature="0"
           class="cls-6"
           d="m 1144.06,131.17 a 114.69,114.69 0 0 0 -15.71,15.61 c -1.16,1.39 -2.32,2.79 -3.42,4.24 a 2.24,2.24 0 0 0 0.5,3.18 2.27,2.27 0 0 0 3.14,-0.49 c 0.3,-0.39 0.56,-0.81 0.86,-1.2 a 100.67,100.67 0 0 1 19.19,-19.13 6.72,6.72 0 0 0 1,-1.2 2.55,2.55 0 0 0 -1,-2.52 2.21,2.21 0 0 0 -2.59,0 c -0.67,0.47 -1.32,0.99 -1.97,1.51 z"
           id="path1795" />
        <path
           style="fill:#333333"
           inkscape:connector-curvature="0"
           class="cls-6"
           d="m 1314.12,227.07 a 2.28,2.28 0 0 0 -2,-2.69 2.37,2.37 0 0 0 -2.58,2.2 c -0.41,2.88 -0.78,5.77 -1.34,8.62 a 92,92 0 0 1 -5.87,18.91 2.28,2.28 0 1 0 4.23,1.7 c 0.62,-1.55 1.24,-3.1 1.8,-4.67 a 120.88,120.88 0 0 0 5.76,-24.07 z"
           id="path1797" />
        <path
           style="fill:#333333"
           inkscape:connector-curvature="0"
           class="cls-6"
           d="m 1183.76,177.14 c 1,-1.64 1.85,-3.32 2.94,-4.87 a 21.6,21.6 0 0 1 5.72,-5.9 3.86,3.86 0 0 0 1,-1.13 1.46,1.46 0 0 0 0,-1.8 c -0.44,-0.57 -1,-0.49 -1.64,-0.32 l -7.55,2 a 4.41,4.41 0 0 0 -3.09,3 7.06,7.06 0 0 0 -0.12,0.78 q -0.19,4.22 -0.37,8.45 a 1.14,1.14 0 0 0 1.61,1.2 2.9,2.9 0 0 0 1.5,-1.41 z"
           id="path1799" />
        <path
           style="fill:#333333"
           inkscape:connector-curvature="0"
           class="cls-6"
           d="m 1236.83,254 a 3.76,3.76 0 0 0 -1.35,1.46 32,32 0 0 1 -5.23,7.64 c -1,1.08 -2.23,2 -3.33,3 -0.52,0.48 -1,1 -1.23,1.32 -0.41,1.53 0.41,2.37 1.59,2.05 q 4,-1 7.92,-2.13 a 4.27,4.27 0 0 0 3,-3.77 c 0.15,-2.79 0.26,-5.59 0.38,-8.38 0.07,-1.09 -0.82,-1.72 -1.75,-1.19 z"
           id="path1801" />
        <path
           style="fill:#333333"
           inkscape:connector-curvature="0"
           class="cls-6"
           d="m 1250.49,175.18 c 0.13,0.63 0.22,1.28 0.4,1.9 0.61,2.2 1.38,4.36 1.85,6.59 a 19.08,19.08 0 0 1 0.34,6.94 4,4 0 0 0 0.25,1.74 1.36,1.36 0 0 0 1.32,1 1.29,1.29 0 0 0 1.21,-0.89 c 1.21,-2.4 2.44,-4.8 3.63,-7.21 a 4.26,4.26 0 0 0 -0.86,-5 q -2.92,-2.88 -5.87,-5.73 c -0.83,-0.82 -1.81,-0.52 -2.27,0.66 z"
           id="path1803" />
        <path
           style="fill:#333333"
           inkscape:connector-curvature="0"
           class="cls-6"
           d="m 1161.65,240.78 a 4.44,4.44 0 0 0 0.77,4.19 c 1.89,2.15 3.85,4.24 5.79,6.35 a 1.1,1.1 0 0 0 1.87,-0.22 2.55,2.55 0 0 0 0.07,-2.29 30.08,30.08 0 0 1 -1.54,-6.8 21.68,21.68 0 0 1 0.09,-6.95 3.76,3.76 0 0 0 -0.17,-1.69 1.34,1.34 0 0 0 -1.19,-1 1.32,1.32 0 0 0 -1.32,0.83 c -0.93,1.63 -1.88,3.26 -2.81,4.88 -0.57,0.92 -1.12,1.92 -1.56,2.7 z"
           id="path1805" />
        <path
           style="fill:#333333"
           inkscape:connector-curvature="0"
           class="cls-6"
           d="m 1169.57,189 a 4.35,4.35 0 0 0 3.48,-3.19 c 0.43,-2.85 0.87,-5.72 1.28,-8.6 a 1.12,1.12 0 0 0 -1.69,-1.27 4.1,4.1 0 0 0 -1.52,1.39 33,33 0 0 1 -4.45,5.54 21.14,21.14 0 0 1 -5.23,4.09 4,4 0 0 0 -1.25,1.24 1.33,1.33 0 0 0 0,1.57 1.28,1.28 0 0 0 1.42,0.49 c 2.64,-0.38 5.31,-0.77 7.96,-1.26 z"
           id="path1807" />
        <path
           style="fill:#333333"
           inkscape:connector-curvature="0"
           class="cls-6"
           d="m 1152.32,215.12 a 2.65,2.65 0 0 0 0.47,2.25 30.56,30.56 0 0 1 3.26,7 20.2,20.2 0 0 1 1.19,5.88 4,4 0 0 0 0.51,1.69 1.37,1.37 0 0 0 1.49,0.78 c 0.64,-0.1 0.91,-0.58 1.07,-1.15 0.37,-1.32 0.72,-2.64 1.09,-4 h 0.16 c 0.17,-0.62 0.33,-1.24 0.51,-1.86 0.18,-0.62 0.39,-1.22 0.58,-1.84 a 4.26,4.26 0 0 0 -1.41,-4.57 c -2.36,-1.7 -4.76,-3.33 -7.16,-5 a 1.1,1.1 0 0 0 -1.76,0.82 z"
           id="path1809" />
        <path
           style="fill:#333333"
           inkscape:connector-curvature="0"
           class="cls-6"
           d="m 1088.92,183.75 c 3,0.85 5.93,1.65 8.91,2.44 a 3.26,3.26 0 0 0 3,-0.57 2.92,2.92 0 0 0 1.15,-2.95 3.17,3.17 0 0 0 -2.37,-2.61 c -1.49,-0.45 -3,-0.83 -4.51,-1.24 v 0 c -1.46,-0.4 -2.93,-0.81 -4.39,-1.2 a 3.25,3.25 0 0 0 -4.11,2.11 3.22,3.22 0 0 0 2.32,4.02 z"
           id="path1811" />
        <path
           style="fill:#333333"
           inkscape:connector-curvature="0"
           class="cls-6"
           d="m 1325.27,220.22 a 3.17,3.17 0 0 0 -0.6,6.3 q 4.89,0.42 9.78,0.68 a 3.17,3.17 0 0 0 3.3,-2.8 3.29,3.29 0 0 0 -2.65,-3.5 l -1.45,-0.12 c -2.79,-0.2 -5.58,-0.42 -8.38,-0.56 z"
           id="path1813" />
        <path
           style="fill:#333333"
           inkscape:connector-curvature="0"
           class="cls-6"
           d="m 1137.54,124.37 a 3.23,3.23 0 0 0 3.59,1 2.93,2.93 0 0 0 2,-2.85 4,4 0 0 0 -0.61,-2 c -1.8,-2.57 -3.69,-5.09 -5.57,-7.61 a 3.14,3.14 0 0 0 -3.28,-1.27 2.93,2.93 0 0 0 -2.31,2 3.47,3.47 0 0 0 0.57,3.13 c 1.36,1.87 2.74,3.72 4.11,5.58 0.5,0.65 0.96,1.37 1.5,2.02 z"
           id="path1815" />
        <path
           style="fill:#333333"
           inkscape:connector-curvature="0"
           class="cls-6"
           d="m 1162.75,108.89 a 4.64,4.64 0 0 0 0.41,0.8 3.13,3.13 0 0 0 5.25,0.14 3.26,3.26 0 0 0 0.3,-3.18 q -1.69,-4.27 -3.41,-8.52 a 3.37,3.37 0 0 0 -0.39,-0.73 3.11,3.11 0 0 0 -3.23,-1.38 3,3 0 0 0 -2.41,2.17 3.7,3.7 0 0 0 0.16,2.43 c 1.12,2.75 2.21,5.51 3.32,8.27 z"
           id="path1817" />
        <path
           style="fill:#333333"
           inkscape:connector-curvature="0"
           class="cls-6"
           d="m 1303.18,131.32 c -2.35,2 -4.7,3.92 -7,5.92 a 10.59,10.59 0 0 0 -1.28,1.63 l 0.11,0.1 a 6.63,6.63 0 0 0 -0.1,0.82 2.92,2.92 0 0 0 1.73,2.84 3.13,3.13 0 0 0 3.54,-0.47 q 3.59,-3 7.11,-6 a 3.18,3.18 0 1 0 -4.1,-4.85 z"
           id="path1819" />
        <path
           style="fill:#333333"
           inkscape:connector-curvature="0"
           class="cls-6"
           d="m 1319.94,237.87 a 3.13,3.13 0 0 0 1.37,3.78 10.24,10.24 0 0 0 1.41,0.59 v -0.05 l 2.26,0.46 c 2.24,0.45 4.48,0.95 6.73,1.33 a 3.16,3.16 0 0 0 1.19,-6.2 c -3.15,-0.69 -6.32,-1.33 -9.49,-1.93 a 3.21,3.21 0 0 0 -3.47,2.02 z"
           id="path1821" />
        <path
           style="fill:#333333"
           inkscape:connector-curvature="0"
           class="cls-6"
           d="m 1324.9,204.83 a 3.06,3.06 0 0 0 -2.77,2.17 3.18,3.18 0 0 0 3.32,4.15 c 1.43,-0.05 2.86,-0.16 4.29,-0.25 1.71,-0.11 3.42,-0.18 5.12,-0.33 a 3.18,3.18 0 0 0 0.59,-6.26 5.94,5.94 0 0 0 -0.89,-0.08 c -3.22,0.19 -6.44,0.35 -9.66,0.6 z"
           id="path1823" />
        <path
           style="fill:#333333"
           inkscape:connector-curvature="0"
           class="cls-6"
           d="m 1123.76,140.38 a 2.92,2.92 0 0 0 2.75,-2.07 3.15,3.15 0 0 0 -0.93,-3.51 q -3.41,-3.16 -6.87,-6.27 a 9.62,9.62 0 0 0 -1.33,-0.86 3.32,3.32 0 0 0 -3.61,1.45 3.21,3.21 0 0 0 0.61,4 c 2.29,2.15 4.63,4.25 7,6.36 a 3.14,3.14 0 0 0 2.38,0.9 z"
           id="path1825" />
        <path
           style="fill:#333333"
           inkscape:connector-curvature="0"
           class="cls-6"
           d="m 1103.48,176.94 a 3.24,3.24 0 0 0 -2.09,-4 c -2.82,-1 -5.65,-2 -8.47,-3 -0.25,-0.07 -0.49,-0.15 -0.74,-0.2 a 3.16,3.16 0 0 0 -1.88,6 c 3,1.09 6,2.16 9.09,3.17 a 3.19,3.19 0 0 0 4.09,-1.97 z"
           id="path1827" />
        <path
           style="fill:#333333"
           inkscape:connector-curvature="0"
           class="cls-6"
           d="m 1198.59,90.52 c 0,1 0.11,2 0.18,3.07 0.13,2.13 0.23,4.26 0.41,6.39 a 3.23,3.23 0 0 0 3,3 3.32,3.32 0 0 0 3.29,-2.41 c 0,-0.45 0.06,-0.89 0,-1.34 -0.08,-1.58 -0.19,-3.15 -0.28,-4.73 -0.09,-1.58 -0.15,-2.86 -0.26,-4.28 a 3.18,3.18 0 1 0 -6.35,0.28 z"
           id="path1829" />
        <path
           style="fill:#333333"
           inkscape:connector-curvature="0"
           class="cls-6"
           d="m 1249.31,324 a 3.17,3.17 0 1 0 -6,2 c 0.95,3 2,6.07 3,9.08 a 3.17,3.17 0 0 0 2.21,2.06 2.94,2.94 0 0 0 3,-0.76 3.13,3.13 0 0 0 0.83,-3.31 q -1.51,-4.58 -3.04,-9.07 z"
           id="path1831" />
        <path
           style="fill:#333333"
           inkscape:connector-curvature="0"
           class="cls-6"
           d="m 1234.9,328.09 a 3,3 0 0 0 -2,-2.37 3.16,3.16 0 0 0 -4.19,3.47 c 0.51,3.23 1.15,6.44 1.84,9.64 a 3.12,3.12 0 0 0 3.71,2.39 3.21,3.21 0 0 0 2.47,-3.73 q -0.86,-4.72 -1.83,-9.4 z"
           id="path1833" />
        <path
           style="fill:#333333"
           inkscape:connector-curvature="0"
           class="cls-6"
           d="m 1324.64,228 a 3.18,3.18 0 0 0 -3.54,2.72 3.25,3.25 0 0 0 2.79,3.57 q 4.7,0.68 9.41,1.27 a 3.21,3.21 0 0 0 3.59,-2.67 3.29,3.29 0 0 0 -2.66,-3.61 l -1.19,-0.17 c -2.81,-0.35 -5.6,-0.77 -8.4,-1.11 z"
           id="path1835" />
        <path
           style="fill:#333333"
           inkscape:connector-curvature="0"
           class="cls-6"
           d="m 1294.07,290.37 a 3.18,3.18 0 0 0 -0.52,5.26 q 3.35,3.13 6.77,6.19 a 10.43,10.43 0 0 0 1.38,0.9 3.34,3.34 0 0 0 3.63,-1.43 3.18,3.18 0 0 0 -0.52,-4 q -3.52,-3.32 -7.14,-6.54 a 3,3 0 0 0 -3.6,-0.38 z"
           id="path1837" />
        <path
           style="fill:#333333"
           inkscape:connector-curvature="0"
           class="cls-6"
           d="m 1223.06,94.89 c -0.25,1.84 -0.55,3.68 -0.71,5.54 a 3.17,3.17 0 0 0 2.86,3.42 3.3,3.3 0 0 0 3.45,-2.87 q 0.63,-4.61 1.25,-9.22 a 3.25,3.25 0 0 0 -2.6,-3.71 c -1.61,-0.31 -3.18,0.79 -3.7,2.79 -0.16,1.16 -0.36,2.61 -0.55,4.05 z"
           id="path1839" />
        <path
           style="fill:#333333"
           inkscape:connector-curvature="0"
           class="cls-6"
           d="m 1184.22,102.35 a 3,3 0 0 0 2.07,2.35 3.16,3.16 0 0 0 4.14,-3.47 c -0.52,-3.23 -1.15,-6.44 -1.84,-9.64 a 3.13,3.13 0 0 0 -3.7,-2.41 3.18,3.18 0 0 0 -2.49,3.65 c 0.6,3.17 1.17,6.36 1.82,9.52 z"
           id="path1841" />
        <path
           style="fill:#333333"
           inkscape:connector-curvature="0"
           class="cls-6"
           d="m 1322.74,189.82 a 3.17437,3.17437 0 1 0 1.17,6.24 q 4.67,-0.83 9.32,-1.79 a 3.11,3.11 0 0 0 2.42,-2.1 A 3.19,3.19 0 0 0 1332,188 c -3.1,0.58 -6.18,1.19 -9.26,1.82 z"
           id="path1843" />
        <path
           style="fill:#333333"
           inkscape:connector-curvature="0"
           class="cls-6"
           d="m 1133.22,129.95 a 3,3 0 0 0 3.54,-1.07 3.2,3.2 0 0 0 -0.09,-3.89 q -3.05,-3.72 -6.2,-7.36 a 8.07,8.07 0 0 0 -1.53,-1.1 3.47,3.47 0 0 0 -3,0.77 3.18,3.18 0 0 0 -0.3,4.41 c 2,2.47 4.07,4.9 6.16,7.31 a 3.66,3.66 0 0 0 1.42,0.93 z"
           id="path1845" />
        <path
           style="fill:#333333"
           inkscape:connector-curvature="0"
           class="cls-6"
           d="m 1215.14,91.19 c -0.22,2.81 -0.43,5.63 -0.59,8.45 a 3.17,3.17 0 0 0 6.31,0.53 c 0.17,-1.74 0.27,-3.5 0.39,-5.24 0.1,-1.43 0.22,-2.86 0.29,-4.29 a 3.24,3.24 0 0 0 -2.39,-3.38 3,3 0 0 0 -3.6,1.75 7,7 0 0 0 -0.41,2.18 z"
           id="path1847" />
        <path
           style="fill:#333333"
           inkscape:connector-curvature="0"
           class="cls-6"
           d="m 1301.83,280.64 a 3.15,3.15 0 0 0 1.22,3.47 c 2.61,1.86 5.23,3.7 7.89,5.49 a 3.1614277,3.1614277 0 0 0 3.64,-5.17 c -2.63,-1.9 -5.29,-3.77 -8,-5.56 a 3.13,3.13 0 0 0 -4.75,1.77 z"
           id="path1849" />
        <path
           style="fill:#333333"
           inkscape:connector-curvature="0"
           class="cls-6"
           d="m 1206.85,91.75 c 0,2.54 0,5.08 0,7.62 a 3.26,3.26 0 0 0 3.05,3.4 3.17,3.17 0 0 0 3.29,-3 c 0.08,-3.26 0.08,-6.53 0,-9.8 a 3.17,3.17 0 0 0 -2.93,-3.11 c -1.48,-0.14 -2.85,0.87 -3.38,2.78 0,0.45 -0.03,1.28 -0.03,2.11 z"
           id="path1851" />
        <path
           style="fill:#333333"
           inkscape:connector-curvature="0"
           class="cls-6"
           d="m 1291.88,120 q -3.23,3.47 -6.39,7 a 8,8 0 0 0 -0.77,1.24 3.34,3.34 0 0 0 1.12,3.44 3.19,3.19 0 0 0 3.56,0.2 3,3 0 0 0 0.71,-0.54 c 2.18,-2.37 4.39,-4.72 6.52,-7.15 a 3.16,3.16 0 0 0 -1,-5 3.26,3.26 0 0 0 -3.75,0.81 z"
           id="path1853" />
        <path
           style="fill:#333333"
           inkscape:connector-curvature="0"
           class="cls-6"
           d="m 1332.51,212.48 c -2.33,0 -4.66,0 -7,0 a 3.29,3.29 0 0 0 -3.33,2.79 3.24,3.24 0 0 0 2.6,3.51 4.23,4.23 0 0 0 0.59,0.06 c 3.14,0 6.28,0.06 9.42,0 a 3.21,3.21 0 0 0 3.29,-3.22 3.26,3.26 0 0 0 -3.33,-3.13 c -0.75,-0.01 -1.49,0 -2.24,-0.01 z"
           id="path1855" />
        <path
           style="fill:#333333"
           inkscape:connector-curvature="0"
           class="cls-6"
           d="m 1106.22,169.87 a 3.26,3.26 0 0 0 -1.83,-4.09 c -1,-0.44 -2,-0.85 -2.94,-1.27 -2,-0.84 -3.91,-1.73 -5.91,-2.48 a 3.14,3.14 0 0 0 -4,1.71 3.24,3.24 0 0 0 1.77,4.21 c 1.27,0.57 2.55,1.11 3.83,1.66 l 4.83,2.06 a 3.32,3.32 0 0 0 4.25,-1.8 z"
           id="path1857" />
        <path
           style="fill:#333333"
           inkscape:connector-curvature="0"
           class="cls-6"
           d="m 1309,155.35 a 3.13,3.13 0 0 0 0.18,5.51 3.27,3.27 0 0 0 3.2,-0.14 l 4.32,-2.4 c 1.27,-0.71 2.56,-1.39 3.8,-2.14 a 3.17,3.17 0 0 0 1.61,-3.25 3,3 0 0 0 -2.29,-2.56 v -0.19 a 7.54,7.54 0 0 0 -2.21,0.41 c -2.94,1.52 -5.82,3.08 -8.61,4.76 z"
           id="path1859" />
        <path
           style="fill:#333333"
           inkscape:connector-curvature="0"
           class="cls-6"
           d="m 1256.21,321.19 a 3.19,3.19 0 0 0 -3.23,-2 3.41,3.41 0 0 0 -2.86,2.31 7.93,7.93 0 0 0 0.22,2 c 1.14,3 2.34,6 3.56,8.94 a 3.09,3.09 0 0 0 2,1.83 2.91,2.91 0 0 0 3.12,-0.79 3.16,3.16 0 0 0 0.72,-3.39 c -0.32,-1 -0.73,-1.87 -1.1,-2.81 -0.78,-2.01 -1.57,-4.06 -2.43,-6.09 z"
           id="path1861" />
        <path
           style="fill:#333333"
           inkscape:connector-curvature="0"
           class="cls-6"
           d="m 1291.28,295.34 a 3.38,3.38 0 0 0 -3.48,1.28 3.06,3.06 0 0 0 0.1,3.77 c 2.29,2.51 4.66,4.95 7,7.37 a 2.83,2.83 0 0 0 2.38,0.75 2.93,2.93 0 0 0 2.59,-1.91 3.18,3.18 0 0 0 -0.74,-3.56 q -3.17,-3.36 -6.4,-6.66 a 9.61,9.61 0 0 0 -1.45,-1.04 z"
           id="path1863" />
        <path
           style="fill:#333333"
           inkscape:connector-curvature="0"
           class="cls-6"
           d="m 1147.84,120.87 a 3.24,3.24 0 0 0 0.88,-4.49 c -1.67,-2.64 -3.37,-5.26 -5.06,-7.88 a 3.52,3.52 0 0 0 -2.29,-1.49 2.91,2.91 0 0 0 -2.91,1.17 3.09,3.09 0 0 0 -0.19,3.67 q 2.51,4.07 5.16,8 a 3.2,3.2 0 0 0 4.41,1.02 z"
           id="path1865" />
        <path
           style="fill:#333333"
           inkscape:connector-curvature="0"
           class="cls-6"
           d="m 1227.76,331.56 c -0.09,-0.72 -0.15,-1.45 -0.29,-2.16 a 3.17,3.17 0 0 0 -6.2,-0.35 5.79,5.79 0 0 0 -0.09,1.14 c 0.39,3.23 0.76,6.45 1.22,9.67 a 3.17,3.17 0 0 0 3.07,2.7 3.21,3.21 0 0 0 3.18,-3.74 c -0.26,-2.43 -0.59,-4.82 -0.89,-7.26 z"
           id="path1867" />
        <path
           style="fill:#333333"
           inkscape:connector-curvature="0"
           class="cls-6"
           d="m 1109.19,158.22 a 3.25,3.25 0 0 0 3.86,-1.67 3.2,3.2 0 0 0 -1.19,-4 c -2.77,-1.73 -5.57,-3.42 -8.41,-5 a 3.17,3.17 0 0 0 -4.4,1.49 3.28,3.28 0 0 0 1.41,4.11 c 2.63,1.6 5.27,3.17 7.92,4.75 0.26,0.1 0.54,0.19 0.81,0.32 z"
           id="path1869" />
        <path
           style="fill:#333333"
           inkscape:connector-curvature="0"
           class="cls-6"
           d="m 1109.34,163.24 a 3.21,3.21 0 0 0 -1.47,-4.28 q -4.25,-2.25 -8.56,-4.38 a 3.17,3.17 0 0 0 -2.83,5.67 c 2.83,1.5 5.68,3 8.56,4.37 a 3.18,3.18 0 0 0 4.3,-1.38 z"
           id="path1871" />
        <path
           style="fill:#333333"
           inkscape:connector-curvature="0"
           class="cls-6"
           d="m 1312.92,161.62 a 4,4 0 0 0 -0.92,0.58 3.12,3.12 0 0 0 -1.09,3.16 3,3 0 0 0 2.19,2.29 v 0.18 a 8.06,8.06 0 0 0 2.16,-0.33 c 2.94,-1.33 5.86,-2.72 8.75,-4.15 a 3.18,3.18 0 0 0 1.71,-3.37 3.22,3.22 0 0 0 -4.73,-2.22 c -2.67,1.24 -5.37,2.57 -8.07,3.86 z"
           id="path1873" />
        <path
           style="fill:#333333"
           inkscape:connector-curvature="0"
           class="cls-6"
           d="m 1310.23,266.5 a 3.23,3.23 0 0 0 1.19,5.06 c 1.67,0.87 3.35,1.72 5,2.57 l 3.47,1.76 a 3.33,3.33 0 0 0 4.19,-1.78 3.25,3.25 0 0 0 -1.55,-4 q -4.14,-2.18 -8.33,-4.27 a 3.25,3.25 0 0 0 -3.97,0.66 z"
           id="path1875" />
        <path
           style="fill:#333333"
           inkscape:connector-curvature="0"
           class="cls-6"
           d="m 1191.63,100.91 a 3.07,3.07 0 0 0 2.08,2.6 3.21,3.21 0 0 0 4.2,-3.44 c -0.34,-3.12 -0.74,-6.23 -1.16,-9.34 a 3.17,3.17 0 1 0 -6.3,0.71 q 0.55,4.74 1.18,9.47 z"
           id="path1877" />
        <path
           style="fill:#333333"
           inkscape:connector-curvature="0"
           class="cls-6"
           d="m 1205.9,338.27 c 0,0.67 0,1.35 0,2 a 3.35,3.35 0 0 0 0.46,1.74 c 0.71,0.46 1.4,0.95 2.09,1.45 a 3.14,3.14 0 0 0 3.77,-2.89 c 0.09,-1.55 0,-3.11 0.05,-4.67 0.05,-1.56 0,-3.37 0,-5.06 a 3.26,3.26 0 0 0 -2.76,-3.22 3.13,3.13 0 0 0 -0.44,0 57.52,57.52 0 0 1 -3.17,10.65 z"
           id="path1879" />
        <path
           style="fill:#333333"
           inkscape:connector-curvature="0"
           class="cls-6"
           d="m 1271.93,106.14 q -2.31,3.8 -4.59,7.63 c -0.2,0.33 -0.34,0.69 -0.5,1 a 3.26,3.26 0 0 0 1.64,3.81 3.18,3.18 0 0 0 4,-1.13 c 1.75,-2.81 3.47,-5.64 5.09,-8.52 a 3.15,3.15 0 0 0 -2.17,-4.55 3.34,3.34 0 0 0 -3.47,1.76 z"
           id="path1881" />
        <path
           style="fill:#333333"
           inkscape:connector-curvature="0"
           class="cls-6"
           d="M 1233.16,90.21 A 3.51,3.51 0 0 0 1232,92.3 c -0.6,3 -1.24,6 -1.8,9 a 3.1623765,3.1623765 0 1 0 6.2,1.25 c 0.68,-3.13 1.31,-6.28 1.92,-9.43 a 3.25,3.25 0 0 0 -1.57,-3.28 3.1,3.1 0 0 0 -3.59,0.37 z"
           id="path1883" />
        <path
           style="fill:#333333"
           inkscape:connector-curvature="0"
           class="cls-6"
           d="m 1117.58,145.85 a 3.18,3.18 0 0 0 2.94,-5.59 c -2.06,-1.67 -4.13,-3.32 -6.21,-5 a 13.8,13.8 0 0 0 -1.43,-1.08 3.16,3.16 0 0 0 -4.51,1.36 3.29,3.29 0 0 0 1.11,4 q 3.49,2.82 7,5.6 a 8.44,8.44 0 0 0 1.1,0.71 z"
           id="path1885" />
        <path
           style="fill:#333333"
           inkscape:connector-curvature="0"
           class="cls-6"
           d="m 1257.13,98.89 c -0.63,1.45 -1.24,2.91 -1.87,4.36 -0.63,1.45 -1.17,2.71 -1.75,4.07 a 3.31,3.31 0 0 0 1.54,4.42 3.25,3.25 0 0 0 4.25,-1.79 c 0.43,-0.93 0.83,-1.88 1.23,-2.82 l 2.46,-5.77 a 3.31,3.31 0 0 0 -1.67,-4.27 3.25,3.25 0 0 0 -4.19,1.8 z"
           id="path1887" />
        <path
           style="fill:#333333"
           inkscape:connector-curvature="0"
           class="cls-6"
           d="m 1285.58,114.92 q -2.93,3.61 -5.8,7.27 a 9.3,9.3 0 0 0 -0.7,1.21 3.24,3.24 0 0 0 1.52,3.67 3.16,3.16 0 0 0 4,-0.74 c 2.07,-2.5 4.11,-5 6.08,-7.61 a 3.16,3.16 0 0 0 -1.38,-4.86 3.28,3.28 0 0 0 -3.72,1.06 z"
           id="path1889" />
        <path
           style="fill:#333333"
           inkscape:connector-curvature="0"
           class="cls-6"
           d="m 1100,192 a 3.12,3.12 0 0 0 -1.4,-3.66 10.23,10.23 0 0 0 -1.41,-0.59 v 0.05 l -2.26,-0.46 c -2.24,-0.45 -4.48,-1 -6.73,-1.33 a 3.16,3.16 0 0 0 -1.21,6.2 q 2.54,0.56 5.09,1.07 a 57.85,57.85 0 0 1 6.87,0.21 3.34,3.34 0 0 0 1.05,-1.49 z"
           id="path1891" />
        <path
           style="fill:#333333"
           inkscape:connector-curvature="0"
           class="cls-6"
           d="m 1264.77,102.16 q -2.16,4.12 -4.24,8.27 a 3.19,3.19 0 1 0 5.66,2.92 q 2.14,-4.13 4.22,-8.28 a 3.1732357,3.1732357 0 1 0 -5.64,-2.91 z"
           id="path1893" />
        <path
           style="fill:#333333"
           inkscape:connector-curvature="0"
           class="cls-6"
           d="m 1318.79,175.33 a 4.19,4.19 0 0 0 -1,0.5 3.12,3.12 0 0 0 0,5.24 3.38,3.38 0 0 0 3,0.31 c 2.84,-0.94 5.69,-1.87 8.53,-2.82 a 3.9,3.9 0 0 0 1.09,-0.54 3.08,3.08 0 0 0 1.32,-3.13 c -0.21,-1.28 -1,-2.08 -2.61,-2.58 a 8.24,8.24 0 0 0 -1.77,0.22 c -2.88,0.9 -5.72,1.85 -8.56,2.8 z"
           id="path1895" />
        <path
           style="fill:#333333"
           inkscape:connector-curvature="0"
           class="cls-6"
           d="m 1169.78,106.38 a 3.28,3.28 0 0 0 2.43,2.19 2.88,2.88 0 0 0 2.81,-0.83 3.15,3.15 0 0 0 0.8,-3.32 c -0.95,-3 -1.92,-6 -2.93,-9 a 3.17,3.17 0 1 0 -6,2 c 0.9,3 1.89,5.98 2.89,8.96 z"
           id="path1897" />
        <path
           style="fill:#333333"
           inkscape:connector-curvature="0"
           class="cls-6"
           d="m 1127.82,135 a 3.33,3.33 0 0 0 3.58,-1.42 3.24,3.24 0 0 0 -0.42,-3.92 c -2.15,-2.29 -4.31,-4.57 -6.54,-6.79 a 4,4 0 0 0 -1.95,-1 2.91,2.91 0 0 0 -3.17,1.57 3.24,3.24 0 0 0 0.56,3.8 q 3.21,3.41 6.48,6.75 a 8.88,8.88 0 0 0 1.46,1.01 z"
           id="path1899" />
        <path
           style="fill:#333333"
           inkscape:connector-curvature="0"
           class="cls-6"
           d="m 1308.31,137.46 q -3.74,2.72 -7.43,5.49 a 3.18,3.18 0 1 0 3.74,5.13 c 2.51,-1.82 5,-3.65 7.48,-5.54 a 9.57,9.57 0 0 0 1.39,-1.69 l -0.13,-0.11 a 5.71,5.71 0 0 0 0.1,-0.63 2.94,2.94 0 0 0 -1.52,-2.9 3.17,3.17 0 0 0 -3.63,0.25 z"
           id="path1901" />
        <path
           style="fill:#333333"
           inkscape:connector-curvature="0"
           class="cls-6"
           d="m 1176.8,103.74 a 4.41,4.41 0 0 0 0.29,0.85 3.15,3.15 0 0 0 2.74,1.93 3,3 0 0 0 2.85,-1.51 3.44,3.44 0 0 0 0.32,-2.79 c -0.75,-2.88 -1.48,-5.76 -2.24,-8.63 a 4.39,4.39 0 0 0 -0.4,-1 3.21,3.21 0 0 0 -3.17,-1.64 3.42,3.42 0 0 0 -2.75,2.34 12.47,12.47 0 0 0 0.17,1.95 c 0.71,2.83 1.45,5.66 2.19,8.5 z"
           id="path1903" />
        <path
           style="fill:#333333"
           inkscape:connector-curvature="0"
           class="cls-6"
           d="m 1263,318.09 a 3.23,3.23 0 0 0 -3.25,-1.84 3.24,3.24 0 0 0 -2.5,4.53 q 2,4.3 4.07,8.58 a 3.15,3.15 0 0 0 2.3,1.78 2.91,2.91 0 0 0 3,-1 3.15,3.15 0 0 0 0.49,-3.37 c -0.35,-0.87 -0.79,-1.71 -1.19,-2.56 -1.01,-2.06 -1.92,-4.1 -2.92,-6.12 z"
           id="path1905" />
        <path
           style="fill:#333333"
           inkscape:connector-curvature="0"
           class="cls-6"
           d="m 1323.92,197.3 a 3.16,3.16 0 0 0 0.85,6.26 q 4.81,-0.52 9.6,-1.21 a 3,3 0 0 0 2.53,-2 3.18,3.18 0 0 0 -3.25,-4.23 c -3.25,0.26 -6.49,0.7 -9.73,1.18 z"
           id="path1907" />
        <path
           style="fill:#333333"
           inkscape:connector-curvature="0"
           class="cls-6"
           d="m 1269.15,314.06 a 3.13,3.13 0 0 0 -5.32,0.57 3.29,3.29 0 0 0 0.17,3.14 c 1.47,2.66 2.94,5.32 4.43,8 a 3.85,3.85 0 0 0 0.9,1.07 3.09,3.09 0 0 0 5,-1.53 3.41,3.41 0 0 0 -0.35,-2.66 l -4.4,-7.91 a 4.3,4.3 0 0 0 -0.43,-0.68 z"
           id="path1909" />
        <path
           style="fill:#333333"
           inkscape:connector-curvature="0"
           class="cls-6"
           d="m 1320.68,182.6 a 3.15,3.15 0 0 0 -2.24,3.17 3.27,3.27 0 0 0 2.28,2.94 6.65,6.65 0 0 0 1.58,0 c 3.17,-0.79 6.35,-1.58 9.49,-2.47 a 3.16,3.16 0 0 0 2.15,-3.8 3.12,3.12 0 0 0 -3.7,-2.3 c -3.24,0.74 -6.39,1.58 -9.56,2.46 z"
           id="path1911" />
        <path
           style="fill:#333333"
           inkscape:connector-curvature="0"
           class="cls-6"
           d="m 1309.87,272.16 a 3.24,3.24 0 0 0 -3.77,1.63 3.18,3.18 0 0 0 1.18,4.11 q 4.11,2.56 8.3,5 a 3,3 0 0 0 3.4,-0.18 3.18,3.18 0 0 0 -0.39,-5.41 c -2.57,-1.57 -5.16,-3.11 -7.75,-4.66 -0.3,-0.2 -0.64,-0.33 -0.97,-0.49 z"
           id="path1913" />
        <path
           style="fill:#333333"
           inkscape:connector-curvature="0"
           class="cls-6"
           d="m 1242.17,326.23 a 3.16,3.16 0 0 0 -6.12,1.57 c 0.75,3.12 1.57,6.22 2.4,9.32 a 3,3 0 0 0 2,2.16 3.17,3.17 0 0 0 4.18,-3.66 c -0.77,-3.16 -1.63,-6.28 -2.46,-9.39 z"
           id="path1915" />
        <path
           style="fill:#333333"
           inkscape:connector-curvature="0"
           class="cls-6"
           d="m 1297.52,125.64 q -3.18,3 -6.34,6.09 a 4.9,4.9 0 0 0 -0.7,0.83 3.12,3.12 0 0 0 1.39,4.67 3.22,3.22 0 0 0 3.6,-0.8 c 1.67,-1.59 3.33,-3.2 5,-4.8 0.59,-0.56 1.19,-1.11 1.74,-1.7 a 3.16,3.16 0 0 0 -1.37,-5.3 3.37,3.37 0 0 0 -3.32,1.01 z"
           id="path1917" />
        <path
           style="fill:#333333"
           inkscape:connector-curvature="0"
           class="cls-6"
           d="m 1315.86,168.47 a 3.18,3.18 0 0 0 -1.93,2.17 2.91,2.91 0 0 0 0.87,3.1 3.17,3.17 0 0 0 3.47,0.61 q 4.36,-1.71 8.69,-3.49 a 3.18,3.18 0 1 0 -2.35,-5.9 c -2.93,1.13 -5.84,2.32 -8.75,3.51 z"
           id="path1919" />
        <path
           style="fill:#333333"
           inkscape:connector-curvature="0"
           class="cls-6"
           d="m 1280.81,305.38 c -1.81,-1.2 -4.18,-0.32 -4.86,2.16 a 3,3 0 0 0 0.57,2.32 q 2.82,3.9 5.71,7.75 a 3.08,3.08 0 0 0 2.69,1.24 2.87,2.87 0 0 0 2.63,-1.66 3.25,3.25 0 0 0 -0.36,-3.57 q -2.69,-3.67 -5.41,-7.33 a 4,4 0 0 0 -0.97,-0.91 z"
           id="path1921" />
        <path
           style="fill:#333333"
           inkscape:connector-curvature="0"
           class="cls-6"
           d="m 1310,145.87 c -1.64,1.05 -3.29,2.08 -4.9,3.18 a 3.09,3.09 0 0 0 -1.37,3.3 2.89,2.89 0 0 0 2.07,2.34 3.19,3.19 0 0 0 2.65,-0.28 c 2.75,-1.74 5.49,-3.48 8.2,-5.28 a 3.1605261,3.1605261 0 0 0 -3.46,-5.29 c -1.11,0.64 -2.19,1.35 -3.19,2.03 z"
           id="path1923" />
        <path
           style="fill:#333333"
           inkscape:connector-curvature="0"
           class="cls-6"
           d="m 1315.69,253.34 a 3.17,3.17 0 0 0 2,4.1 c 2.81,1 5.64,2 8.51,3 0.22,0.06 0.49,0.15 0.76,0.21 a 3.16,3.16 0 0 0 1.94,-6 q -4.57,-1.68 -9.2,-3.21 a 3.16,3.16 0 0 0 -4.01,1.9 z"
           id="path1925" />
        <path
           style="fill:#333333"
           inkscape:connector-curvature="0"
           class="cls-6"
           d="m 1151.78,117.48 a 2.91,2.91 0 0 0 3.1,-1.08 3.16,3.16 0 0 0 0.28,-3.67 q -2.23,-4.08 -4.52,-8.13 a 3.18,3.18 0 1 0 -5.55,3.09 c 1.49,2.74 3,5.47 4.55,8.19 a 3.36,3.36 0 0 0 2.14,1.6 z"
           id="path1927" />
        <path
           style="fill:#333333"
           inkscape:connector-curvature="0"
           class="cls-6"
           d="m 1113.35,151.94 a 3.21,3.21 0 0 0 3.72,-1.61 3.16,3.16 0 0 0 -1,-4 c -2.62,-1.88 -5.26,-3.74 -7.94,-5.53 a 3.16,3.16 0 0 0 -4.66,1.35 3.27,3.27 0 0 0 1.21,4 c 2.53,1.79 5.08,3.55 7.63,5.31 a 8.17,8.17 0 0 0 1.04,0.48 z"
           id="path1929" />
        <path
           style="fill:#333333"
           inkscape:connector-curvature="0"
           class="cls-6"
           d="m 1275.19,309.93 a 3.12,3.12 0 0 0 -5.2,1.37 3.3,3.3 0 0 0 0.43,2.76 c 0.63,1 1.29,2 1.94,3 1,1.58 2,3.19 3.06,4.75 a 3.17,3.17 0 0 0 5.48,0 3.26,3.26 0 0 0 -0.2,-3.58 q -2.44,-3.81 -4.89,-7.61 a 3.91,3.91 0 0 0 -0.62,-0.69 z"
           id="path1931" />
        <path
           style="fill:#333333"
           inkscape:connector-curvature="0"
           class="cls-6"
           d="m 1158.35,114.09 a 2.94,2.94 0 0 0 3,-1 3.1,3.1 0 0 0 0.49,-3.53 q -2,-4.28 -4,-8.52 a 3.1737872,3.1737872 0 1 0 -5.74,2.71 c 1.31,2.86 2.68,5.69 4,8.52 a 3.36,3.36 0 0 0 2.25,1.82 z"
           id="path1933" />
        <path
           style="fill:#333333"
           inkscape:connector-curvature="0"
           class="cls-6"
           d="m 1297.29,287.05 a 3.24,3.24 0 0 0 1.36,3.14 q 3.5,2.81 7,5.6 a 11,11 0 0 0 1.25,0.75 3.27,3.27 0 0 0 3.73,-1.51 3.2,3.2 0 0 0 -0.74,-4 c -2.5,-2.07 -5,-4.13 -7.61,-6.08 a 3.12,3.12 0 0 0 -4.99,2.1 z"
           id="path1935" />
        <path
           style="fill:#333333"
           inkscape:connector-curvature="0"
           class="cls-6"
           d="m 1285.82,300.43 a 3,3 0 0 0 -3.52,1.15 3.25,3.25 0 0 0 0.21,3.94 q 3,3.64 6.08,7.21 a 8.72,8.72 0 0 0 1.57,1.16 l 0.08,-0.09 a 6.81,6.81 0 0 0 0.89,0.09 2.91,2.91 0 0 0 2.73,-1.7 3.22,3.22 0 0 0 -0.51,-3.66 c -2,-2.35 -3.91,-4.7 -5.92,-7 a 4.17,4.17 0 0 0 -1.61,-1.1 z"
           id="path1937" />
        <path
           style="fill:#333333"
           inkscape:connector-curvature="0"
           class="cls-6"
           d="m 1312.94,260.44 a 3.23,3.23 0 0 0 1.81,4.19 c 1.27,0.57 2.55,1.11 3.82,1.66 l 4.83,2.05 a 3.1830803,3.1830803 0 1 0 2.44,-5.88 c -1,-0.45 -2,-0.87 -3,-1.29 -1.93,-0.82 -3.83,-1.7 -5.79,-2.44 a 3.15,3.15 0 0 0 -4.11,1.71 z"
           id="path1939" />
        <path
           style="fill:#333333"
           inkscape:connector-curvature="0"
           class="cls-6"
           d="m 1220.51,339.82 c -0.17,-3.12 -0.34,-6.23 -0.56,-9.34 a 3.18,3.18 0 0 0 -6.28,-0.64 c 0,0.45 -0.08,0.89 -0.05,1.34 0.12,2.16 0.25,4.31 0.39,6.46 0.06,1 0.07,1.93 0.2,2.88 a 3.2,3.2 0 0 0 2.85,2.79 3.1,3.1 0 0 0 3.28,-2.23 3.66,3.66 0 0 0 0.17,-1.26 z"
           id="path1941" />
        <path
           style="fill:#333333"
           inkscape:connector-curvature="0"
           class="cls-6"
           d="m 1279.08,110.12 q -2.85,3.94 -5.55,8 a 3.16,3.16 0 0 0 1.23,4.56 3.28,3.28 0 0 0 4.17,-1.22 q 2.61,-3.72 5.19,-7.47 a 10.35,10.35 0 0 0 0.59,-1.13 3.22,3.22 0 0 0 -1.62,-3.72 3.13,3.13 0 0 0 -4.01,0.98 z"
           id="path1943" />
        <path
           style="fill:#333333"
           inkscape:connector-curvature="0"
           class="cls-6"
           d="m 1149.06,231.55 a 2.28,2.28 0 1 0 2.8,-1.62 2.32,2.32 0 0 0 -2.8,1.62 z"
           id="path1945" />
        <path
           style="fill:#333333"
           inkscape:connector-curvature="0"
           class="cls-6"
           d="m 1229.19,155.54 a 2.28,2.28 0 1 0 -2.8,1.61 2.3,2.3 0 0 0 2.8,-1.61 z"
           id="path1947" />
        <path
           style="fill:#333333"
           inkscape:connector-curvature="0"
           class="cls-6"
           d="m 1167.92,168.27 a 2.29,2.29 0 1 0 1.63,2.79 2.32,2.32 0 0 0 -1.63,-2.79 z"
           id="path1949" />
        <path
           style="fill:#333333"
           inkscape:connector-curvature="0"
           class="cls-6"
           d="m 1209.18,109.72 a 2.29,2.29 0 1 0 2.83,-1.56 2.31,2.31 0 0 0 -2.83,1.56 z"
           id="path1951" />
        <circle
           style="fill:#333333"
           r="2.28"
           class="cls-6"
           cx="1142.95"
           cy="175.50999"
           transform="rotate(-74.49,1142.9036,175.53607)"
           id="ellipse1953" />
        <path
           style="fill:#333333"
           inkscape:connector-curvature="0"
           class="cls-6"
           d="m 1276.46,251.88 a 2.28,2.28 0 1 0 2.83,-1.56 2.3,2.3 0 0 0 -2.83,1.56 z"
           id="path1955" />
        <path
           style="fill:#333333"
           inkscape:connector-curvature="0"
           class="cls-6"
           d="m 1197.5,154.21 a 2.27,2.27 0 1 0 -2.78,1.63 2.28,2.28 0 0 0 2.78,-1.63 z"
           id="path1957" />
        <path
           style="fill:#333333"
           inkscape:connector-curvature="0"
           class="cls-6"
           d="m 1264.84,126.11 a 2.29,2.29 0 1 0 -2.82,1.56 2.27,2.27 0 0 0 2.82,-1.56 z"
           id="path1959" />
        <ellipse
           style="fill:#333333"
           class="cls-6"
           cx="1227.25"
           cy="275.98999"
           rx="2.29"
           ry="2.27"
           transform="rotate(-74.58,1227.2303,276.00423)"
           id="ellipse1961" />
        <path
           style="fill:#333333"
           inkscape:connector-curvature="0"
           class="cls-6"
           d="m 1294.68,192.65 a 2.29,2.29 0 1 0 -1.58,-2.81 2.26,2.26 0 0 0 1.58,2.81 z"
           id="path1963" />
        <path
           style="fill:#333333"
           inkscape:connector-curvature="0"
           class="cls-6"
           d="m 1261.76,305.52 a 2.29,2.29 0 1 0 -1.53,-2.84 2.27,2.27 0 0 0 1.53,2.84 z"
           id="path1965" />
        <ellipse
           style="fill:#333333"
           class="cls-6"
           cx="1211.4399"
           cy="134.58"
           rx="2.29"
           ry="2.27"
           transform="rotate(-74.8,1211.453,134.5709)"
           id="ellipse1967" />
        <path
           style="fill:#333333"
           inkscape:connector-curvature="0"
           class="cls-6"
           d="m 1234.19,127.88 a 2.27,2.27 0 1 0 1.56,2.78 2.27,2.27 0 0 0 -1.56,-2.78 z"
           id="path1969" />
        <ellipse
           style="fill:#333333"
           class="cls-6"
           cx="1300.87"
           cy="162.24001"
           rx="2.29"
           ry="2.27"
           transform="rotate(-74.76,1300.9349,162.20158)"
           id="ellipse1971" />
        <path
           style="fill:#333333"
           inkscape:connector-curvature="0"
           class="cls-6"
           d="m 1212.58,291.18 a 2.29,2.29 0 1 0 1.54,2.84 2.32,2.32 0 0 0 -1.54,-2.84 z"
           id="path1973" />
        <path
           style="fill:#333333"
           inkscape:connector-curvature="0"
           class="cls-6"
           d="m 1152.25,199.32 a 2.28,2.28 0 1 0 -2.81,1.59 2.28,2.28 0 0 0 2.81,-1.59 z"
           id="path1975" />
        <path
           style="fill:#333333"
           inkscape:connector-curvature="0"
           class="cls-6"
           d="m 1280.32,172 a 2.28,2.28 0 1 0 1.6,2.8 2.26,2.26 0 0 0 -1.6,-2.8 z"
           id="path1977" />
        <path
           style="fill:#333333"
           inkscape:connector-curvature="0"
           class="cls-6"
           d="m 1169.11,261.36 a 2.27,2.27 0 1 0 -3.79,-2.19 2.25,2.25 0 0 0 0,1.21 c 1.29,0.29 2.55,0.62 3.79,0.98 z"
           id="path1979" />
        <path
           style="fill:#333333"
           inkscape:connector-curvature="0"
           class="cls-6"
           d="m 1248.25,145.5 a 2.29,2.29 0 1 0 2.81,-1.58 2.29,2.29 0 0 0 -2.81,1.58 z"
           id="path1981" />
        <path
           style="fill:#333333"
           inkscape:connector-curvature="0"
           class="cls-6"
           d="m 1170.05,144.41 a 2.26,2.26 0 1 0 2.75,-1.6 2.28,2.28 0 0 0 -2.75,1.6 z"
           id="path1983" />
        <path
           style="fill:#333333"
           inkscape:connector-curvature="0"
           class="cls-6"
           d="m 1121.81,160.35 a 2.28,2.28 0 1 0 1.59,2.81 2.26,2.26 0 0 0 -1.59,-2.81 z"
           id="path1985" />
        <path
           style="fill:#333333"
           inkscape:connector-curvature="0"
           class="cls-6"
           d="m 1149.64,150.24 a 2.28,2.28 0 1 0 1.59,2.75 2.27,2.27 0 0 0 -1.59,-2.75 z"
           id="path1987" />
        <path
           style="fill:#333333"
           inkscape:connector-curvature="0"
           class="cls-6"
           d="m 1250.12,284.77 a 2.27,2.27 0 1 0 -1.55,-2.83 2.26,2.26 0 0 0 1.55,2.83 z"
           id="path1989" />
        <path
           style="fill:#333333"
           inkscape:connector-curvature="0"
           class="cls-6"
           d="m 1288.78,215.83 a 2.27,2.27 0 1 0 -1.6,-2.81 2.28,2.28 0 0 0 1.6,2.81 z"
           id="path1991" />
        <path
           style="fill:#333333"
           inkscape:connector-curvature="0"
           class="cls-6"
           d="m 1295.36,235.58 a 2.27,2.27 0 1 0 2.8,-1.59 2.27,2.27 0 0 0 -2.8,1.59 z"
           id="path1993" />
        <path
           style="fill:#333333"
           inkscape:connector-curvature="0"
           class="cls-6"
           d="m 1299.2,267.17 a 2.27,2.27 0 1 0 -1.56,-2.82 2.24,2.24 0 0 0 1.56,2.82 z"
           id="path1995" />
        <path
           style="fill:#333333"
           inkscape:connector-curvature="0"
           class="cls-6"
           d="m 1185.44,128.19 a 2.26,2.26 0 0 0 1.56,2.81 2.27,2.27 0 1 0 -1.59,-2.81 z"
           id="path1997" />
        <path
           style="fill:#333333"
           inkscape:connector-curvature="0"
           class="cls-6"
           d="m 1156.35,122.79 a 2.27,2.27 0 1 0 2.75,-1.59 2.25,2.25 0 0 0 -2.75,1.59 z"
           id="path1999" />
        <path
           style="fill:#333333"
           inkscape:connector-curvature="0"
           class="cls-6"
           d="m 1195.63,278.24 a 2.25,2.25 0 0 0 2,-1.69 2.2632554,2.2632554 0 0 0 -4.37,-1.18 2.31,2.31 0 0 0 -0.05,0.29 q 1.18,1.17 2.3,2.42 z"
           id="path2001" />
        <path
           style="fill:#333333"
           inkscape:connector-curvature="0"
           class="cls-6"
           d="m 1254.37,172.47 a 2.27,2.27 0 1 0 -1.58,-2.8 2.24,2.24 0 0 0 1.58,2.8 z"
           id="path2003" />
        <path
           style="fill:#333333"
           inkscape:connector-curvature="0"
           class="cls-6"
           d="m 1272.17,278.28 a 2.28,2.28 0 1 0 1.14,-4.41 2.28,2.28 0 0 0 -1.14,4.41 z"
           id="path2005" />
        <path
           style="fill:#333333"
           inkscape:connector-curvature="0"
           class="cls-6"
           d="m 1312.32,216.29 a 2.27,2.27 0 1 0 -1.57,-2.81 2.23,2.23 0 0 0 1.57,2.81 z"
           id="path2007" />
        <path
           style="fill:#333333"
           inkscape:connector-curvature="0"
           class="cls-6"
           d="m 1127.84,191.08 a 2.27,2.27 0 1 0 1.53,2.83 2.23,2.23 0 0 0 -1.53,-2.83 z"
           id="path2009" />
        <path
           style="fill:#333333"
           inkscape:connector-curvature="0"
           class="cls-6"
           d="m 1272.47,150.22 a 2.27,2.27 0 1 0 1.59,2.8 2.26,2.26 0 0 0 -1.59,-2.8 z"
           id="path2011" />
        <path
           style="fill:#333333"
           inkscape:connector-curvature="0"
           class="cls-6"
           d="m 1210.9,317.42 a 2.22,2.22 0 0 0 1.6,2.79 2.27,2.27 0 1 0 -1.6,-2.79 z"
           id="path2013" />
        <path
           style="fill:#333333"
           inkscape:connector-curvature="0"
           class="cls-6"
           d="m 1214.82,212.92 a 7.34,7.34 0 0 0 8.19,2.44 10,10 0 0 0 3.91,-2.28 3.07,3.07 0 0 0 0.81,-1.31 c 1,-3.69 2,-7.39 3.05,-11.08 0.06,-0.24 0.11,-0.48 0.17,-0.75 l -27.36,-7.49 -1.53,5.6 12,3.29 c -0.33,1.21 -0.66,2.33 -0.94,3.48 a 0.74,0.74 0 0 1 -0.73,0.64 c -4,0.59 -7.9,1.21 -11.85,1.81 l -1.14,0.19 -1.55,5.66 c 4.47,-0.69 11.29,-1.31 15.66,-2 0.49,0.63 0.85,1.24 1.31,1.8 z m 4.9,-3.31 a 9.57,9.57 0 0 1 -1.29,-1.73 0.5,0.5 0 0 1 0,-0.37 c 0.41,-1.52 0.83,-3 1.26,-4.64 l 4.19,1.15 -0.25,0.9 -1,3.77 a 1.92,1.92 0 0 1 -2.91,0.93 z"
           id="path2015" />
        <path
           style="fill:#333333"
           inkscape:connector-curvature="0"
           class="cls-6"
           d="m 1224.5,194.82 a 9.91,9.91 0 0 0 3,-19.49 q -5.07,-1.42 -10.16,-2.77 a 11.09,11.09 0 0 0 -2.46,-0.38 9.91,9.91 0 0 0 -3.43,19.29 c 1.89,0.62 3.83,1.07 5.75,1.59 v 0 c 1.4,0.38 2.8,0.8 4.21,1.14 a 16.09,16.09 0 0 0 3.09,0.62 z M 1213.3,186 a 4.12,4.12 0 0 1 2.28,-7.91 c 3.52,0.94 7,1.89 10.53,2.88 a 4.1231056,4.1231056 0 0 1 -2,8 c -1.83,-0.43 -3.64,-1 -5.45,-1.48 v 0 c -1.82,-0.49 -3.66,-0.94 -5.37,-1.49 z"
           id="path2017" />
        <path
           style="fill:#333333"
           inkscape:connector-curvature="0"
           class="cls-6"
           d="m 1200.35,256.25 c 1.9,0.52 3.78,1.1 5.7,1.55 a 9.910222,9.910222 0 0 0 4.68,-19.26 q -5.1,-1.44 -10.22,-2.79 a 10.93,10.93 0 0 0 -2.4,-0.37 9.91,9.91 0 0 0 -3.33,19.33 c 1.84,0.57 3.71,1 5.57,1.54 z m -3.73,-7 a 4,4 0 0 1 -2.9,-3.55 4.12,4.12 0 0 1 2.2,-4 3.75,3.75 0 0 1 2.8,-0.37 c 3.58,1 7.15,1.92 10.72,2.94 a 4.08,4.08 0 0 1 2.7,5 4.13,4.13 0 0 1 -4.85,3 l -0.31,-0.07 -5.14,-1.41 v 0 c -1.75,-0.6 -3.49,-1.05 -5.21,-1.56 z"
           id="path2019" />
        <path
           style="fill:#333333"
           inkscape:connector-curvature="0"
           class="cls-6"
           d="m 1197.86,213.11 -0.45,-0.12 -4.41,16.27 5.56,1.52 2.92,-10.68 6.41,1.75 -2.32,8.47 5.59,1.53 2.32,-8.48 5.17,1.42 -3,10.79 5.57,1.52 4.48,-16.37 z"
           id="path2021" />
        <path
           style="fill:#333333"
           inkscape:connector-curvature="0"
           class="cls-6"
           d="m 1232.89,207.59 a 4.2,4.2 0 0 0 -1.08,2.56 61.59,61.59 0 0 1 -3.27,14 c -0.57,1.58 -1.39,3.07 -2,4.63 a 15.54,15.54 0 0 0 -0.84,2.93 1.4,1.4 0 0 0 0.73,1.64 c 0.72,0.32 1.15,-0.25 1.57,-0.7 2.25,-2.37 4.48,-4.76 6.76,-7.11 a 8.39,8.39 0 0 0 2,-3.68 7.79,7.79 0 0 0 0.13,-3.34 c -0.71,-3.5 -1.41,-7 -2.15,-10.49 -0.08,-0.37 -0.4,-0.92 -0.67,-1 a 1.65,1.65 0 0 0 -1.18,0.56 z"
           id="path2023" />
        <path
           style="fill:#333333"
           inkscape:connector-curvature="0"
           class="cls-6"
           d="m 1189.5,223 a 4.06,4.06 0 0 0 1,-2.53 60.7,60.7 0 0 1 2.5,-13.07 c 0.62,-2 1.5,-3.86 2.2,-5.8 a 15.06,15.06 0 0 0 0.74,-2.89 1.46,1.46 0 0 0 -0.8,-1.68 c -0.72,-0.28 -1.13,0.3 -1.55,0.76 -2.19,2.46 -4.36,4.93 -6.56,7.38 a 8,8 0 0 0 -1.79,3.46 7.22,7.22 0 0 0 -0.13,3.41 c 0.83,3.54 1.66,7.08 2.53,10.6 0.09,0.36 0.44,0.9 0.71,0.92 a 1.69,1.69 0 0 0 1.15,-0.56 z"
           id="path2025" />
      </g>
    </g>
  </g>
</svg>
