<?xml version="1.0" encoding="UTF-8"?>
<svg width="77.885mm" height="78.208mm" version="1.1" viewBox="0 0 77.885 78.208" xmlns="http://www.w3.org/2000/svg" xmlns:cc="http://creativecommons.org/ns#" xmlns:dc="http://purl.org/dc/elements/1.1/" xmlns:rdf="http://www.w3.org/1999/02/22-rdf-syntax-ns#">
<metadata>
<rdf:RDF>
<cc:Work rdf:about="">
<dc:format>image/svg+xml</dc:format>
<dc:type rdf:resource="http://purl.org/dc/dcmitype/StillImage"/>
<dc:title/>
</cc:Work>
</rdf:RDF>
</metadata>
<g transform="translate(-117.54 -130.9)">
<g transform="translate(59.72 105.83)">
<g transform="matrix(.26458 0 0 .26458 -223.47 7.2268)">
<path class="cls-5" d="m1097.5 236.2a43.16 43.16 0 0 1-0.81 14.58c1.82 3.34 6.1 5.74 9.82 6.51 3.93-4 8-8.23 9.53-13.62-1.5-3.55-1.94-9.31-3.44-12.86a2 2 0 0 0-3-1.41c-3.29 0.81-8.77 6-12.1 6.8z" fill="#454545"/>
<path class="cls-5" d="m1091.4 286.3v18.7a18.07 18.07 0 0 0 6.9 2.86 38.38 38.38 0 0 1 7.85-16.34c-3.64-3.46-9.71-5.25-14.75-5.22z" fill="#454545"/>
<path class="cls-5" d="m1154.8 324.07 9.56 10.21a13.51 13.51 0 0 0 5.23-2 28.7 28.7 0 0 1-4.06-12.93c-3.77 0.01-7.99 2.13-10.73 4.72z" fill="#454545"/>
<path class="cls-5" d="m1067 202.7a57.53 57.53 0 0 1 75.78 62.48 57.53 57.53 0 0 1 54.34 81.82 57.17 57.17 0 0 1 17.17 16 147.83 147.83 0 1 0-151.14-167.27 57.58 57.58 0 0 1 3.85 6.97z" fill="#454545"/>
<path class="cls-6" d="m1240.6 93.77q-1.36 4.62-2.54 9.28a3.15 3.15 0 0 0 3.43 3.95 3.34 3.34 0 0 0 2.83-2.71c0.74-2.68 1.47-5.36 2.2-8 0.6-2.18 0.26-3.2-1.52-4.56l-1.12-0.31-0.36 0.06a3.17 3.17 0 0 0-2.92 2.29z" fill="#333"/>
<path class="cls-6" d="m1318 246a3.27 3.27 0 0 0 2.45 3.87c2.72 0.76 5.46 1.45 8.16 2.26 1.9 0.57 3.44 0.27 4.61-1.42l0.34-1.24a3.4 3.4 0 0 0-2.48-3.3c-3-0.87-6.05-1.71-9.1-2.49a3.21 3.21 0 0 0-3.98 2.32z" fill="#333"/>
<path class="cls-6" d="m1249 96.68c-0.42 1.43-1 2.83-1.49 4.24s-1 2.82-1.43 4.26a3.06 3.06 0 0 0 0.93 3.22 2.9 2.9 0 0 0 3 0.65 3.48 3.48 0 0 0 2.23-2.39c0.64-1.86 1.3-3.72 1.94-5.58q0.4-1.15 0.79-2.31c0.74-2.23 0.49-3.15-1.27-4.67l-1.24-0.34a3.67 3.67 0 0 0-3.46 2.92z" fill="#333"/>
<path class="cls-6" d="m1206.3 267.54a30.73 30.73 0 0 0 14.34-6 53.45 53.45 0 0 0 12.56-13.16 77.45 77.45 0 0 0 10.4-21.94c0.08-0.28 0.15-0.56 0.24-0.86l5.27 1.44-7.07 25.79 4.66 1.28 7.08-25.89 5.69 1.56-5.21 19.05 4.68 1.28 5.25-19.18 7.53 2.06 1.28-4.67-7.58-2.07 5-18.17-4.64-1.27-5 18.23-5.71-1.56 6.92-25.28-4.64-1.27-6.94 25.37-5.26-1.44c0.06-0.32 0.12-0.63 0.16-0.95 0.53-3.44 1.21-6.87 1.56-10.34a63.6 63.6 0 0 0-1.46-21.9 39.85 39.85 0 0 0-7.14-15.31 24.05 24.05 0 0 0-12.13-8.55 23.8 23.8 0 0 0-15.9 0.92 41.16 41.16 0 0 0-15.6 11.29c-7.2 8-12 17.39-15.15 27.62a81.69 81.69 0 0 0-3.62 20 62.83 62.83 0 0 0 2.43 22 35.86 35.86 0 0 0 8.13 14.63c5.42 5.68 12.02 8.25 19.87 7.29zm-17.88-12.34a34.55 34.55 0 0 1-6-12.62 61.75 61.75 0 0 1-1.42-22.65 81.46 81.46 0 0 1 2.4-12.56 73.74 73.74 0 0 1 10.85-23.16 47.18 47.18 0 0 1 11.64-11.74 24.89 24.89 0 0 1 12.26-4.72c6.48-0.49 11.66 2.08 15.79 7a33.22 33.22 0 0 1 6.42 12.82 60.16 60.16 0 0 1 1.71 21.55 77.64 77.64 0 0 1-3.64 17.69c-3.13 9.47-7.68 18.14-14.56 25.46a35.85 35.85 0 0 1-12.52 9 19.2 19.2 0 0 1-13.42 0.87 19.41 19.41 0 0 1-9.51-6.94z" fill="#333"/>
<path class="cls-6" d="m1166.8 217.8a1.88 1.88 0 0 0 0.47 0.75c0.21 0.21 0.54 0.48 0.77 0.45s0.45-0.4 0.56-0.67c0.41-1 0.74-2.1 1.16-3.12a2.47 2.47 0 0 0 0-2.05 7.5 7.5 0 0 0-1.13-1.77c-0.8-0.91-1.69-1.73-2.55-2.6 1.16-0.53 2.35-1 3.51-1.63a13.23 13.23 0 0 0 2-1.26c0.91-0.69 1-1.06 0.58-2.1a11.82 11.82 0 0 0-1-1.94c-0.72-1.13-1.51-2.22-2.32-3.4l0.35-0.07c1.42-0.4 2.86-0.71 4.24-1.23a2.8 2.8 0 0 0 1.89-2.53c0.07-0.85 0.26-1.69 0.42-2.53 0.09-0.48 0.52-1.12 0-1.39-0.35-0.18-1 0.15-1.47 0.28a0.83 0.83 0 0 0-0.31 0.23 19.56 19.56 0 0 1-4.7 3.11 60.74 60.74 0 0 1-13.1 4.64 3.51 3.51 0 0 0-0.78 0.28 1.14 1.14 0 0 0-0.58 1.75 8.79 8.79 0 0 0 1.09 1.42c1.82 2.07 3.74 4.06 5.47 6.21a27.72 27.72 0 0 1 5.43 9.17zm-3.22-14.52c-0.24-0.16-0.35-0.53-0.51-0.81 0.29-0.15 0.57-0.43 0.86-0.42 1.1 0 2.2 0.14 3.33 0.23 1 0.5 2 1 3 1.51 0.24 0.13 0.34 0.5 0.51 0.75-0.28 0.16-0.56 0.44-0.85 0.46a10.15 10.15 0 0 1-6.34-1.72z" fill="#333"/>
<path class="cls-6" d="m1252 117.86c-3-1.13-6.08-2.31-9.17-3.3a109.46 109.46 0 0 0-14.73-3.49c-1.73-0.3-3.46-0.58-5.2-0.77a2.21 2.21 0 0 0-2.34 2 2.28 2.28 0 0 0 2 2.5 73.54 73.54 0 0 1 10.24 1.72 81.45 81.45 0 0 1 10.25 2.85c2.44 1 4.94 1.82 7.6 2.79a2.27 2.27 0 0 0 1.37-4.3z" fill="#333"/>
<path class="cls-6" d="m1140 160.25 2.95 9.43a4.22 4.22 0 0 0 2.7 2.76 11.33 11.33 0 0 0 2.13-0.21c3.35-1 6.68-2 10-3a1.88 1.88 0 0 0 1.4-1.73 1.92 1.92 0 0 0-1.13-2 4.53 4.53 0 0 0-1.61-0.35 15.46 15.46 0 0 1-8.41-2.37 11.77 11.77 0 0 1-3.83-4.24 2.47 2.47 0 0 0-3.07-1.3 2.34 2.34 0 0 0-1.13 3.01z" fill="#333"/>
<path class="cls-6" d="m1223.6 315.9a2.2 2.2 0 0 0-2 1.46 2.28 2.28 0 0 0 2.33 3.07c0.51 0 1-0.11 1.53-0.19a111.62 111.62 0 0 0 21.09-5.36c2-0.7 3.93-1.45 5.89-2.21a2.31 2.31 0 1 0-1.82-4.17c-0.4 0.19-0.81 0.39-1.23 0.56a107.57 107.57 0 0 1-21.4 6.16c-1.43 0.27-2.91 0.47-4.39 0.68z" fill="#333"/>
<path class="cls-6" d="m1201.6 278.07a2.3 2.3 0 0 0 0.46 3.16c2.35 2.28 4.69 4.56 7.07 6.81a10 10 0 0 0 1.42 1 3.9 3.9 0 0 0 4-0.84c2.52-2.53 5-5.09 7.51-7.64a1.87 1.87 0 0 0 0.4-2.08c-0.47-1.31-2-1.71-3.47-0.95-4.71 2.5-9.42 3.1-14.18 0.09a2.4 2.4 0 0 0-3.21 0.45z" fill="#333"/>
<path class="cls-6" d="m1141.9 192.57a2.45 2.45 0 0 0 3 1.27 2.2 2.2 0 0 0 1.26-2.71q-1.54-5-3.14-10a3.9 3.9 0 0 0-2.92-2.5 7.55 7.55 0 0 0-1.74 0.16c-3.37 1-6.72 2-10.08 3a1.91 1.91 0 0 0-1.42 1.79 1.81 1.81 0 0 0 1 1.92 4.17 4.17 0 0 0 1.71 0.42 15.64 15.64 0 0 1 8.09 2.15 11.77 11.77 0 0 1 4.24 4.5z" fill="#333"/>
<path class="cls-6" d="m1293.7 183.82a2.41 2.41 0 0 0 2.38-1.35 2.2 2.2 0 0 0-1.63-3.1c-3.22-0.79-6.45-1.56-9.68-2.34a3.86 3.86 0 0 0-4.9 2.94c-0.42 1.59-0.87 3.18-1.3 4.77l0.24 0.07c-0.47 1.71-0.95 3.42-1.4 5.14a1.92 1.92 0 0 0 0.77 2.15 1.85 1.85 0 0 0 2.28 0.09 4.29 4.29 0 0 0 1.18-1.23c2.82-4.42 6.52-7.3 12.06-7.14z" fill="#333"/>
<path class="cls-6" d="m1227.7 302.91a2.55 2.55 0 0 0-0.14-2.68 15.82 15.82 0 0 1-2-6.76 12 12 0 0 1 2-7.3 2.41 2.41 0 0 0-0.41-3.25 2.27 2.27 0 0 0-3.15 0.46c-2.27 2.35-4.55 4.69-6.8 7.07a10.18 10.18 0 0 0-1 1.41 3.9 3.9 0 0 0 0.85 4q3.76 3.76 7.59 7.46a2 2 0 0 0 3.06-0.41z" fill="#333"/>
<path class="cls-6" d="m1182 130.88a3.06 3.06 0 0 0-0.27-1.18 2.06 2.06 0 0 0-2.08-1.4 2.18 2.18 0 0 0-2 1.66c-0.83 3.37-1.67 6.73-2.43 10.11a3.75 3.75 0 0 0 2.86 4.6l4.77 1.3 0.07-0.25 5.33 1.45a2 2 0 0 0 2.15-3.06 5.14 5.14 0 0 0-1.39-1.28c-4.4-2.83-7.2-6.49-7.01-11.95z" fill="#333"/>
<path class="cls-6" d="m1281.4 268.32c-0.95-3.44-1.91-6.88-2.91-10.31a3.82 3.82 0 0 0-2.87-2.51 6.59 6.59 0 0 0-1.59 0.09c-3.46 0.9-6.9 1.86-10.34 2.8a1.83 1.83 0 0 0-1.3 1.3 2.24 2.24 0 0 0 2.21 2.84c0.87 0.07 1.76 0.08 2.62 0.23 4.28 0.71 7.72 2.68 9.79 6.67a3.75 3.75 0 0 0 1 1.14 2 2 0 0 0 2.4 0.14 2.19 2.19 0 0 0 0.99-2.39z" fill="#333"/>
<path class="cls-6" d="m1196 141.21c-0.21 0.34-0.4 0.7-0.59 1.05a2.32 2.32 0 0 0 1 2.77 2.24 2.24 0 0 0 2.85-0.51q3.5-3.61 7-7.24a3.76 3.76 0 0 0 0-5.41q-3.73-3.75-7.54-7.42a2 2 0 0 0-3.27 0.75 2.73 2.73 0 0 0 0.22 2.29 24.05 24.05 0 0 1 1.08 2.32c1.4 3.89 1.44 7.72-0.75 11.4z" fill="#333"/>
<path class="cls-6" d="m1125.8 174.17a2.48 2.48 0 0 0-1.4 2.48 2.45 2.45 0 0 0 1.68 1.92 6.89 6.89 0 0 0 1.25-0.15c3.29-1 6.58-2 9.85-3.09a3.71 3.71 0 0 0 2.48-4.59c-1-3.43-2.05-6.84-3.1-10.25a2 2 0 0 0-3.67-0.35 4.36 4.36 0 0 0-0.43 1.77 15.51 15.51 0 0 1-2.38 8.4 12.19 12.19 0 0 1-4.28 3.86z" fill="#333"/>
<path class="cls-6" d="m1136.3 210.14c2.5-2.52 5-5.06 7.45-7.61a1.86 1.86 0 0 0 0.37-2.14 1.81 1.81 0 0 0-1.84-1.24 4.66 4.66 0 0 0-1.76 0.48c-4.69 2.39-9.34 2.94-14 0a2.39 2.39 0 0 0-3.19 0.47 2.19 2.19 0 0 0-0.42 1.06 57.38 57.38 0 0 1 12.34 9.76 3.81 3.81 0 0 0 1.05-0.78z" fill="#333"/>
<path class="cls-6" d="m1263 176.33a17.42 17.42 0 0 1 4.23 3.6 12 12 0 0 1 2.88 8.42 2.48 2.48 0 0 0 1.89 2.65 2.35 2.35 0 0 0 2.59-2c0.73-3.26 1.57-6.49 2.3-9.75a3.73 3.73 0 0 0-2.91-4.66c-1.59-0.42-3.18-0.87-4.77-1.3l-0.07 0.24-5.2-1.42a1.86 1.86 0 0 0-2.06 0.68 1.82 1.82 0 0 0-0.22 2.21 4.31 4.31 0 0 0 1.34 1.33z" fill="#333"/>
<path class="cls-6" d="m1234.1 274.73a2.34 2.34 0 0 0 2.07 2.44q4.69 1.1 9.37 2.23a3.85 3.85 0 0 0 5-3c0.42-1.57 0.86-3.14 1.29-4.71l-0.24-0.07c0.47-1.71 1-3.42 1.4-5.14a2 2 0 0 0-1.09-2.35 2.42 2.42 0 0 0-3.09 1.21 19.4 19.4 0 0 1-1.44 2.12 12.64 12.64 0 0 1-9.25 5.14h-1.54a2.43 2.43 0 0 0-2.48 2.13z" fill="#333"/>
<path class="cls-6" d="m1164.5 161.77a2.27 2.27 0 0 0 2.52-1.94c0.42-1.57 0.86-3.14 1.29-4.71h-0.15c0.41-1.73 0.84-3.45 1.21-5.19a3.66 3.66 0 0 0-2.31-4.29 21.34 21.34 0 0 0-2.48-0.66l-8-2a2 2 0 0 0-2.42 1 2.41 2.41 0 0 0 1.17 3.2c4.54 2.79 7.44 6.56 7.24 12.18a2.4 2.4 0 0 0 1.93 2.41z" fill="#333"/>
<path class="cls-6" d="m1149 190.29a1.88 1.88 0 0 0 1.74 1.39 1.84 1.84 0 0 0 2-1 4.21 4.21 0 0 0 0.4-1.71 16.43 16.43 0 0 1 1.66-7.18 11.78 11.78 0 0 1 5-5.09 2.44 2.44 0 0 0 1.25-3.08 2.3 2.3 0 0 0-3-1.11l-9.42 3a4 4 0 0 0-2.74 3 6.74 6.74 0 0 0 0.12 1.69c0.92 3.31 1.99 6.7 2.99 10.09z" fill="#333"/>
<path class="cls-6" d="m1280.8 155.79a2.42 2.42 0 0 0-3.09 1.2 20.42 20.42 0 0 1-1.44 2.12 12.65 12.65 0 0 1-9.31 5.15h-1.41a2.47 2.47 0 0 0-2.54 2.09 2.34 2.34 0 0 0 2.07 2.44q4.69 1.1 9.37 2.24a3.87 3.87 0 0 0 5-3c0.41-1.55 0.84-3.1 1.27-4.64l-0.24-0.07c0.47-1.73 1-3.46 1.42-5.2a2 2 0 0 0-1.1-2.33z" fill="#333"/>
<path class="cls-6" d="m1181 155.51a11.81 11.81 0 0 1 5-0.87 2.56 2.56 0 0 0 2.49-1.28 1.88 1.88 0 0 0-0.22-2.28 3.49 3.49 0 0 0-1.6-0.94c-3.13-0.8-6.29-1.51-9.43-2.26a3.85 3.85 0 0 0-4.92 3c-0.41 1.57-0.86 3.14-1.28 4.71l0.24 0.07c-0.47 1.71-0.95 3.42-1.4 5.14a2 2 0 0 0 3.12 2.2 4.36 4.36 0 0 0 1.07-1.16 15.07 15.07 0 0 1 6.93-6.33z" fill="#333"/>
<path class="cls-6" d="m1206.6 296.55 0.2-0.21a13.57 13.57 0 0 0 1.19-1.71 4.21 4.21 0 0 0-1.2-3.84q-3.1-3.06-6.22-6.1a57.12 57.12 0 0 1 6.03 11.86z" fill="#333"/>
<path class="cls-6" d="m1264.7 292.19a2.35 2.35 0 0 0 2.35-1.4 2.18 2.18 0 0 0-1.58-3q-4.86-1.2-9.74-2.35a3.86 3.86 0 0 0-4.93 3c-0.42 1.57-0.86 3.14-1.28 4.71l0.25 0.07c-0.47 1.73-1 3.46-1.42 5.2a1.88 1.88 0 0 0 0.72 2.06 1.83 1.83 0 0 0 2.21 0.19 4 4 0 0 0 1.26-1.23c2.83-4.53 6.56-7.44 12.16-7.25z" fill="#333"/>
<path class="cls-6" d="m1251.6 129a2.44 2.44 0 0 0-3-1.22 2.28 2.28 0 0 0-1.13 3c1 3.17 2 6.33 3 9.49a3.72 3.72 0 0 0 4.71 2.57c3.39-1 6.76-2 10.13-3.07a1.86 1.86 0 0 0 1.31-1.37 1.94 1.94 0 0 0-0.51-2 2.92 2.92 0 0 0-2.18-0.76 14.65 14.65 0 0 1-8.98-2.64 12.08 12.08 0 0 1-3.35-4z" fill="#333"/>
<path class="cls-6" d="m1298.9 197.63a2.62 2.62 0 0 0-2.46 0.15c-0.75 0.37-1.49 0.77-2.26 1.06a12.69 12.69 0 0 1-10.46-0.14c-0.71-0.34-1.38-0.76-1.86-1-1.41-0.38-2.42 0-2.94 0.84a2.28 2.28 0 0 0 0.48 2.86q3.64 3.53 7.29 7a3.74 3.74 0 0 0 5.36 0q3.74-3.75 7.41-7.56a2 2 0 0 0-0.56-3.21z" fill="#333"/>
<path class="cls-6" d="m1273.6 299.24a92.08 92.08 0 0 0 12.4-11.24c2.87-3.16 5.6-6.46 8.35-9.73a2.27 2.27 0 0 0-1.25-3.74 2.18 2.18 0 0 0-2.29 0.9c-0.26 0.33-0.48 0.71-0.74 1-4.64 6.31-10.29 11.66-16.15 16.79-1 0.89-2.14 1.64-3.19 2.49a2.27 2.27 0 0 0 0.5 3.93 2.3 2.3 0 0 0 2.37-0.4z" fill="#333"/>
<path class="cls-6" d="m1144.4 223.56 1.83 1.8a1.86 1.86 0 0 0 2.08 0.4 2.31 2.31 0 0 0 1-3.36 23.4 23.4 0 0 1-1.1-2.32 12.83 12.83 0 0 1-0.16-9.87c0.32-0.76 0.78-1.47 1.17-2.2a2.43 2.43 0 0 0-0.53-3.13 2.28 2.28 0 0 0-3.11 0.45c-2.29 2.37-4.58 4.73-6.84 7.12a9.72 9.72 0 0 0-1 1.35 57.51 57.51 0 0 1 6.66 9.76z" fill="#333"/>
<path class="cls-6" d="m1152.1 259-1.44-0.35v0.36c0.45-0.01 0.95-0.01 1.44-0.01z" fill="#333"/>
<path class="cls-6" d="m1155.3 256.56 0.07-0.25 5.2 1.42a1.89 1.89 0 0 0 2.06-0.7 1.78 1.78 0 0 0 0.24-2.15 4.46 4.46 0 0 0-1.35-1.39c-4.42-2.83-7.29-6.55-7.09-12.09a2.43 2.43 0 0 0-2.06-2.55 2.1 2.1 0 0 0-2.13 1.21 57.8 57.8 0 0 1 0.8 15.33z" fill="#333"/>
<path class="cls-6" d="m1258.4 265.87a2.27 2.27 0 0 0-2.42 2c-0.77 3.18-1.55 6.36-2.3 9.55a3.84 3.84 0 0 0 3 4.88c1.55 0.41 3.1 0.84 4.65 1.27l0.07-0.24 5.2 1.42a1.94 1.94 0 0 0 2.16-0.75 1.91 1.91 0 0 0 0.08-2.34 4.37 4.37 0 0 0-1.19-1.13c-4.46-2.82-7.34-6.55-7.14-12.12a2.41 2.41 0 0 0-2.11-2.54z" fill="#333"/>
<path class="cls-6" d="m1201.1 119.34c-0.78 1-0.58 2.24 0.52 3.3 2.3 2.23 4.59 4.48 6.92 6.68a10.74 10.74 0 0 0 1.45 1 3.9 3.9 0 0 0 4-0.84c2.53-2.52 5-5.08 7.52-7.63a1.85 1.85 0 0 0 0.37-2.14 1.83 1.83 0 0 0-1.84-1.25 4.06 4.06 0 0 0-1.64 0.42 16.62 16.62 0 0 1-6.78 2 11.75 11.75 0 0 1-7.14-1.88 2.5 2.5 0 0 0-3.38 0.34z" fill="#333"/>
<path class="cls-6" d="m1268.6 144.2a2.32 2.32 0 0 0-3.08-1.13c-3.12 1-6.24 2-9.36 2.93a4.21 4.21 0 0 0-2.81 2.71 10.26 10.26 0 0 0 0.17 2.07c1 3.39 2 6.76 3.05 10.13a1.87 1.87 0 0 0 1.63 1.36 1.79 1.79 0 0 0 1.94-0.84 4 4 0 0 0 0.53-1.8 15 15 0 0 1 3.11-9.5 12 12 0 0 1 3.51-2.86 2.49 2.49 0 0 0 1.31-3.07z" fill="#333"/>
<path class="cls-6" d="m1219 308.7a3.9 3.9 0 0 0 0.62 0.29 2.29 2.29 0 0 0 2.83-0.88 2.18 2.18 0 0 0-0.35-2.71c-2.51-2.45-5-4.9-7.58-7.3a3.67 3.67 0 0 0-5.08 0c-0.57 0.56-1.13 1.14-1.7 1.71a57.41 57.41 0 0 1 1.69 7.29 11.87 11.87 0 0 1 9.57 1.6z" fill="#333"/>
<path class="cls-6" d="m1273.4 204.81a2.94 2.94 0 0 0 0.39 2.09 14.34 14.34 0 0 1 1.67 10.46 11 11 0 0 1-0.43 1.27c-0.37 0.77-0.77 1.52-1.19 2.26a2.51 2.51 0 0 0 0.39 3.27 2.29 2.29 0 0 0 3.2-0.46q3.45-3.58 6.89-7.16a3.74 3.74 0 0 0 0-5.41q-3.72-3.71-7.5-7.37a2 2 0 0 0-3.42 1.05z" fill="#333"/>
<path class="cls-6" d="m1280.3 235.41a2.45 2.45 0 0 0-3-1.3 2.2 2.2 0 0 0-1.34 2.61q1.4 5.14 2.89 10.25a3.83 3.83 0 0 0 2.87 2.52 7.54 7.54 0 0 0 1.7-0.11c3.39-0.89 6.77-1.83 10.15-2.76a2 2 0 0 0 0.4-3.76 4.76 4.76 0 0 0-1.66-0.4 14.91 14.91 0 0 1-9.08-3.22 12.39 12.39 0 0 1-2.93-3.83z" fill="#333"/>
<path class="cls-6" d="m1289.5 160.07a2.29 2.29 0 0 0-3.4-2.26 2.32 2.32 0 0 0-1.08 1.6c-0.76 3.21-1.55 6.41-2.31 9.62a3.86 3.86 0 0 0 3 4.92c1.57 0.41 3.14 0.85 4.71 1.28l0.07-0.24c1.71 0.47 3.42 0.95 5.14 1.4a1.92 1.92 0 0 0 2.15-0.78 1.83 1.83 0 0 0 0.1-2.22 4.4 4.4 0 0 0-1.26-1.23c-4.43-2.84-7.3-6.54-7.12-12.09z" fill="#333"/>
<path class="cls-6" d="m1208.9 139.66c-2.45 2.45-4.87 4.93-7.29 7.4a2 2 0 0 0-0.44 2.3 2 2 0 0 0 2 1.2 5.26 5.26 0 0 0 1.46-0.41c1-0.42 2-1 3.06-1.31a12.3 12.3 0 0 1 9.32 0.33c0.81 0.37 1.58 0.84 2.13 1.15 1.45 0.39 2.46 0 3-0.85a2.28 2.28 0 0 0-0.51-2.86q-3.61-3.51-7.24-7a3.76 3.76 0 0 0-5.49 0.05z" fill="#333"/>
<path class="cls-6" d="m1244.1 131.1a1.88 1.88 0 0 0-1.68-1.38 1.78 1.78 0 0 0-1.92 0.87 4.77 4.77 0 0 0-0.51 1.74c-0.19 1.52-0.3 3.05-0.44 4.58a16.86 16.86 0 0 1-2.52 4.78 12.22 12.22 0 0 1-3.69 3 2.47 2.47 0 0 0-1.26 3.08 2.3 2.3 0 0 0 3 1.11c3.14-1 6.29-2 9.42-3a3.76 3.76 0 0 0 2.59-4.8c-0.94-3.27-1.98-6.62-2.99-9.98z" fill="#333"/>
<path class="cls-6" d="m1245.8 149.34c-3.34 1-6.67 2-10 3a1.88 1.88 0 0 0-1.41 1.66 1.81 1.81 0 0 0 1 2 4.28 4.28 0 0 0 1.76 0.46c5.28 0.14 9.65 1.89 12.36 6.75a4.75 4.75 0 0 0 1.25 1.17 2.23 2.23 0 0 0 2.93-2.82c-1-3.25-2-6.5-3.05-9.74a3.75 3.75 0 0 0-4.84-2.48z" fill="#333"/>
<path class="cls-6" d="m1305 206.32a2.43 2.43 0 0 0-0.5-3.14 2.27 2.27 0 0 0-3.11 0.42q-3.47 3.6-6.94 7.2a3.78 3.78 0 0 0 0 5.46c2.47 2.46 5 4.89 7.46 7.32a6.26 6.26 0 0 0 0.82 0.58 2.13 2.13 0 0 0 2.51-1.34 2.82 2.82 0 0 0-0.3-2.34c-2-3.83-2.83-7.78-1.15-12a23.38 23.38 0 0 1 1.21-2.16z" fill="#333"/>
<path class="cls-6" d="m1226.2 145a2.35 2.35 0 0 0 0.81-3.24c-0.25-0.5-0.54-1-0.76-1.49-1.87-4.36-2.08-8.65 0.61-12.8a3.19 3.19 0 0 0 0.24-0.48c0.38-1.37 0-2.36-0.89-2.9a2.23 2.23 0 0 0-2.89 0.56c-2.33 2.41-4.68 4.81-7 7.24a3.76 3.76 0 0 0 0 5.37c2.49 2.5 5 5 7.53 7.43a1.93 1.93 0 0 0 2.35 0.31z" fill="#333"/>
<path class="cls-6" d="m1296.9 229.23c1.39 0.37 2.4 0 2.9-0.81a2.28 2.28 0 0 0-0.47-2.92q-3.62-3.51-7.25-7a3.73 3.73 0 0 0-5.41 0c-2.5 2.49-5 5-7.41 7.57a2 2 0 0 0 0.64 3.21 2.62 2.62 0 0 0 2.35-0.16c0.75-0.37 1.48-0.77 2.26-1.07 3.54-1.35 7.08-1.58 10.58 0.16 0.7 0.36 1.36 0.79 1.81 1.02z" fill="#333"/>
<path class="cls-6" d="m1158.1 135.08a2.42 2.42 0 0 0-2.51 2 2.28 2.28 0 0 0 2 2.45c3.18 0.77 6.36 1.55 9.55 2.3a3.84 3.84 0 0 0 4.88-3c0.42-1.59 0.87-3.18 1.3-4.77l-0.24-0.07c0.47-1.71 0.95-3.42 1.4-5.14a1.94 1.94 0 0 0-0.82-2.18c-1.09-0.76-2.52-0.28-3.36 1.07-2.81 4.63-6.58 7.53-12.2 7.34z" fill="#333"/>
<path class="cls-6" d="m1182.1 112.27c-4.26 1.35-8.45 2.91-12.67 4.38a2.36 2.36 0 0 0-1.58 1.64 2.19 2.19 0 0 0 0.66 2.22 2.15 2.15 0 0 0 2.26 0.49c0.44-0.15 0.85-0.39 1.29-0.57a103.19 103.19 0 0 1 26.3-7.06 2.28 2.28 0 1 0-0.56-4.5 87.55 87.55 0 0 0-15.7 3.4z" fill="#333"/>
<path class="cls-6" d="m1232.9 281.2a1.83 1.83 0 0 0-0.17 2.22 4.08 4.08 0 0 0 1.24 1.25c4.49 2.83 7.37 6.57 7.17 12.17a2.43 2.43 0 0 0 2 2.51 2.28 2.28 0 0 0 2.51-2c0.79-3.27 1.59-6.53 2.33-9.81a3.73 3.73 0 0 0-2.84-4.6l-4.83-1.32-0.07 0.25-5.2-1.42a1.88 1.88 0 0 0-2.14 0.75z" fill="#333"/>
<path class="cls-6" d="m1295.6 254.09a2.45 2.45 0 0 0 1.22-3 2.28 2.28 0 0 0-2.95-1.22l-9.56 2.7a4 4 0 0 0-2.84 3 6.67 6.67 0 0 0 0.09 1.63c0.9 3.45 1.85 6.89 2.79 10.34a1.79 1.79 0 0 0 1.19 1.25 2.25 2.25 0 0 0 3-2.23 26.7 26.7 0 0 1 0.29-3 12.65 12.65 0 0 1 4.49-8 21.57 21.57 0 0 1 2.28-1.47z" fill="#333"/>
<path class="cls-6" d="m1272.7 237.33a1.87 1.87 0 0 0-1.64-1.42 1.81 1.81 0 0 0-2 0.88 4.1 4.1 0 0 0-0.52 1.74 15.94 15.94 0 0 1-2.19 7.75 11.63 11.63 0 0 1-4.71 4.32 2.51 2.51 0 0 0-1.46 3.06c0.46 1.18 1.62 1.63 3.1 1.22l9.44-2.66a4.15 4.15 0 0 0 2.84-2.66 9.44 9.44 0 0 0-0.1-2c-0.87-3.39-1.82-6.81-2.76-10.23z" fill="#333"/>
<path class="cls-6" d="m1294.9 154.39a2.17 2.17 0 0 0 0.09-2.63c-0.42-0.64-0.92-1.24-1.4-1.84a106.79 106.79 0 0 0-12.95-13.5c-2.25-2-4.57-3.86-6.9-5.74a2.23 2.23 0 0 0-3.28 0.41 2.29 2.29 0 0 0 0.63 3.27c0.38 0.28 0.78 0.53 1.15 0.82a102.59 102.59 0 0 1 18.95 19 8.36 8.36 0 0 0 1.21 1.08 2.59 2.59 0 0 0 2.5-0.87z" fill="#333"/>
<path class="cls-6" d="m1314.6 201.61a116.66 116.66 0 0 0-7.8-28.45 2.28 2.28 0 1 0-4.16 1.82 88.64 88.64 0 0 1 5.56 16.79c0.8 3.45 1.28 7 1.87 10.47a2.29 2.29 0 1 0 4.52-0.63z" fill="#333"/>
<path class="cls-6" d="m1112.3 196.29q0.42-2.06 0.89-4.11a117.41 117.41 0 0 1 5-15.09 2.3 2.3 0 0 0-1.17-3.11 2.25 2.25 0 0 0-3 1.35 120 120 0 0 0-4.32 12.3q-0.78 3.7-1.56 7.41 2.1 0.55 4.16 1.25z" fill="#333"/>
<path class="cls-6" d="m1144.1 131.17a114.69 114.69 0 0 0-15.71 15.61c-1.16 1.39-2.32 2.79-3.42 4.24a2.24 2.24 0 0 0 0.5 3.18 2.27 2.27 0 0 0 3.14-0.49c0.3-0.39 0.56-0.81 0.86-1.2a100.67 100.67 0 0 1 19.19-19.13 6.72 6.72 0 0 0 1-1.2 2.55 2.55 0 0 0-1-2.52 2.21 2.21 0 0 0-2.59 0c-0.67 0.47-1.32 0.99-1.97 1.51z" fill="#333"/>
<path class="cls-6" d="m1314.1 227.07a2.28 2.28 0 0 0-2-2.69 2.37 2.37 0 0 0-2.58 2.2c-0.41 2.88-0.78 5.77-1.34 8.62a92 92 0 0 1-5.87 18.91 2.28 2.28 0 1 0 4.23 1.7c0.62-1.55 1.24-3.1 1.8-4.67a120.88 120.88 0 0 0 5.76-24.07z" fill="#333"/>
<path class="cls-6" d="m1183.8 177.14c1-1.64 1.85-3.32 2.94-4.87a21.6 21.6 0 0 1 5.72-5.9 3.86 3.86 0 0 0 1-1.13 1.46 1.46 0 0 0 0-1.8c-0.44-0.57-1-0.49-1.64-0.32l-7.55 2a4.41 4.41 0 0 0-3.09 3 7.06 7.06 0 0 0-0.12 0.78q-0.19 4.22-0.37 8.45a1.14 1.14 0 0 0 1.61 1.2 2.9 2.9 0 0 0 1.5-1.41z" fill="#333"/>
<path class="cls-6" d="m1236.8 254a3.76 3.76 0 0 0-1.35 1.46 32 32 0 0 1-5.23 7.64c-1 1.08-2.23 2-3.33 3-0.52 0.48-1 1-1.23 1.32-0.41 1.53 0.41 2.37 1.59 2.05q4-1 7.92-2.13a4.27 4.27 0 0 0 3-3.77c0.15-2.79 0.26-5.59 0.38-8.38 0.07-1.09-0.82-1.72-1.75-1.19z" fill="#333"/>
<path class="cls-6" d="m1250.5 175.18c0.13 0.63 0.22 1.28 0.4 1.9 0.61 2.2 1.38 4.36 1.85 6.59a19.08 19.08 0 0 1 0.34 6.94 4 4 0 0 0 0.25 1.74 1.36 1.36 0 0 0 1.32 1 1.29 1.29 0 0 0 1.21-0.89c1.21-2.4 2.44-4.8 3.63-7.21a4.26 4.26 0 0 0-0.86-5q-2.92-2.88-5.87-5.73c-0.83-0.82-1.81-0.52-2.27 0.66z" fill="#333"/>
<path class="cls-6" d="m1161.6 240.78a4.44 4.44 0 0 0 0.77 4.19c1.89 2.15 3.85 4.24 5.79 6.35a1.1 1.1 0 0 0 1.87-0.22 2.55 2.55 0 0 0 0.07-2.29 30.08 30.08 0 0 1-1.54-6.8 21.68 21.68 0 0 1 0.09-6.95 3.76 3.76 0 0 0-0.17-1.69 1.34 1.34 0 0 0-1.19-1 1.32 1.32 0 0 0-1.32 0.83c-0.93 1.63-1.88 3.26-2.81 4.88-0.57 0.92-1.12 1.92-1.56 2.7z" fill="#333"/>
<path class="cls-6" d="m1169.6 189a4.35 4.35 0 0 0 3.48-3.19c0.43-2.85 0.87-5.72 1.28-8.6a1.12 1.12 0 0 0-1.69-1.27 4.1 4.1 0 0 0-1.52 1.39 33 33 0 0 1-4.45 5.54 21.14 21.14 0 0 1-5.23 4.09 4 4 0 0 0-1.25 1.24 1.33 1.33 0 0 0 0 1.57 1.28 1.28 0 0 0 1.42 0.49c2.64-0.38 5.31-0.77 7.96-1.26z" fill="#333"/>
<path class="cls-6" d="m1152.3 215.12a2.65 2.65 0 0 0 0.47 2.25 30.56 30.56 0 0 1 3.26 7 20.2 20.2 0 0 1 1.19 5.88 4 4 0 0 0 0.51 1.69 1.37 1.37 0 0 0 1.49 0.78c0.64-0.1 0.91-0.58 1.07-1.15 0.37-1.32 0.72-2.64 1.09-4h0.16c0.17-0.62 0.33-1.24 0.51-1.86s0.39-1.22 0.58-1.84a4.26 4.26 0 0 0-1.41-4.57c-2.36-1.7-4.76-3.33-7.16-5a1.1 1.1 0 0 0-1.76 0.82z" fill="#333"/>
<path class="cls-6" d="m1088.9 183.75c3 0.85 5.93 1.65 8.91 2.44a3.26 3.26 0 0 0 3-0.57 2.92 2.92 0 0 0 1.15-2.95 3.17 3.17 0 0 0-2.37-2.61c-1.49-0.45-3-0.83-4.51-1.24-1.46-0.4-2.93-0.81-4.39-1.2a3.25 3.25 0 0 0-4.11 2.11 3.22 3.22 0 0 0 2.32 4.02z" fill="#333"/>
<path class="cls-6" d="m1325.3 220.22a3.17 3.17 0 0 0-0.6 6.3q4.89 0.42 9.78 0.68a3.17 3.17 0 0 0 3.3-2.8 3.29 3.29 0 0 0-2.65-3.5l-1.45-0.12c-2.79-0.2-5.58-0.42-8.38-0.56z" fill="#333"/>
<path class="cls-6" d="m1137.5 124.37a3.23 3.23 0 0 0 3.59 1 2.93 2.93 0 0 0 2-2.85 4 4 0 0 0-0.61-2c-1.8-2.57-3.69-5.09-5.57-7.61a3.14 3.14 0 0 0-3.28-1.27 2.93 2.93 0 0 0-2.31 2 3.47 3.47 0 0 0 0.57 3.13c1.36 1.87 2.74 3.72 4.11 5.58 0.5 0.65 0.96 1.37 1.5 2.02z" fill="#333"/>
<path class="cls-6" d="m1162.8 108.89a4.64 4.64 0 0 0 0.41 0.8 3.13 3.13 0 0 0 5.25 0.14 3.26 3.26 0 0 0 0.3-3.18q-1.69-4.27-3.41-8.52a3.37 3.37 0 0 0-0.39-0.73 3.11 3.11 0 0 0-3.23-1.38 3 3 0 0 0-2.41 2.17 3.7 3.7 0 0 0 0.16 2.43c1.12 2.75 2.21 5.51 3.32 8.27z" fill="#333"/>
<path class="cls-6" d="m1303.2 131.32c-2.35 2-4.7 3.92-7 5.92a10.59 10.59 0 0 0-1.28 1.63l0.11 0.1a6.63 6.63 0 0 0-0.1 0.82 2.92 2.92 0 0 0 1.73 2.84 3.13 3.13 0 0 0 3.54-0.47q3.59-3 7.11-6a3.18 3.18 0 1 0-4.1-4.85z" fill="#333"/>
<path class="cls-6" d="m1319.9 237.87a3.13 3.13 0 0 0 1.37 3.78 10.24 10.24 0 0 0 1.41 0.59v-0.05l2.26 0.46c2.24 0.45 4.48 0.95 6.73 1.33a3.16 3.16 0 0 0 1.19-6.2c-3.15-0.69-6.32-1.33-9.49-1.93a3.21 3.21 0 0 0-3.47 2.02z" fill="#333"/>
<path class="cls-6" d="m1324.9 204.83a3.06 3.06 0 0 0-2.77 2.17 3.18 3.18 0 0 0 3.32 4.15c1.43-0.05 2.86-0.16 4.29-0.25 1.71-0.11 3.42-0.18 5.12-0.33a3.18 3.18 0 0 0 0.59-6.26 5.94 5.94 0 0 0-0.89-0.08c-3.22 0.19-6.44 0.35-9.66 0.6z" fill="#333"/>
<path class="cls-6" d="m1123.8 140.38a2.92 2.92 0 0 0 2.75-2.07 3.15 3.15 0 0 0-0.93-3.51q-3.41-3.16-6.87-6.27a9.62 9.62 0 0 0-1.33-0.86 3.32 3.32 0 0 0-3.61 1.45 3.21 3.21 0 0 0 0.61 4c2.29 2.15 4.63 4.25 7 6.36a3.14 3.14 0 0 0 2.38 0.9z" fill="#333"/>
<path class="cls-6" d="m1103.5 176.94a3.24 3.24 0 0 0-2.09-4c-2.82-1-5.65-2-8.47-3-0.25-0.07-0.49-0.15-0.74-0.2a3.16 3.16 0 0 0-1.88 6c3 1.09 6 2.16 9.09 3.17a3.19 3.19 0 0 0 4.09-1.97z" fill="#333"/>
<path class="cls-6" d="m1198.6 90.52c0 1 0.11 2 0.18 3.07 0.13 2.13 0.23 4.26 0.41 6.39a3.23 3.23 0 0 0 3 3 3.32 3.32 0 0 0 3.29-2.41c0-0.45 0.06-0.89 0-1.34-0.08-1.58-0.19-3.15-0.28-4.73s-0.15-2.86-0.26-4.28a3.18 3.18 0 1 0-6.35 0.28z" fill="#333"/>
<path class="cls-6" d="m1249.3 324a3.17 3.17 0 1 0-6 2c0.95 3 2 6.07 3 9.08a3.17 3.17 0 0 0 2.21 2.06 2.94 2.94 0 0 0 3-0.76 3.13 3.13 0 0 0 0.83-3.31q-1.51-4.58-3.04-9.07z" fill="#333"/>
<path class="cls-6" d="m1234.9 328.09a3 3 0 0 0-2-2.37 3.16 3.16 0 0 0-4.19 3.47c0.51 3.23 1.15 6.44 1.84 9.64a3.12 3.12 0 0 0 3.71 2.39 3.21 3.21 0 0 0 2.47-3.73q-0.86-4.72-1.83-9.4z" fill="#333"/>
<path class="cls-6" d="m1324.6 228a3.18 3.18 0 0 0-3.54 2.72 3.25 3.25 0 0 0 2.79 3.57q4.7 0.68 9.41 1.27a3.21 3.21 0 0 0 3.59-2.67 3.29 3.29 0 0 0-2.66-3.61l-1.19-0.17c-2.81-0.35-5.6-0.77-8.4-1.11z" fill="#333"/>
<path class="cls-6" d="m1294.1 290.37a3.18 3.18 0 0 0-0.52 5.26q3.35 3.13 6.77 6.19a10.43 10.43 0 0 0 1.38 0.9 3.34 3.34 0 0 0 3.63-1.43 3.18 3.18 0 0 0-0.52-4q-3.52-3.32-7.14-6.54a3 3 0 0 0-3.6-0.38z" fill="#333"/>
<path class="cls-6" d="m1223.1 94.89c-0.25 1.84-0.55 3.68-0.71 5.54a3.17 3.17 0 0 0 2.86 3.42 3.3 3.3 0 0 0 3.45-2.87q0.63-4.61 1.25-9.22a3.25 3.25 0 0 0-2.6-3.71c-1.61-0.31-3.18 0.79-3.7 2.79-0.16 1.16-0.36 2.61-0.55 4.05z" fill="#333"/>
<path class="cls-6" d="m1184.2 102.35a3 3 0 0 0 2.07 2.35 3.16 3.16 0 0 0 4.14-3.47c-0.52-3.23-1.15-6.44-1.84-9.64a3.13 3.13 0 0 0-3.7-2.41 3.18 3.18 0 0 0-2.49 3.65c0.6 3.17 1.17 6.36 1.82 9.52z" fill="#333"/>
<path class="cls-6" d="m1322.7 189.82a3.1744 3.1744 0 1 0 1.17 6.24q4.67-0.83 9.32-1.79a3.11 3.11 0 0 0 2.42-2.1 3.19 3.19 0 0 0-3.65-4.17c-3.1 0.58-6.18 1.19-9.26 1.82z" fill="#333"/>
<path class="cls-6" d="m1133.2 129.95a3 3 0 0 0 3.54-1.07 3.2 3.2 0 0 0-0.09-3.89q-3.05-3.72-6.2-7.36a8.07 8.07 0 0 0-1.53-1.1 3.47 3.47 0 0 0-3 0.77 3.18 3.18 0 0 0-0.3 4.41c2 2.47 4.07 4.9 6.16 7.31a3.66 3.66 0 0 0 1.42 0.93z" fill="#333"/>
<path class="cls-6" d="m1215.1 91.19c-0.22 2.81-0.43 5.63-0.59 8.45a3.17 3.17 0 0 0 6.31 0.53c0.17-1.74 0.27-3.5 0.39-5.24 0.1-1.43 0.22-2.86 0.29-4.29a3.24 3.24 0 0 0-2.39-3.38 3 3 0 0 0-3.6 1.75 7 7 0 0 0-0.41 2.18z" fill="#333"/>
<path class="cls-6" d="m1301.8 280.64a3.15 3.15 0 0 0 1.22 3.47c2.61 1.86 5.23 3.7 7.89 5.49a3.1614 3.1614 0 0 0 3.64-5.17c-2.63-1.9-5.29-3.77-8-5.56a3.13 3.13 0 0 0-4.75 1.77z" fill="#333"/>
<path class="cls-6" d="m1206.8 91.75v7.62a3.26 3.26 0 0 0 3.05 3.4 3.17 3.17 0 0 0 3.29-3c0.08-3.26 0.08-6.53 0-9.8a3.17 3.17 0 0 0-2.93-3.11c-1.48-0.14-2.85 0.87-3.38 2.78 0 0.45-0.03 1.28-0.03 2.11z" fill="#333"/>
<path class="cls-6" d="m1291.9 120q-3.23 3.47-6.39 7a8 8 0 0 0-0.77 1.24 3.34 3.34 0 0 0 1.12 3.44 3.19 3.19 0 0 0 3.56 0.2 3 3 0 0 0 0.71-0.54c2.18-2.37 4.39-4.72 6.52-7.15a3.16 3.16 0 0 0-1-5 3.26 3.26 0 0 0-3.75 0.81z" fill="#333"/>
<path class="cls-6" d="m1332.5 212.48h-7a3.29 3.29 0 0 0-3.33 2.79 3.24 3.24 0 0 0 2.6 3.51 4.23 4.23 0 0 0 0.59 0.06c3.14 0 6.28 0.06 9.42 0a3.21 3.21 0 0 0 3.29-3.22 3.26 3.26 0 0 0-3.33-3.13c-0.75-0.01-1.49 0-2.24-0.01z" fill="#333"/>
<path class="cls-6" d="m1106.2 169.87a3.26 3.26 0 0 0-1.83-4.09c-1-0.44-2-0.85-2.94-1.27-2-0.84-3.91-1.73-5.91-2.48a3.14 3.14 0 0 0-4 1.71 3.24 3.24 0 0 0 1.77 4.21c1.27 0.57 2.55 1.11 3.83 1.66l4.83 2.06a3.32 3.32 0 0 0 4.25-1.8z" fill="#333"/>
<path class="cls-6" d="m1309 155.35a3.13 3.13 0 0 0 0.18 5.51 3.27 3.27 0 0 0 3.2-0.14l4.32-2.4c1.27-0.71 2.56-1.39 3.8-2.14a3.17 3.17 0 0 0 1.61-3.25 3 3 0 0 0-2.29-2.56v-0.19a7.54 7.54 0 0 0-2.21 0.41c-2.94 1.52-5.82 3.08-8.61 4.76z" fill="#333"/>
<path class="cls-6" d="m1256.2 321.19a3.19 3.19 0 0 0-3.23-2 3.41 3.41 0 0 0-2.86 2.31 7.93 7.93 0 0 0 0.22 2c1.14 3 2.34 6 3.56 8.94a3.09 3.09 0 0 0 2 1.83 2.91 2.91 0 0 0 3.12-0.79 3.16 3.16 0 0 0 0.72-3.39c-0.32-1-0.73-1.87-1.1-2.81-0.78-2.01-1.57-4.06-2.43-6.09z" fill="#333"/>
<path class="cls-6" d="m1291.3 295.34a3.38 3.38 0 0 0-3.48 1.28 3.06 3.06 0 0 0 0.1 3.77c2.29 2.51 4.66 4.95 7 7.37a2.83 2.83 0 0 0 2.38 0.75 2.93 2.93 0 0 0 2.59-1.91 3.18 3.18 0 0 0-0.74-3.56q-3.17-3.36-6.4-6.66a9.61 9.61 0 0 0-1.45-1.04z" fill="#333"/>
<path class="cls-6" d="m1147.8 120.87a3.24 3.24 0 0 0 0.88-4.49c-1.67-2.64-3.37-5.26-5.06-7.88a3.52 3.52 0 0 0-2.29-1.49 2.91 2.91 0 0 0-2.91 1.17 3.09 3.09 0 0 0-0.19 3.67q2.51 4.07 5.16 8a3.2 3.2 0 0 0 4.41 1.02z" fill="#333"/>
<path class="cls-6" d="m1227.8 331.56c-0.09-0.72-0.15-1.45-0.29-2.16a3.17 3.17 0 0 0-6.2-0.35 5.79 5.79 0 0 0-0.09 1.14c0.39 3.23 0.76 6.45 1.22 9.67a3.17 3.17 0 0 0 3.07 2.7 3.21 3.21 0 0 0 3.18-3.74c-0.26-2.43-0.59-4.82-0.89-7.26z" fill="#333"/>
<path class="cls-6" d="m1109.2 158.22a3.25 3.25 0 0 0 3.86-1.67 3.2 3.2 0 0 0-1.19-4c-2.77-1.73-5.57-3.42-8.41-5a3.17 3.17 0 0 0-4.4 1.49 3.28 3.28 0 0 0 1.41 4.11c2.63 1.6 5.27 3.17 7.92 4.75 0.26 0.1 0.54 0.19 0.81 0.32z" fill="#333"/>
<path class="cls-6" d="m1109.3 163.24a3.21 3.21 0 0 0-1.47-4.28q-4.25-2.25-8.56-4.38a3.17 3.17 0 0 0-2.83 5.67c2.83 1.5 5.68 3 8.56 4.37a3.18 3.18 0 0 0 4.3-1.38z" fill="#333"/>
<path class="cls-6" d="m1312.9 161.62a4 4 0 0 0-0.92 0.58 3.12 3.12 0 0 0-1.09 3.16 3 3 0 0 0 2.19 2.29v0.18a8.06 8.06 0 0 0 2.16-0.33c2.94-1.33 5.86-2.72 8.75-4.15a3.18 3.18 0 0 0 1.71-3.37 3.22 3.22 0 0 0-4.73-2.22c-2.67 1.24-5.37 2.57-8.07 3.86z" fill="#333"/>
<path class="cls-6" d="m1310.2 266.5a3.23 3.23 0 0 0 1.19 5.06c1.67 0.87 3.35 1.72 5 2.57l3.47 1.76a3.33 3.33 0 0 0 4.19-1.78 3.25 3.25 0 0 0-1.55-4q-4.14-2.18-8.33-4.27a3.25 3.25 0 0 0-3.97 0.66z" fill="#333"/>
<path class="cls-6" d="m1191.6 100.91a3.07 3.07 0 0 0 2.08 2.6 3.21 3.21 0 0 0 4.2-3.44c-0.34-3.12-0.74-6.23-1.16-9.34a3.17 3.17 0 1 0-6.3 0.71q0.55 4.74 1.18 9.47z" fill="#333"/>
<path class="cls-6" d="m1205.9 338.27v2a3.35 3.35 0 0 0 0.46 1.74c0.71 0.46 1.4 0.95 2.09 1.45a3.14 3.14 0 0 0 3.77-2.89c0.09-1.55 0-3.11 0.05-4.67s0-3.37 0-5.06a3.26 3.26 0 0 0-2.76-3.22 3.13 3.13 0 0 0-0.44 0 57.52 57.52 0 0 1-3.17 10.65z" fill="#333"/>
<path class="cls-6" d="m1271.9 106.14q-2.31 3.8-4.59 7.63c-0.2 0.33-0.34 0.69-0.5 1a3.26 3.26 0 0 0 1.64 3.81 3.18 3.18 0 0 0 4-1.13c1.75-2.81 3.47-5.64 5.09-8.52a3.15 3.15 0 0 0-2.17-4.55 3.34 3.34 0 0 0-3.47 1.76z" fill="#333"/>
<path class="cls-6" d="m1233.2 90.21a3.51 3.51 0 0 0-1.16 2.09c-0.6 3-1.24 6-1.8 9a3.1624 3.1624 0 1 0 6.2 1.25c0.68-3.13 1.31-6.28 1.92-9.43a3.25 3.25 0 0 0-1.57-3.28 3.1 3.1 0 0 0-3.59 0.37z" fill="#333"/>
<path class="cls-6" d="m1117.6 145.85a3.18 3.18 0 0 0 2.94-5.59c-2.06-1.67-4.13-3.32-6.21-5a13.8 13.8 0 0 0-1.43-1.08 3.16 3.16 0 0 0-4.51 1.36 3.29 3.29 0 0 0 1.11 4q3.49 2.82 7 5.6a8.44 8.44 0 0 0 1.1 0.71z" fill="#333"/>
<path class="cls-6" d="m1257.1 98.89c-0.63 1.45-1.24 2.91-1.87 4.36s-1.17 2.71-1.75 4.07a3.31 3.31 0 0 0 1.54 4.42 3.25 3.25 0 0 0 4.25-1.79c0.43-0.93 0.83-1.88 1.23-2.82l2.46-5.77a3.31 3.31 0 0 0-1.67-4.27 3.25 3.25 0 0 0-4.19 1.8z" fill="#333"/>
<path class="cls-6" d="m1285.6 114.92q-2.93 3.61-5.8 7.27a9.3 9.3 0 0 0-0.7 1.21 3.24 3.24 0 0 0 1.52 3.67 3.16 3.16 0 0 0 4-0.74c2.07-2.5 4.11-5 6.08-7.61a3.16 3.16 0 0 0-1.38-4.86 3.28 3.28 0 0 0-3.72 1.06z" fill="#333"/>
<path class="cls-6" d="m1100 192a3.12 3.12 0 0 0-1.4-3.66 10.23 10.23 0 0 0-1.41-0.59v0.05l-2.26-0.46c-2.24-0.45-4.48-1-6.73-1.33a3.16 3.16 0 0 0-1.21 6.2q2.54 0.56 5.09 1.07a57.85 57.85 0 0 1 6.87 0.21 3.34 3.34 0 0 0 1.05-1.49z" fill="#333"/>
<path class="cls-6" d="m1264.8 102.16q-2.16 4.12-4.24 8.27a3.19 3.19 0 1 0 5.66 2.92q2.14-4.13 4.22-8.28a3.1732 3.1732 0 1 0-5.64-2.91z" fill="#333"/>
<path class="cls-6" d="m1318.8 175.33a4.19 4.19 0 0 0-1 0.5 3.12 3.12 0 0 0 0 5.24 3.38 3.38 0 0 0 3 0.31c2.84-0.94 5.69-1.87 8.53-2.82a3.9 3.9 0 0 0 1.09-0.54 3.08 3.08 0 0 0 1.32-3.13c-0.21-1.28-1-2.08-2.61-2.58a8.24 8.24 0 0 0-1.77 0.22c-2.88 0.9-5.72 1.85-8.56 2.8z" fill="#333"/>
<path class="cls-6" d="m1169.8 106.38a3.28 3.28 0 0 0 2.43 2.19 2.88 2.88 0 0 0 2.81-0.83 3.15 3.15 0 0 0 0.8-3.32c-0.95-3-1.92-6-2.93-9a3.17 3.17 0 1 0-6 2c0.9 3 1.89 5.98 2.89 8.96z" fill="#333"/>
<path class="cls-6" d="m1127.8 135a3.33 3.33 0 0 0 3.58-1.42 3.24 3.24 0 0 0-0.42-3.92c-2.15-2.29-4.31-4.57-6.54-6.79a4 4 0 0 0-1.95-1 2.91 2.91 0 0 0-3.17 1.57 3.24 3.24 0 0 0 0.56 3.8q3.21 3.41 6.48 6.75a8.88 8.88 0 0 0 1.46 1.01z" fill="#333"/>
<path class="cls-6" d="m1308.3 137.46q-3.74 2.72-7.43 5.49a3.18 3.18 0 1 0 3.74 5.13c2.51-1.82 5-3.65 7.48-5.54a9.57 9.57 0 0 0 1.39-1.69l-0.13-0.11a5.71 5.71 0 0 0 0.1-0.63 2.94 2.94 0 0 0-1.52-2.9 3.17 3.17 0 0 0-3.63 0.25z" fill="#333"/>
<path class="cls-6" d="m1176.8 103.74a4.41 4.41 0 0 0 0.29 0.85 3.15 3.15 0 0 0 2.74 1.93 3 3 0 0 0 2.85-1.51 3.44 3.44 0 0 0 0.32-2.79c-0.75-2.88-1.48-5.76-2.24-8.63a4.39 4.39 0 0 0-0.4-1 3.21 3.21 0 0 0-3.17-1.64 3.42 3.42 0 0 0-2.75 2.34 12.47 12.47 0 0 0 0.17 1.95c0.71 2.83 1.45 5.66 2.19 8.5z" fill="#333"/>
<path class="cls-6" d="m1263 318.09a3.23 3.23 0 0 0-3.25-1.84 3.24 3.24 0 0 0-2.5 4.53q2 4.3 4.07 8.58a3.15 3.15 0 0 0 2.3 1.78 2.91 2.91 0 0 0 3-1 3.15 3.15 0 0 0 0.49-3.37c-0.35-0.87-0.79-1.71-1.19-2.56-1.01-2.06-1.92-4.1-2.92-6.12z" fill="#333"/>
<path class="cls-6" d="m1323.9 197.3a3.16 3.16 0 0 0 0.85 6.26q4.81-0.52 9.6-1.21a3 3 0 0 0 2.53-2 3.18 3.18 0 0 0-3.25-4.23c-3.25 0.26-6.49 0.7-9.73 1.18z" fill="#333"/>
<path class="cls-6" d="m1269.2 314.06a3.13 3.13 0 0 0-5.32 0.57 3.29 3.29 0 0 0 0.17 3.14c1.47 2.66 2.94 5.32 4.43 8a3.85 3.85 0 0 0 0.9 1.07 3.09 3.09 0 0 0 5-1.53 3.41 3.41 0 0 0-0.35-2.66l-4.4-7.91a4.3 4.3 0 0 0-0.43-0.68z" fill="#333"/>
<path class="cls-6" d="m1320.7 182.6a3.15 3.15 0 0 0-2.24 3.17 3.27 3.27 0 0 0 2.28 2.94 6.65 6.65 0 0 0 1.58 0c3.17-0.79 6.35-1.58 9.49-2.47a3.16 3.16 0 0 0 2.15-3.8 3.12 3.12 0 0 0-3.7-2.3c-3.24 0.74-6.39 1.58-9.56 2.46z" fill="#333"/>
<path class="cls-6" d="m1309.9 272.16a3.24 3.24 0 0 0-3.77 1.63 3.18 3.18 0 0 0 1.18 4.11q4.11 2.56 8.3 5a3 3 0 0 0 3.4-0.18 3.18 3.18 0 0 0-0.39-5.41c-2.57-1.57-5.16-3.11-7.75-4.66-0.3-0.2-0.64-0.33-0.97-0.49z" fill="#333"/>
<path class="cls-6" d="m1242.2 326.23a3.16 3.16 0 0 0-6.12 1.57c0.75 3.12 1.57 6.22 2.4 9.32a3 3 0 0 0 2 2.16 3.17 3.17 0 0 0 4.18-3.66c-0.77-3.16-1.63-6.28-2.46-9.39z" fill="#333"/>
<path class="cls-6" d="m1297.5 125.64q-3.18 3-6.34 6.09a4.9 4.9 0 0 0-0.7 0.83 3.12 3.12 0 0 0 1.39 4.67 3.22 3.22 0 0 0 3.6-0.8c1.67-1.59 3.33-3.2 5-4.8 0.59-0.56 1.19-1.11 1.74-1.7a3.16 3.16 0 0 0-1.37-5.3 3.37 3.37 0 0 0-3.32 1.01z" fill="#333"/>
<path class="cls-6" d="m1315.9 168.47a3.18 3.18 0 0 0-1.93 2.17 2.91 2.91 0 0 0 0.87 3.1 3.17 3.17 0 0 0 3.47 0.61q4.36-1.71 8.69-3.49a3.18 3.18 0 1 0-2.35-5.9c-2.93 1.13-5.84 2.32-8.75 3.51z" fill="#333"/>
<path class="cls-6" d="m1280.8 305.38c-1.81-1.2-4.18-0.32-4.86 2.16a3 3 0 0 0 0.57 2.32q2.82 3.9 5.71 7.75a3.08 3.08 0 0 0 2.69 1.24 2.87 2.87 0 0 0 2.63-1.66 3.25 3.25 0 0 0-0.36-3.57q-2.69-3.67-5.41-7.33a4 4 0 0 0-0.97-0.91z" fill="#333"/>
<path class="cls-6" d="m1310 145.87c-1.64 1.05-3.29 2.08-4.9 3.18a3.09 3.09 0 0 0-1.37 3.3 2.89 2.89 0 0 0 2.07 2.34 3.19 3.19 0 0 0 2.65-0.28c2.75-1.74 5.49-3.48 8.2-5.28a3.1605 3.1605 0 0 0-3.46-5.29c-1.11 0.64-2.19 1.35-3.19 2.03z" fill="#333"/>
<path class="cls-6" d="m1315.7 253.34a3.17 3.17 0 0 0 2 4.1c2.81 1 5.64 2 8.51 3 0.22 0.06 0.49 0.15 0.76 0.21a3.16 3.16 0 0 0 1.94-6q-4.57-1.68-9.2-3.21a3.16 3.16 0 0 0-4.01 1.9z" fill="#333"/>
<path class="cls-6" d="m1151.8 117.48a2.91 2.91 0 0 0 3.1-1.08 3.16 3.16 0 0 0 0.28-3.67q-2.23-4.08-4.52-8.13a3.18 3.18 0 1 0-5.55 3.09c1.49 2.74 3 5.47 4.55 8.19a3.36 3.36 0 0 0 2.14 1.6z" fill="#333"/>
<path class="cls-6" d="m1113.4 151.94a3.21 3.21 0 0 0 3.72-1.61 3.16 3.16 0 0 0-1-4c-2.62-1.88-5.26-3.74-7.94-5.53a3.16 3.16 0 0 0-4.66 1.35 3.27 3.27 0 0 0 1.21 4c2.53 1.79 5.08 3.55 7.63 5.31a8.17 8.17 0 0 0 1.04 0.48z" fill="#333"/>
<path class="cls-6" d="m1275.2 309.93a3.12 3.12 0 0 0-5.2 1.37 3.3 3.3 0 0 0 0.43 2.76c0.63 1 1.29 2 1.94 3 1 1.58 2 3.19 3.06 4.75a3.17 3.17 0 0 0 5.48 0 3.26 3.26 0 0 0-0.2-3.58q-2.44-3.81-4.89-7.61a3.91 3.91 0 0 0-0.62-0.69z" fill="#333"/>
<path class="cls-6" d="m1158.4 114.09a2.94 2.94 0 0 0 3-1 3.1 3.1 0 0 0 0.49-3.53q-2-4.28-4-8.52a3.1738 3.1738 0 1 0-5.74 2.71c1.31 2.86 2.68 5.69 4 8.52a3.36 3.36 0 0 0 2.25 1.82z" fill="#333"/>
<path class="cls-6" d="m1297.3 287.05a3.24 3.24 0 0 0 1.36 3.14q3.5 2.81 7 5.6a11 11 0 0 0 1.25 0.75 3.27 3.27 0 0 0 3.73-1.51 3.2 3.2 0 0 0-0.74-4c-2.5-2.07-5-4.13-7.61-6.08a3.12 3.12 0 0 0-4.99 2.1z" fill="#333"/>
<path class="cls-6" d="m1285.8 300.43a3 3 0 0 0-3.52 1.15 3.25 3.25 0 0 0 0.21 3.94q3 3.64 6.08 7.21a8.72 8.72 0 0 0 1.57 1.16l0.08-0.09a6.81 6.81 0 0 0 0.89 0.09 2.91 2.91 0 0 0 2.73-1.7 3.22 3.22 0 0 0-0.51-3.66c-2-2.35-3.91-4.7-5.92-7a4.17 4.17 0 0 0-1.61-1.1z" fill="#333"/>
<path class="cls-6" d="m1312.9 260.44a3.23 3.23 0 0 0 1.81 4.19c1.27 0.57 2.55 1.11 3.82 1.66l4.83 2.05a3.1831 3.1831 0 1 0 2.44-5.88c-1-0.45-2-0.87-3-1.29-1.93-0.82-3.83-1.7-5.79-2.44a3.15 3.15 0 0 0-4.11 1.71z" fill="#333"/>
<path class="cls-6" d="m1220.5 339.82c-0.17-3.12-0.34-6.23-0.56-9.34a3.18 3.18 0 0 0-6.28-0.64c0 0.45-0.08 0.89-0.05 1.34 0.12 2.16 0.25 4.31 0.39 6.46 0.06 1 0.07 1.93 0.2 2.88a3.2 3.2 0 0 0 2.85 2.79 3.1 3.1 0 0 0 3.28-2.23 3.66 3.66 0 0 0 0.17-1.26z" fill="#333"/>
<path class="cls-6" d="m1279.1 110.12q-2.85 3.94-5.55 8a3.16 3.16 0 0 0 1.23 4.56 3.28 3.28 0 0 0 4.17-1.22q2.61-3.72 5.19-7.47a10.35 10.35 0 0 0 0.59-1.13 3.22 3.22 0 0 0-1.62-3.72 3.13 3.13 0 0 0-4.01 0.98z" fill="#333"/>
<path class="cls-6" d="m1149.1 231.55a2.28 2.28 0 1 0 2.8-1.62 2.32 2.32 0 0 0-2.8 1.62z" fill="#333"/>
<path class="cls-6" d="m1229.2 155.54a2.28 2.28 0 1 0-2.8 1.61 2.3 2.3 0 0 0 2.8-1.61z" fill="#333"/>
<path class="cls-6" d="m1167.9 168.27a2.29 2.29 0 1 0 1.63 2.79 2.32 2.32 0 0 0-1.63-2.79z" fill="#333"/>
<path class="cls-6" d="m1209.2 109.72a2.29 2.29 0 1 0 2.83-1.56 2.31 2.31 0 0 0-2.83 1.56z" fill="#333"/>
<circle class="cls-6" transform="rotate(-74.49 1142.9 175.54)" cx="1143" cy="175.51" r="2.28" fill="#333"/>
<path class="cls-6" d="m1276.5 251.88a2.28 2.28 0 1 0 2.83-1.56 2.3 2.3 0 0 0-2.83 1.56z" fill="#333"/>
<path class="cls-6" d="m1197.5 154.21a2.27 2.27 0 1 0-2.78 1.63 2.28 2.28 0 0 0 2.78-1.63z" fill="#333"/>
<path class="cls-6" d="m1264.8 126.11a2.29 2.29 0 1 0-2.82 1.56 2.27 2.27 0 0 0 2.82-1.56z" fill="#333"/>
<ellipse class="cls-6" transform="rotate(-74.58 1227.2 276)" cx="1227.2" cy="275.99" rx="2.29" ry="2.27" fill="#333"/>
<path class="cls-6" d="m1294.7 192.65a2.29 2.29 0 1 0-1.58-2.81 2.26 2.26 0 0 0 1.58 2.81z" fill="#333"/>
<path class="cls-6" d="m1261.8 305.52a2.29 2.29 0 1 0-1.53-2.84 2.27 2.27 0 0 0 1.53 2.84z" fill="#333"/>
<ellipse class="cls-6" transform="rotate(-74.8 1211.5 134.57)" cx="1211.4" cy="134.58" rx="2.29" ry="2.27" fill="#333"/>
<path class="cls-6" d="m1234.2 127.88a2.27 2.27 0 1 0 1.56 2.78 2.27 2.27 0 0 0-1.56-2.78z" fill="#333"/>
<ellipse class="cls-6" transform="rotate(-74.76 1300.9 162.2)" cx="1300.9" cy="162.24" rx="2.29" ry="2.27" fill="#333"/>
<path class="cls-6" d="m1212.6 291.18a2.29 2.29 0 1 0 1.54 2.84 2.32 2.32 0 0 0-1.54-2.84z" fill="#333"/>
<path class="cls-6" d="m1152.2 199.32a2.28 2.28 0 1 0-2.81 1.59 2.28 2.28 0 0 0 2.81-1.59z" fill="#333"/>
<path class="cls-6" d="m1280.3 172a2.28 2.28 0 1 0 1.6 2.8 2.26 2.26 0 0 0-1.6-2.8z" fill="#333"/>
<path class="cls-6" d="m1169.1 261.36a2.27 2.27 0 1 0-3.79-2.19 2.25 2.25 0 0 0 0 1.21c1.29 0.29 2.55 0.62 3.79 0.98z" fill="#333"/>
<path class="cls-6" d="m1248.2 145.5a2.29 2.29 0 1 0 2.81-1.58 2.29 2.29 0 0 0-2.81 1.58z" fill="#333"/>
<path class="cls-6" d="m1170 144.41a2.26 2.26 0 1 0 2.75-1.6 2.28 2.28 0 0 0-2.75 1.6z" fill="#333"/>
<path class="cls-6" d="m1121.8 160.35a2.28 2.28 0 1 0 1.59 2.81 2.26 2.26 0 0 0-1.59-2.81z" fill="#333"/>
<path class="cls-6" d="m1149.6 150.24a2.28 2.28 0 1 0 1.59 2.75 2.27 2.27 0 0 0-1.59-2.75z" fill="#333"/>
<path class="cls-6" d="m1250.1 284.77a2.27 2.27 0 1 0-1.55-2.83 2.26 2.26 0 0 0 1.55 2.83z" fill="#333"/>
<path class="cls-6" d="m1288.8 215.83a2.27 2.27 0 1 0-1.6-2.81 2.28 2.28 0 0 0 1.6 2.81z" fill="#333"/>
<path class="cls-6" d="m1295.4 235.58a2.27 2.27 0 1 0 2.8-1.59 2.27 2.27 0 0 0-2.8 1.59z" fill="#333"/>
<path class="cls-6" d="m1299.2 267.17a2.27 2.27 0 1 0-1.56-2.82 2.24 2.24 0 0 0 1.56 2.82z" fill="#333"/>
<path class="cls-6" d="m1185.4 128.19a2.26 2.26 0 0 0 1.56 2.81 2.27 2.27 0 1 0-1.59-2.81z" fill="#333"/>
<path class="cls-6" d="m1156.4 122.79a2.27 2.27 0 1 0 2.75-1.59 2.25 2.25 0 0 0-2.75 1.59z" fill="#333"/>
<path class="cls-6" d="m1195.6 278.24a2.25 2.25 0 0 0 2-1.69 2.2633 2.2633 0 0 0-4.37-1.18 2.31 2.31 0 0 0-0.05 0.29q1.18 1.17 2.3 2.42z" fill="#333"/>
<path class="cls-6" d="m1254.4 172.47a2.27 2.27 0 1 0-1.58-2.8 2.24 2.24 0 0 0 1.58 2.8z" fill="#333"/>
<path class="cls-6" d="m1272.2 278.28a2.28 2.28 0 1 0 1.14-4.41 2.28 2.28 0 0 0-1.14 4.41z" fill="#333"/>
<path class="cls-6" d="m1312.3 216.29a2.27 2.27 0 1 0-1.57-2.81 2.23 2.23 0 0 0 1.57 2.81z" fill="#333"/>
<path class="cls-6" d="m1127.8 191.08a2.27 2.27 0 1 0 1.53 2.83 2.23 2.23 0 0 0-1.53-2.83z" fill="#333"/>
<path class="cls-6" d="m1272.5 150.22a2.27 2.27 0 1 0 1.59 2.8 2.26 2.26 0 0 0-1.59-2.8z" fill="#333"/>
<path class="cls-6" d="m1210.9 317.42a2.22 2.22 0 0 0 1.6 2.79 2.27 2.27 0 1 0-1.6-2.79z" fill="#333"/>
<path class="cls-6" d="m1214.8 212.92a7.34 7.34 0 0 0 8.19 2.44 10 10 0 0 0 3.91-2.28 3.07 3.07 0 0 0 0.81-1.31c1-3.69 2-7.39 3.05-11.08 0.06-0.24 0.11-0.48 0.17-0.75l-27.36-7.49-1.53 5.6 12 3.29c-0.33 1.21-0.66 2.33-0.94 3.48a0.74 0.74 0 0 1-0.73 0.64c-4 0.59-7.9 1.21-11.85 1.81l-1.14 0.19-1.55 5.66c4.47-0.69 11.29-1.31 15.66-2 0.49 0.63 0.85 1.24 1.31 1.8zm4.9-3.31a9.57 9.57 0 0 1-1.29-1.73 0.5 0.5 0 0 1 0-0.37c0.41-1.52 0.83-3 1.26-4.64l4.19 1.15-0.25 0.9-1 3.77a1.92 1.92 0 0 1-2.91 0.93z" fill="#333"/>
<path class="cls-6" d="m1224.5 194.82a9.91 9.91 0 0 0 3-19.49q-5.07-1.42-10.16-2.77a11.09 11.09 0 0 0-2.46-0.38 9.91 9.91 0 0 0-3.43 19.29c1.89 0.62 3.83 1.07 5.75 1.59 1.4 0.38 2.8 0.8 4.21 1.14a16.09 16.09 0 0 0 3.09 0.62zm-11.2-8.82a4.12 4.12 0 0 1 2.28-7.91c3.52 0.94 7 1.89 10.53 2.88a4.1231 4.1231 0 0 1-2 8c-1.83-0.43-3.64-1-5.45-1.48-1.82-0.49-3.66-0.94-5.37-1.49z" fill="#333"/>
<path class="cls-6" d="m1200.4 256.25c1.9 0.52 3.78 1.1 5.7 1.55a9.9102 9.9102 0 0 0 4.68-19.26q-5.1-1.44-10.22-2.79a10.93 10.93 0 0 0-2.4-0.37 9.91 9.91 0 0 0-3.33 19.33c1.84 0.57 3.71 1 5.57 1.54zm-3.73-7a4 4 0 0 1-2.9-3.55 4.12 4.12 0 0 1 2.2-4 3.75 3.75 0 0 1 2.8-0.37c3.58 1 7.15 1.92 10.72 2.94a4.08 4.08 0 0 1 2.7 5 4.13 4.13 0 0 1-4.85 3l-0.31-0.07-5.14-1.41c-1.75-0.6-3.49-1.05-5.21-1.56z" fill="#333"/>
<path class="cls-6" d="m1197.9 213.11-0.45-0.12-4.41 16.27 5.56 1.52 2.92-10.68 6.41 1.75-2.32 8.47 5.59 1.53 2.32-8.48 5.17 1.42-3 10.79 5.57 1.52 4.48-16.37z" fill="#333"/>
<path class="cls-6" d="m1232.9 207.59a4.2 4.2 0 0 0-1.08 2.56 61.59 61.59 0 0 1-3.27 14c-0.57 1.58-1.39 3.07-2 4.63a15.54 15.54 0 0 0-0.84 2.93 1.4 1.4 0 0 0 0.73 1.64c0.72 0.32 1.15-0.25 1.57-0.7 2.25-2.37 4.48-4.76 6.76-7.11a8.39 8.39 0 0 0 2-3.68 7.79 7.79 0 0 0 0.13-3.34c-0.71-3.5-1.41-7-2.15-10.49-0.08-0.37-0.4-0.92-0.67-1a1.65 1.65 0 0 0-1.18 0.56z" fill="#333"/>
<path class="cls-6" d="m1189.5 223a4.06 4.06 0 0 0 1-2.53 60.7 60.7 0 0 1 2.5-13.07c0.62-2 1.5-3.86 2.2-5.8a15.06 15.06 0 0 0 0.74-2.89 1.46 1.46 0 0 0-0.8-1.68c-0.72-0.28-1.13 0.3-1.55 0.76-2.19 2.46-4.36 4.93-6.56 7.38a8 8 0 0 0-1.79 3.46 7.22 7.22 0 0 0-0.13 3.41c0.83 3.54 1.66 7.08 2.53 10.6 0.09 0.36 0.44 0.9 0.71 0.92a1.69 1.69 0 0 0 1.15-0.56z" fill="#333"/>
</g>
</g>
</g>
</svg>
