<?xml version="1.0" encoding="UTF-8" standalone="no"?>
<!-- Created with Inkscape (http://www.inkscape.org/) -->

<svg
   xmlns:dc="http://purl.org/dc/elements/1.1/"
   xmlns:cc="http://creativecommons.org/ns#"
   xmlns:rdf="http://www.w3.org/1999/02/22-rdf-syntax-ns#"
   xmlns:svg="http://www.w3.org/2000/svg"
   xmlns="http://www.w3.org/2000/svg"
   xmlns:sodipodi="http://sodipodi.sourceforge.net/DTD/sodipodi-0.dtd"
   xmlns:inkscape="http://www.inkscape.org/namespaces/inkscape"
   width="210mm"
   height="297mm"
   viewBox="0 0 210 297"
   version="1.1"
   id="svg3071"
   inkscape:version="0.92.4 (5da689c313, 2019-01-14)"
   sodipodi:docname="oreo.svg">
  <defs
     id="defs3065">
    <clipPath
       id="clip-path-2">
      <path
         inkscape:connector-curvature="0"
         class="cls-1"
         d="m 167.21,128.91 a 24,24 0 0 1 10.79,-4.09 22.47,22.47 0 0 1 9.46,-22 l 0.46,-0.31 -0.32,-0.45 a 29.14,29.14 0 0 1 13.79,-44 75,75 0 1 0 -39.58,105.64 c -0.24,-0.31 -0.49,-0.62 -0.71,-0.94 a 24.33,24.33 0 0 1 6.11,-33.85 z"
         id="path7" />
    </clipPath>
    <clipPath
       id="clip-path-2-6">
      <path
         inkscape:connector-curvature="0"
         class="cls-1"
         d="m 167.21,128.91 a 24,24 0 0 1 10.79,-4.09 22.47,22.47 0 0 1 9.46,-22 l 0.46,-0.31 -0.32,-0.45 a 29.14,29.14 0 0 1 13.79,-44 75,75 0 1 0 -39.58,105.64 c -0.24,-0.31 -0.49,-0.62 -0.71,-0.94 a 24.33,24.33 0 0 1 6.11,-33.85 z"
         id="path7-8" />
    </clipPath>
  </defs>
  <sodipodi:namedview
     id="base"
     pagecolor="#ffffff"
     bordercolor="#666666"
     borderopacity="1.0"
     inkscape:pageopacity="0.0"
     inkscape:pageshadow="2"
     inkscape:zoom="2.8"
     inkscape:cx="228.48606"
     inkscape:cy="826.35569"
     inkscape:document-units="mm"
     inkscape:current-layer="svg3071"
     showgrid="false"
     inkscape:window-width="1920"
     inkscape:window-height="1017"
     inkscape:window-x="1912"
     inkscape:window-y="-8"
     inkscape:window-maximized="1" />
  <metadata
     id="metadata3068">
    <rdf:RDF>
      <cc:Work
         rdf:about="">
        <dc:format>image/svg+xml</dc:format>
        <dc:type
           rdf:resource="http://purl.org/dc/dcmitype/StillImage" />
        <dc:title></dc:title>
      </cc:Work>
    </rdf:RDF>
  </metadata>
  <g
     transform="matrix(0.26458333,0,0,0.26458333,-12.083147,44.247321)"
     id="g8145">
    <path
       style="fill:#5c4a41"
       inkscape:connector-curvature="0"
       id="path2039"
       d="m 174.57,129.41 a 23.68,23.68 0 0 1 10.61,-4 22.17,22.17 0 0 1 9.34,-21.7 l 0.46,-0.31 -0.32,-0.45 a 28.87,28.87 0 0 1 7.08,-40 c -0.28,-0.62 -0.56,-1.25 -0.86,-1.86 a 27.22,27.22 0 0 0 -2.81,1.69 28.88,28.88 0 0 0 -7.3,40.19 l 0.32,0.45 -0.46,0.31 a 22.17,22.17 0 0 0 -9.34,21.7 23.69,23.69 0 0 0 -10.61,4 24,24 0 0 0 -7.23,31.49 q 1.6,-0.68 3.15,-1.42 a 24,24 0 0 1 7.97,-30.09 z"
       class="cls-4" />
    <path
       style="fill:#efece3"
       inkscape:connector-curvature="0"
       id="path2041"
       d="m 170.67,129.41 a 23.69,23.69 0 0 1 10.61,-4 22.17,22.17 0 0 1 9.34,-21.7 l 0.46,-0.31 -0.32,-0.45 a 28.88,28.88 0 0 1 7.3,-40.19 27.22,27.22 0 0 1 2.82,-1.76 73.62,73.62 0 0 0 -51.2,-39.82 74.49,74.49 0 0 0 -8.22,-0.7 c -0.77,0 -1.53,0 -2.3,0 A 74,74 0 0 0 108.95,162 a 73.69,73.69 0 0 0 54.49,-1.12 24,24 0 0 1 7.23,-31.47 z"
       class="cls-8" />
    <g
       id="g2711"
       clip-path="url(#clip-path-2-6)"
       class="cls-10">
      <circle
         style="fill:#6b564c"
         id="circle2043"
         r="74.489998"
         cy="93.199997"
         cx="134.78"
         class="cls-5" />
      <g
         style="opacity:0.3"
         id="g2377"
         class="cls-6">
        <path
           inkscape:connector-curvature="0"
           id="path2045"
           d="m 102.86,116.67 0.2,6.06 a 2.21,2.21 0 0 0 2.27,2.1 l 6.07,-0.15 c 1.11,0.07 1.9,-1.75 0.14,-2.47 0,0 -4.9,-1 -6,-5.45 l -0.09,-0.36 c -0.8,-1.82 -2.63,-0.92 -2.59,0.27 z" />
        <path
           inkscape:connector-curvature="0"
           id="path2047"
           d="m 93.08,122.42 -0.36,0.09 c -1.84,0.8 -0.93,2.63 0.25,2.59 l 6.07,-0.2 a 2.21,2.21 0 0 0 2.11,-2.27 L 101,116.57 c 0.07,-1.11 -1.75,-1.9 -2.47,-0.14 0,0 -0.96,4.89 -5.45,5.99 z" />
        <path
           inkscape:connector-curvature="0"
           id="path2049"
           d="m 98.84,62.29 -6.07,0.15 c -1.11,-0.07 -1.9,1.75 -0.14,2.47 0,0 4.9,1 6,5.45 l 0.09,0.36 c 0.8,1.83 2.63,0.93 2.6,-0.26 l -0.2,-6.06 a 2.21,2.21 0 0 0 -2.28,-2.11 z" />
        <path
           inkscape:connector-curvature="0"
           id="path2051"
           d="m 108.73,72 -2.36,4.25 c -0.5,0.76 0.57,1.64 1.85,0.55 a 18.36,18.36 0 0 1 6.66,-3.18 h 0.31 c 1.74,-0.22 1.8,-1.66 0.86,-1.85 l -4.76,-1 A 2.56,2.56 0 0 0 108.73,72 Z" />
        <path
           inkscape:connector-curvature="0"
           id="path2053"
           d="m 93.59,106.1 5.3,3 c 0.92,0.62 2.52,-0.54 1.38,-2 0,0 -3.72,-3.33 -2.38,-7.74 L 98,99.01 c 0.25,-2 -1.79,-2.14 -2.36,-1.1 l -2.92,5.32 a 2.21,2.21 0 0 0 0.87,2.87 z" />
        <path
           inkscape:connector-curvature="0"
           id="path2055"
           d="m 131.06,131.87 c 1,-0.51 0.74,-2.47 -1.14,-2.19 0,0 -4.7,1.68 -7.95,-1.62 l -0.26,-0.26 c -1.63,-1.16 -2.74,0.55 -2.1,1.55 l 3.28,5.11 a 2.22,2.22 0 0 0 3,0.65 z" />
        <path
           inkscape:connector-curvature="0"
           id="path2057"
           d="m 93.37,84 3.24,5.13 c 0.51,1 2.47,0.73 2.19,-1.14 0,0 -1.68,-4.7 1.61,-7.94 l 0.26,-0.26 c 1.17,-1.63 -0.55,-2.74 -1.55,-2.1 L 94,80.95 A 2.21,2.21 0 0 0 93.37,84 Z" />
        <path
           inkscape:connector-curvature="0"
           id="path2059"
           d="m 118.23,114.4 a 18.36,18.36 0 0 1 -6.81,-2.83 l -0.2,-0.24 c -1.33,-1.15 -2.44,-0.23 -2,0.6 l 2.45,4.19 a 2.55,2.55 0 0 0 2.59,1.1 l 4.75,-1.08 c 0.99,-0.14 0.89,-1.52 -0.78,-1.74 z" />
        <path
           inkscape:connector-curvature="0"
           id="path2061"
           d="m 111.74,129 c 1.84,-0.8 0.93,-2.63 -0.25,-2.59 l -6.07,0.2 a 2.22,2.22 0 0 0 -2.11,2.27 l 0.15,6.06 c -0.07,1.11 1.75,1.9 2.47,0.14 0,0 1,-4.9 5.46,-6 z" />
        <path
           inkscape:connector-curvature="0"
           id="path2063"
           d="m 111.36,61.82 -6.07,0.2 a 2.21,2.21 0 0 0 -2.11,2.27 l 0.15,6.07 c -0.07,1.11 1.75,1.89 2.47,0.14 0,0 1,-4.9 5.46,-6 l 0.36,-0.09 c 1.83,-0.79 0.93,-2.62 -0.26,-2.59 z" />
        <path
           inkscape:connector-curvature="0"
           id="path2065"
           d="m 127.22,120.48 a 2.56,2.56 0 0 0 -2.46,-1.37 l -4.83,0.57 c -0.91,0 -1,1.42 0.63,1.82 A 18.33,18.33 0 0 1 127,125 l 0.18,0.25 c 1.2,1.28 2.4,0.48 2,-0.38 z" />
        <path
           inkscape:connector-curvature="0"
           id="path2067"
           d="m 82.71,112 c -0.25,2 1.79,2.14 2.36,1.1 L 88,107.74 a 2.21,2.21 0 0 0 -0.88,-3 l -5.3,-3 c -0.92,-0.62 -2.52,0.54 -1.38,2 0,0 3.72,3.33 2.38,7.74 z" />
        <path
           inkscape:connector-curvature="0"
           id="path2069"
           d="m 92.05,95.64 c 0,0 -3.33,3.72 -7.75,2.36 L 84,97.92 c -2,-0.25 -2.15,1.79 -1.1,2.36 l 5.32,2.92 a 2.22,2.22 0 0 0 3,-0.88 l 3,-5.29 C 94.73,96.1 93.57,94.5 92.05,95.64 Z" />
        <path
           inkscape:connector-curvature="0"
           id="path2071"
           d="m 105.41,52.19 -0.09,-0.36 c -0.8,-1.83 -2.63,-0.93 -2.6,0.26 l 0.2,6.06 a 2.21,2.21 0 0 0 2.27,2.1 l 6.07,-0.15 c 1.11,0.07 1.9,-1.75 0.14,-2.47 0.01,0.01 -4.89,-0.96 -5.99,-5.44 z" />
        <path
           inkscape:connector-curvature="0"
           id="path2073"
           d="m 83.48,87.71 c -1,0.51 -0.73,2.47 1.14,2.19 0,0 4.71,-1.68 7.95,1.61 l 0.26,0.26 c 1.63,1.17 2.74,-0.55 2.1,-1.55 l -3.28,-5.1 a 2.22,2.22 0 0 0 -3,-0.65 z" />
        <path
           inkscape:connector-curvature="0"
           id="path2075"
           d="m 121.13,59.66 c 0,0 3.32,-3.73 7.75,-2.39 l 0.35,0.11 c 2,0.24 2.14,-1.79 1.1,-2.36 L 125,52.1 a 2.22,2.22 0 0 0 -3,0.88 l -3,5.3 c -0.54,0.92 0.62,2.52 2.13,1.38 z" />
        <path
           inkscape:connector-curvature="0"
           id="path2077"
           d="m 81,83.92 c -1.17,1.63 0.55,2.74 1.55,2.1 l 5.11,-3.28 a 2.21,2.21 0 0 0 0.65,-3 l -3.24,-5.13 c -0.51,-1 -2.47,-0.73 -2.19,1.14 0,0 1.68,4.7 -1.61,7.94 z" />
        <path
           inkscape:connector-curvature="0"
           id="path2079"
           d="m 188,51.8 a 1.85,1.85 0 1 0 2.23,2.95 l 4.28,-3.23 a 1.85,1.85 0 1 0 -2.23,-2.95 z" />
        <path
           inkscape:connector-curvature="0"
           id="path2081"
           d="m 182.08,48.11 a 1.9,1.9 0 0 0 2.68,0 l 3.83,-3.75 A 1.8634981,1.8634981 0 1 0 186,41.68 l -3.83,3.75 a 1.89,1.89 0 0 0 -0.09,2.68 z" />
        <path
           inkscape:connector-curvature="0"
           id="path2083"
           d="m 112.63,48.16 c 0,0 3.73,3.32 2.4,7.74 l -0.11,0.35 c -0.24,2 1.79,2.14 2.37,1.1 L 120.2,52 a 2.21,2.21 0 0 0 -0.88,-3 l -5.31,-3 c -0.92,-0.52 -2.52,0.65 -1.38,2.16 z" />
        <path
           inkscape:connector-curvature="0"
           id="path2085"
           d="m 192.95,58.88 a 1.85,1.85 0 1 0 1.84,3.2 l 4.66,-2.67 a 1.85,1.85 0 1 0 -1.84,-3.2 z" />
        <path
           inkscape:connector-curvature="0"
           id="path2087"
           d="m 169,37.81 a 1.89,1.89 0 0 0 2.58,-0.71 l 2.75,-4.6 a 1.85,1.85 0 1 0 -3.17,-1.9 l -2.75,4.6 a 1.89,1.89 0 0 0 0.59,2.61 z" />
        <path
           inkscape:connector-curvature="0"
           id="path2089"
           d="m 175.88,42.54 a 1.9,1.9 0 0 0 2.65,-0.38 L 181.86,38 a 1.85,1.85 0 1 0 -2.9,-2.29 l -3.32,4.21 a 1.89,1.89 0 0 0 0.24,2.62 z" />
        <path
           inkscape:connector-curvature="0"
           id="path2091"
           d="m 96.49,113.11 0.35,0.11 c 2,0.25 2.14,-1.79 1.1,-2.36 l -5.32,-2.92 a 2.22,2.22 0 0 0 -3,0.87 l -3,5.29 c -0.62,0.92 0.54,2.52 2.05,1.38 0.07,0 3.4,-3.72 7.82,-2.37 z" />
        <path
           inkscape:connector-curvature="0"
           id="path2093"
           d="m 88.82,72.18 c -1.63,-1.16 -2.74,0.55 -2.1,1.55 l 3.28,5.1 a 2.22,2.22 0 0 0 3,0.65 l 5.14,-3.23 c 1,-0.51 0.74,-2.47 -1.14,-2.19 0,0 -4.71,1.68 -7.95,-1.61 z" />
        <path
           inkscape:connector-curvature="0"
           id="path2095"
           d="m 93,57.83 -0.36,0.09 c -1.84,0.8 -0.93,2.63 0.26,2.59 l 6.07,-0.2 A 2.21,2.21 0 0 0 101,58 l -0.12,-6 c 0.07,-1.11 -1.75,-1.9 -2.47,-0.14 0,-0.02 -0.97,4.88 -5.41,5.97 z" />
        <path
           inkscape:connector-curvature="0"
           id="path2097"
           d="m 98.75,134.94 0.09,0.36 c 0.8,1.83 2.63,0.93 2.6,-0.26 l -0.2,-6.06 a 2.21,2.21 0 0 0 -2.27,-2.1 L 92.9,127 c -1.11,-0.07 -1.9,1.75 -0.14,2.47 0,0.02 4.9,0.98 5.99,5.47 z" />
        <path
           inkscape:connector-curvature="0"
           id="path2099"
           d="m 177.78,127.51 c 1.84,-0.8 0.93,-2.63 -0.26,-2.59 l -6.07,0.2 a 2.21,2.21 0 0 0 -2.11,2.27 l 0.15,6.06 c -0.07,1.11 1.75,1.9 2.47,0.14 0,0 1,-4.89 5.46,-6 z" />
        <path
           inkscape:connector-curvature="0"
           id="path2101"
           d="m 157.3,138.29 c 0,0 -3.73,-3.32 -2.4,-7.74 l 0.11,-0.35 c 0.24,-2 -1.79,-2.14 -2.37,-1.1 l -2.91,5.32 a 2.21,2.21 0 0 0 0.88,3 l 5.31,3 c 0.93,0.58 2.53,-0.62 1.38,-2.13 z" />
        <path
           inkscape:connector-curvature="0"
           id="path2103"
           d="m 115.45,141.64 5.11,-3.28 a 2.21,2.21 0 0 0 0.65,-3 L 118,130.21 c -0.51,-1 -2.47,-0.73 -2.2,1.14 0,0 1.68,4.7 -1.61,7.94 l -0.26,0.26 c -1.19,1.62 0.52,2.73 1.52,2.09 z" />
        <path
           inkscape:connector-curvature="0"
           id="path2105"
           d="m 136.78,126.14 c 0,0 3.64,-6.53 7,-8.49 0,0 1.4,-1.26 -0.47,-1.07 l -1.64,-0.19 c 0,0 -0.93,-0.19 -1.82,1.21 a 8.91,8.91 0 0 0 -1,1.91 c 0,0 -2,-2.85 -3.08,-3 h -0.05 c -1.07,0.19 -3.08,3 -3.08,3 a 8.9,8.9 0 0 0 -1,-1.92 c -0.89,-1.4 -1.82,-1.21 -1.82,-1.21 l -1.64,0.18 c -1.87,-0.18 -0.47,1.08 -0.47,1.08 3.36,2 7,8.49 7,8.49 0,0 0.77,2.32 2.07,0.01 z m -1,-8.65 c 0.37,0 0.67,1 0.67,2.31 0,1.31 -0.3,2.31 -0.67,2.31 -0.37,0 -0.67,-1 -0.67,-2.31 0,-1.31 0.27,-2.31 0.64,-2.31 z" />
        <path
           inkscape:connector-curvature="0"
           id="path2107"
           d="m 130.21,43.34 c 0.25,-2 -1.79,-2.14 -2.36,-1.1 l -2.91,5.32 a 2.21,2.21 0 0 0 0.88,3 l 5.31,3 c 0.92,0.62 2.52,-0.54 1.38,-2.05 0,0 -3.73,-3.32 -2.39,-7.74 z" />
        <path
           inkscape:connector-curvature="0"
           id="path2109"
           d="m 116.15,42.13 c -2,-0.24 -2.14,1.79 -1.1,2.36 l 5.33,2.91 a 2.22,2.22 0 0 0 3,-0.88 l 3,-5.3 c 0.62,-0.92 -0.54,-2.52 -2.05,-1.37 0,0 -3.33,3.73 -7.75,2.39 z" />
        <path
           inkscape:connector-curvature="0"
           id="path2111"
           d="m 125.72,147.39 c 1.63,1.17 2.74,-0.55 2.1,-1.54 l -3.28,-5.11 a 2.22,2.22 0 0 0 -3,-0.65 l -5.14,3.23 c -1,0.51 -0.74,2.47 1.14,2.19 0,0 4.71,-1.67 7.95,1.62 z" />
        <path
           inkscape:connector-curvature="0"
           id="path2113"
           d="m 133.57,135.39 c 1.17,-1.63 -0.55,-2.74 -1.55,-2.1 l -5.11,3.28 a 2.21,2.21 0 0 0 -0.65,3 l 3.24,5.13 c 0.51,1 2.47,0.73 2.19,-1.14 0,0 -1.68,-4.7 1.62,-7.94 z" />
        <path
           inkscape:connector-curvature="0"
           id="path2115"
           d="m 139.72,143.11 c -0.24,2 1.79,2.14 2.37,1.1 l 2.91,-5.32 a 2.21,2.21 0 0 0 -0.88,-3 l -5.31,-3 c -0.92,-0.62 -2.52,0.54 -1.38,2.05 0,0 3.73,3.32 2.4,7.74 z" />
        <path
           inkscape:connector-curvature="0"
           id="path2117"
           d="M 155.13,141.87 149.8,139 a 2.22,2.22 0 0 0 -3,0.88 l -3,5.3 c -0.62,0.92 0.54,2.52 2.05,1.38 0,0 3.32,-3.73 7.75,-2.39 l 0.35,0.11 c 2.05,0.2 2.22,-1.84 1.18,-2.41 z" />
        <path
           inkscape:connector-curvature="0"
           id="path2119"
           d="m 189.15,101.92 c 1.17,-1.62 -0.55,-2.74 -1.55,-2.1 l -5.11,3.27 a 2.21,2.21 0 0 0 -0.65,3 l 3.24,5.13 c 0.51,1 2.47,0.74 2.19,-1.14 0,0 -1.68,-4.7 1.62,-7.94 z" />
        <path
           inkscape:connector-curvature="0"
           id="path2121"
           d="m 144.55,40.34 -0.25,-0.27 c -1.59,-1.21 -2.75,0.47 -2.14,1.49 l 3.13,5.2 a 2.22,2.22 0 0 0 3,0.74 l 5.23,-3.08 c 1,-0.48 0.8,-2.45 -1.08,-2.22 0,-0.02 -4.75,1.52 -7.89,-1.86 z" />
        <path
           inkscape:connector-curvature="0"
           id="path2123"
           d="m 133.49,78.34 -5.57,2.81 c -1.1,0.47 -0.25,1.73 2,1.29 a 36.11,36.11 0 0 1 10.39,0 l 0.39,0.14 c 2.35,0.56 3.28,-0.72 2.21,-1.29 l -5.48,-2.93 a 4.85,4.85 0 0 0 -3.94,-0.02 z" />
        <path
           inkscape:connector-curvature="0"
           id="path2125"
           d="m 136.42,51.34 -0.27,0.25 c -1.21,1.59 0.47,2.75 1.49,2.14 l 5.2,-3.13 a 2.21,2.21 0 0 0 0.73,-3 l -3.09,-5.22 c -0.48,-1 -2.45,-0.81 -2.23,1.08 0.01,-0.01 1.56,4.74 -1.83,7.88 z" />
        <path
           inkscape:connector-curvature="0"
           id="path2127"
           d="m 208.31,92.93 h -5.37 a 1.85,1.85 0 1 0 0,3.69 h 5.37 a 1.85,1.85 0 1 0 0,-3.69 z" />
        <path
           inkscape:connector-curvature="0"
           id="path2129"
           d="m 207.42,83 -5.32,0.71 a 1.85,1.85 0 1 0 0.49,3.66 l 5.32,-0.71 A 1.85,1.85 0 1 0 207.42,83 Z" />
        <path
           inkscape:connector-curvature="0"
           id="path2131"
           d="m 205.27,73.53 -5.18,1.39 a 1.8537057,1.8537057 0 1 0 1,3.57 l 5.18,-1.39 a 1.8537057,1.8537057 0 1 0 -1,-3.57 z" />
        <path
           inkscape:connector-curvature="0"
           id="path2133"
           d="m 197,66.62 a 1.85,1.85 0 1 0 1.43,3.38 l 5,-2 A 1.858077,1.858077 0 1 0 202,64.57 Z" />
        <path
           inkscape:connector-curvature="0"
           id="path2135"
           d="m 183.39,112.38 -3.28,-5.1 a 2.22,2.22 0 0 0 -3,-0.65 l -5.14,3.23 c -1,0.51 -0.74,2.47 1.14,2.19 0,0 4.71,-1.68 7.95,1.61 l 0.26,0.26 c 1.6,1.17 2.68,-0.54 2.07,-1.54 z" />
        <path
           inkscape:connector-curvature="0"
           id="path2137"
           d="m 186.63,98.39 c 1,-0.51 0.73,-2.47 -1.14,-2.19 0,0 -4.71,1.68 -7.95,-1.61 l -0.26,-0.26 c -1.63,-1.17 -2.74,0.55 -2.1,1.55 l 3.28,5.11 a 2.21,2.21 0 0 0 3,0.64 z" />
        <path
           inkscape:connector-curvature="0"
           id="path2139"
           d="m 171.36,123.34 6.07,-0.15 c 1.11,0.07 1.9,-1.75 0.14,-2.46 0,0 -4.9,-1 -6,-5.45 l -0.09,-0.36 c -0.8,-1.83 -2.63,-0.93 -2.6,0.25 l 0.2,6.06 a 2.22,2.22 0 0 0 2.28,2.11 z" />
        <path
           inkscape:connector-curvature="0"
           id="path2141"
           d="m 176.78,101.87 -3.24,-5.13 c -0.51,-1 -2.47,-0.73 -2.19,1.14 0,0 1.68,4.7 -1.61,7.94 l -0.26,0.26 c -1.17,1.62 0.55,2.74 1.55,2.1 l 5.11,-3.27 a 2.21,2.21 0 0 0 0.64,-3.04 z" />
        <path
           inkscape:connector-curvature="0"
           id="path2143"
           d="m 172.95,73.35 -0.35,-0.11 c -2,-0.24 -2.14,1.79 -1.1,2.36 l 5.33,2.91 a 2.22,2.22 0 0 0 3,-0.88 l 3,-5.3 c 0.62,-0.92 -0.54,-2.52 -2.05,-1.37 -0.08,0.04 -3.41,3.72 -7.83,2.39 z" />
        <path
           inkscape:connector-curvature="0"
           id="path2145"
           d="m 149,126.7 c 0,0 -3.33,3.73 -7.75,2.39 l -0.35,-0.11 c -2,-0.24 -2.14,1.79 -1.1,2.36 l 5.33,2.91 a 2.22,2.22 0 0 0 3,-0.88 l 3,-5.3 c 0.59,-0.91 -0.57,-2.51 -2.13,-1.37 z" />
        <path
           inkscape:connector-curvature="0"
           id="path2147"
           d="M 154.45,45.86 149.24,49 a 2.21,2.21 0 0 0 -0.73,3 l 3.09,5.22 c 0.48,1 2.45,0.8 2.23,-1.08 0,0 -1.54,-4.75 1.84,-7.89 L 155.94,48 c 1.21,-1.59 -0.47,-2.75 -1.49,-2.14 z" />
        <path
           inkscape:connector-curvature="0"
           id="path2149"
           d="m 141.2,104.11 a 36.12,36.12 0 0 1 -10.38,0.33 l -0.4,-0.13 c -2.37,-0.48 -3.26,0.83 -2.17,1.37 l 5.57,2.75 a 4.86,4.86 0 0 0 4,-0.11 l 5.47,-3 c 1.06,-0.48 0.17,-1.72 -2.09,-1.21 z" />
        <path
           inkscape:connector-curvature="0"
           id="path2151"
           d="m 138.51,55.44 c -1,0.48 -0.81,2.45 1.08,2.22 0,0 4.75,-1.54 7.9,1.84 l 0.25,0.27 c 1.59,1.21 2.76,-0.47 2.14,-1.48 l -3.13,-5.2 a 2.22,2.22 0 0 0 -3,-0.73 z" />
        <path
           inkscape:connector-curvature="0"
           id="path2153"
           d="m 170.45,51.81 -0.09,-0.36 c -0.8,-1.83 -2.64,-0.93 -2.6,0.26 l 0.2,6.06 a 2.21,2.21 0 0 0 2.27,2.1 l 6.07,-0.15 c 1.11,0.07 1.9,-1.75 0.14,-2.47 0.01,0.01 -4.89,-0.95 -5.99,-5.44 z" />
        <path
           inkscape:connector-curvature="0"
           id="path2155"
           d="m 163.76,70.33 c 0.8,1.83 2.63,0.93 2.6,-0.26 l -0.2,-6.06 a 2.21,2.21 0 0 0 -2.27,-2.11 l -6.07,0.15 c -1.11,-0.07 -1.9,1.75 -0.14,2.47 0,0 4.9,1 6,5.45 z" />
        <path
           inkscape:connector-curvature="0"
           id="path2157"
           d="m 158.4,70.74 -4.75,1.08 c -0.9,0.13 -0.84,1.52 0.82,1.74 a 18.35,18.35 0 0 1 6.81,2.83 l 0.2,0.24 c 1.33,1.15 2.44,0.23 2,-0.6 L 161,71.84 a 2.55,2.55 0 0 0 -2.6,-1.1 z" />
        <path
           inkscape:connector-curvature="0"
           id="path2159"
           d="m 159.67,115.93 2.59,-4.12 c 0.55,-0.73 -0.48,-1.67 -1.81,-0.65 a 18.35,18.35 0 0 1 -6.82,2.81 h -0.31 c -1.75,0.13 -1.88,1.56 -1,1.8 l 4.7,1.23 a 2.56,2.56 0 0 0 2.65,-1.07 z" />
        <path
           inkscape:connector-curvature="0"
           id="path2161"
           d="m 159,123.61 6.07,-0.2 a 2.21,2.21 0 0 0 2.11,-2.27 l -0.15,-6.07 c 0.07,-1.11 -1.75,-1.9 -2.47,-0.14 0,0 -1,4.9 -5.46,6 l -0.36,0.09 c -1.82,0.79 -0.92,2.62 0.26,2.59 z" />
        <path
           inkscape:connector-curvature="0"
           id="path2163"
           d="m 152.08,121.18 c 1.68,-0.51 1.49,-1.94 0.53,-2 l -4.86,-0.15 a 2.55,2.55 0 0 0 -2.31,1.61 l -1.61,4.59 c -0.37,0.84 0.84,1.52 1.91,0.23 a 18.33,18.33 0 0 1 6,-4.26 z" />
        <path
           inkscape:connector-curvature="0"
           id="path2165"
           d="m 157.64,57.55 c -1.84,0.8 -0.93,2.63 0.25,2.59 l 6.07,-0.2 a 2.21,2.21 0 0 0 2.11,-2.27 l -0.15,-6.07 c 0.07,-1.11 -1.75,-1.9 -2.47,-0.14 0,0 -1,4.9 -5.46,6 z" />
        <path
           inkscape:connector-curvature="0"
           id="path2167"
           d="m 175.76,80.17 -5.31,-3 c -0.92,-0.62 -2.52,0.54 -1.38,2.05 0,0 3.73,3.32 2.4,7.74 l -0.11,0.35 c -0.24,2 1.79,2.14 2.37,1.1 l 2.91,-5.32 a 2.21,2.21 0 0 0 -0.88,-2.92 z" />
        <path
           inkscape:connector-curvature="0"
           id="path2169"
           d="m 176.3,64.13 0.36,-0.09 c 1.84,-0.8 0.93,-2.63 -0.25,-2.59 l -6.07,0.2 a 2.22,2.22 0 0 0 -2.11,2.27 l 0.15,6.06 c -0.07,1.11 1.75,1.9 2.47,0.14 -0.01,0 0.96,-4.9 5.45,-5.99 z" />
        <path
           inkscape:connector-curvature="0"
           id="path2171"
           d="m 186.66,74.45 c 0.24,-2 -1.79,-2.14 -2.37,-1.1 l -2.91,5.32 a 2.21,2.21 0 0 0 0.88,3 l 5.31,3 c 0.92,0.62 2.52,-0.54 1.38,-2.05 0,0 -3.73,-3.32 -2.4,-7.74 z" />
        <path
           inkscape:connector-curvature="0"
           id="path2173"
           d="m 177.58,90.77 c 0,0 3.32,-3.73 7.75,-2.39 l 0.35,0.11 c 2,0.24 2.14,-1.79 1.1,-2.36 l -5.33,-2.91 a 2.22,2.22 0 0 0 -3,0.88 l -3,5.3 c -0.55,0.91 0.61,2.51 2.13,1.37 z" />
        <path
           inkscape:connector-curvature="0"
           id="path2175"
           d="m 164.88,133.8 c 0.8,1.83 2.63,0.93 2.6,-0.26 l -0.2,-6.06 a 2.22,2.22 0 0 0 -2.27,-2.1 l -6.07,0.15 c -1.11,-0.07 -1.9,1.75 -0.14,2.47 0,0 4.9,1 6,5.45 z" />
        <path
           inkscape:connector-curvature="0"
           id="path2177"
           d="m 95.65,145.81 a 1.9,1.9 0 0 0 -2.66,0.38 l -3.32,4.21 a 1.85,1.85 0 1 0 2.9,2.29 l 3.33,-4.21 a 1.9,1.9 0 0 0 -0.25,-2.67 z" />
        <path
           inkscape:connector-curvature="0"
           id="path2179"
           d="m 89.44,140.25 a 1.9,1.9 0 0 0 -2.68,0 L 82.93,144 a 1.85,1.85 0 1 0 2.59,2.64 l 3.83,-3.75 a 1.89,1.89 0 0 0 0.09,-2.64 z" />
        <path
           inkscape:connector-curvature="0"
           id="path2181"
           d="m 102.51,150.54 a 1.9,1.9 0 0 0 -2.58,0.71 l -2.76,4.6 a 1.8521879,1.8521879 0 1 0 3.18,1.9 l 2.75,-4.6 a 1.89,1.89 0 0 0 -0.59,-2.61 z" />
        <path
           inkscape:connector-curvature="0"
           id="path2183"
           d="m 83.55,136.56 a 1.85,1.85 0 1 0 -2.23,-2.95 L 77,136.85 a 1.85,1.85 0 1 0 2.23,2.95 z" />
        <path
           inkscape:connector-curvature="0"
           id="path2185"
           d="m 117.91,157.17 a 1.89,1.89 0 0 0 -2.3,1.36 l -1.45,5.16 a 1.85,1.85 0 1 0 3.56,1 l 1.45,-5.16 a 1.89,1.89 0 0 0 -1.26,-2.36 z" />
        <path
           inkscape:connector-curvature="0"
           id="path2187"
           d="m 110,154.35 a 1.89,1.89 0 0 0 -2.47,1 l -2.13,4.92 a 1.8501081,1.8501081 0 1 0 3.4,1.46 l 2.13,-4.92 A 1.89,1.89 0 0 0 110,154.35 Z" />
        <path
           inkscape:connector-curvature="0"
           id="path2189"
           d="m 126.3,158.91 a 1.9,1.9 0 0 0 -2.1,1.67 l -0.74,5.31 a 1.85,1.85 0 1 0 3.66,0.51 l 0.74,-5.31 a 1.9,1.9 0 0 0 -1.56,-2.18 z" />
        <path
           inkscape:connector-curvature="0"
           id="path2191"
           d="m 63.21,95.42 h 5.37 a 1.85,1.85 0 1 0 0,-3.69 h -5.37 a 1.85,1.85 0 1 0 0,3.69 z" />
        <path
           inkscape:connector-curvature="0"
           id="path2193"
           d="m 64.11,105.34 5.32,-0.71 a 1.85,1.85 0 1 0 -0.49,-3.66 l -5.32,0.71 a 1.85,1.85 0 1 0 0.49,3.66 z" />
        <path
           inkscape:connector-curvature="0"
           id="path2195"
           d="m 63.45,85.37 5.32,0.73 a 1.85,1.85 0 1 0 0.51,-3.66 L 64,81.71 a 1.85,1.85 0 1 0 -0.51,3.66 z" />
        <path
           inkscape:connector-curvature="0"
           id="path2197"
           d="m 66.25,114.82 5.18,-1.39 a 1.8537057,1.8537057 0 1 0 -1,-3.57 l -5.18,1.39 a 1.8537057,1.8537057 0 1 0 1,3.57 z" />
        <path
           inkscape:connector-curvature="0"
           id="path2199"
           d="m 78.58,129.47 a 1.85,1.85 0 1 0 -1.84,-3.2 l -4.66,2.66 a 1.85,1.85 0 1 0 1.84,3.21 z" />
        <path
           inkscape:connector-curvature="0"
           id="path2201"
           d="m 74.51,121.73 a 1.85,1.85 0 1 0 -1.42,-3.41 l -5,2 a 1.85,1.85 0 1 0 1.41,3.41 z" />
        <path
           inkscape:connector-curvature="0"
           id="path2203"
           d="m 154.66,158.24 a 1.8537057,1.8537057 0 1 0 -3.57,1 l 1.39,5.17 a 1.8537057,1.8537057 0 1 0 3.57,-1 z" />
        <path
           inkscape:connector-curvature="0"
           id="path2205"
           d="m 203.08,121 -4.93,-2.12 a 1.85,1.85 0 1 0 -1.47,3.39 l 4.93,2.12 a 1.85,1.85 0 1 0 1.46,-3.39 z" />
        <path
           inkscape:connector-curvature="0"
           id="path2207"
           d="m 184.19,140.34 a 1.85,1.85 0 1 0 -2.64,2.58 l 3.76,3.83 a 1.85,1.85 0 1 0 2.64,-2.58 z" />
        <path
           inkscape:connector-curvature="0"
           id="path2209"
           d="m 199,129.36 -4.61,-2.75 a 1.85,1.85 0 1 0 -1.9,3.17 l 4.61,2.75 a 1.85,1.85 0 1 0 1.9,-3.17 z" />
        <path
           inkscape:connector-curvature="0"
           id="path2211"
           d="m 194,137.13 -4.21,-3.32 a 1.85,1.85 0 1 0 -2.29,2.9 l 4.21,3.32 a 1.85,1.85 0 1 0 2.29,-2.9 z" />
        <path
           inkscape:connector-curvature="0"
           id="path2213"
           d="m 207.7,102.61 -5.32,-0.73 a 1.85,1.85 0 1 0 -0.51,3.66 l 5.32,0.73 a 1.85,1.85 0 1 0 0.51,-3.66 z" />
        <path
           inkscape:connector-curvature="0"
           id="path2215"
           d="m 206,112 -5.17,-1.45 a 1.85,1.85 0 1 0 -1,3.56 l 5.17,1.45 a 1.85,1.85 0 1 0 1,-3.56 z" />
        <path
           inkscape:connector-curvature="0"
           id="path2217"
           d="m 145.86,160.24 a 1.8512833,1.8512833 0 1 0 -3.67,0.49 l 0.71,5.31 a 1.8506283,1.8506283 0 1 0 3.67,-0.48 z" />
        <path
           inkscape:connector-curvature="0"
           id="path2219"
           d="m 134.78,159.15 a 1.9,1.9 0 0 0 -1.85,1.94 v 5.36 a 1.85,1.85 0 1 0 3.7,0 v -5.36 a 1.9,1.9 0 0 0 -1.85,-1.94 z" />
        <path
           inkscape:connector-curvature="0"
           id="path2221"
           d="m 177.82,146.13 a 1.85,1.85 0 1 0 -2.95,2.23 l 3.24,4.28 a 1.85,1.85 0 1 0 2.95,-2.23 z" />
        <path
           inkscape:connector-curvature="0"
           id="path2223"
           d="m 170.72,151.1 a 1.85,1.85 0 1 0 -3.21,1.84 l 2.67,4.65 a 1.85,1.85 0 1 0 3.21,-1.84 z" />
        <path
           inkscape:connector-curvature="0"
           id="path2225"
           d="m 163,155.16 a 1.85,1.85 0 1 0 -3.42,1.41 l 2.05,5 a 1.85,1.85 0 1 0 3.42,-1.41 z" />
        <path
           inkscape:connector-curvature="0"
           id="path2227"
           d="M 100.42,36.88 A 1.8600067,1.8600067 0 1 0 103.63,35 L 101,30.39 a 1.85,1.85 0 1 0 -3.21,1.84 z" />
        <path
           inkscape:connector-curvature="0"
           id="path2229"
           d="m 93.33,41.84 a 1.85,1.85 0 1 0 2.95,-2.23 L 93,35.34 a 1.8690171,1.8690171 0 1 0 -3,2.23 z" />
        <path
           inkscape:connector-curvature="0"
           id="path2231"
           d="m 77.18,50.85 4.21,3.32 a 1.85,1.85 0 1 0 2.29,-2.9 L 79.47,48 a 1.85,1.85 0 1 0 -2.29,2.9 z" />
        <path
           inkscape:connector-curvature="0"
           id="path2233"
           d="m 72.11,58.62 4.61,2.75 a 1.85,1.85 0 1 0 1.9,-3.17 L 74,55.45 a 1.85,1.85 0 1 0 -1.9,3.17 z" />
        <path
           inkscape:connector-curvature="0"
           id="path2235"
           d="m 136.36,28.83 a 1.9,1.9 0 0 0 1.85,-1.94 v -5.36 a 1.85,1.85 0 1 0 -3.7,0 v 5.36 a 1.9,1.9 0 0 0 1.85,1.94 z" />
        <path
           inkscape:connector-curvature="0"
           id="path2237"
           d="m 65.16,76 5.17,1.45 a 1.85,1.85 0 1 0 1,-3.56 l -5.17,-1.45 a 1.85,1.85 0 1 0 -1,3.56 z" />
        <path
           inkscape:connector-curvature="0"
           id="path2239"
           d="m 145.22,29.44 a 1.9,1.9 0 0 0 2.1,-1.67 l 0.73,-5.31 a 1.85,1.85 0 1 0 -3.66,-0.51 l -0.74,5.31 a 1.9,1.9 0 0 0 1.57,2.18 z" />
        <path
           inkscape:connector-curvature="0"
           id="path2241"
           d="m 87,47.64 a 1.85,1.85 0 1 0 2.64,-2.58 l -3.75,-3.83 a 1.85,1.85 0 1 0 -2.64,2.58 z" />
        <path
           inkscape:connector-curvature="0"
           id="path2243"
           d="m 125.29,27.74 a 1.8512833,1.8512833 0 1 0 3.67,-0.49 l -0.71,-5.31 a 1.8506283,1.8506283 0 1 0 -3.67,0.48 z" />
        <path
           inkscape:connector-curvature="0"
           id="path2245"
           d="m 153.61,31.19 a 1.9,1.9 0 0 0 2.3,-1.37 l 1.45,-5.16 a 1.85,1.85 0 1 0 -3.56,-1 l -1.45,5.16 a 1.89,1.89 0 0 0 1.26,2.37 z" />
        <path
           inkscape:connector-curvature="0"
           id="path2247"
           d="M 68.07,67 73,69.14 a 1.85,1.85 0 1 0 1.46,-3.39 L 69.53,63.63 A 1.85,1.85 0 1 0 68.07,67 Z" />
        <path
           inkscape:connector-curvature="0"
           id="path2249"
           d="m 116.48,29.74 a 1.8537057,1.8537057 0 1 0 3.57,-1 l -1.39,-5.18 a 1.8537057,1.8537057 0 1 0 -3.57,1 z" />
        <path
           inkscape:connector-curvature="0"
           id="path2251"
           d="m 108.17,32.81 a 1.85,1.85 0 1 0 3.42,-1.41 l -2.05,-5 a 1.85,1.85 0 1 0 -3.42,1.41 z" />
        <path
           inkscape:connector-curvature="0"
           id="path2253"
           d="M 161.57,34 A 1.9,1.9 0 0 0 164,33 l 2.16,-5 a 1.8501081,1.8501081 0 1 0 -3.4,-1.46 l -2.13,4.92 a 1.89,1.89 0 0 0 0.94,2.54 z" />
        <path
           inkscape:connector-curvature="0"
           id="path2255"
           d="m 116.48,84.92 a 5.33,5.33 0 0 0 -5.32,5.32 v 6.19 a 5.325,5.325 0 0 0 10.65,0 v -6.19 a 5.33,5.33 0 0 0 -5.33,-5.32 z m 2.84,11.51 a 2.84,2.84 0 0 1 -5.68,0 v -6.19 a 2.84,2.84 0 0 1 5.68,0 z" />
        <path
           inkscape:connector-curvature="0"
           id="path2257"
           d="m 154.39,101.45 a 5.33,5.33 0 0 0 5.32,-5.32 v -6.19 a 5.325,5.325 0 0 0 -10.65,0 v 6.19 a 5.33,5.33 0 0 0 5.33,5.32 z m -2.84,-11.51 a 2.84,2.84 0 0 1 5.68,0 v 6.19 a 2.84,2.84 0 0 1 -5.68,0 z" />
        <path
           inkscape:connector-curvature="0"
           id="path2259"
           d="m 136.8,86 v 13.66 a 1.24,1.24 0 0 0 1.2,1.24 h 8.15 a 1.24,1.24 0 0 0 0,-2.48 h -6.91 v -4.76 h 5.56 v 0 a 1.24,1.24 0 0 0 0,-2.48 h -5.58 v -4 h 7 a 1.24,1.24 0 0 0 0,-2.48 H 138 a 1.24,1.24 0 0 0 -1.2,1.3 z" />
        <path
           inkscape:connector-curvature="0"
           id="path2261"
           d="m 133.38,100.86 a 1.24,1.24 0 0 0 1.14,0.74 1.23,1.23 0 0 0 0.5,-0.11 1.24,1.24 0 0 0 0.63,-1.64 l -3.31,-7.4 A 4.58,4.58 0 0 0 134.1,88.88 5.08,5.08 0 0 0 131.7,85.15 1.24,1.24 0 0 0 131,85 h -5.41 a 1.24,1.24 0 0 0 -1.24,1.24 V 101 a 1.24,1.24 0 1 0 2.48,0 V 93.3 H 130 Z m -6.51,-13.42 h 3.77 a 2.39,2.39 0 0 1 1,1.54 2.71,2.71 0 0 1 -1.22,1.86 h -3.53 z" />
        <path
           inkscape:connector-curvature="0"
           id="path2263"
           d="m 134.78,55.45 v 0 a 1.24,1.24 0 0 0 -1.23,1.25 v 4.72 h -11.1 a 1.24,1.24 0 1 0 0,2.48 h 11.14 v 3.74 h -15.38 a 1.24,1.24 0 0 0 0,2.48 h 15.42 v 3.5 a 40.92,40.92 0 0 0 -19.75,5.5 c -6,3.69 -9.28,8.66 -9.28,14 0,5.34 3.29,10.3 9.28,14 5.79,3.57 13.47,5.54 21.62,5.54 8.15,0 15.83,-2 21.62,-5.54 6,-3.69 9.28,-8.66 9.28,-14 0,-5.34 -3.29,-10.3 -9.27,-14 -5.65,-3.48 -13.09,-5.44 -21,-5.53 v -3.47 h 15.74 a 1.24,1.24 0 0 0 0,-2.48 H 136.1 V 63.9 h 11.67 a 1.24,1.24 0 0 0 0,-2.48 h -11.71 v -4.74 a 1.24,1.24 0 0 0 -1.28,-1.23 z m 29.16,37.67 c 0,4.44 -2.87,8.66 -8.1,11.88 -5.41,3.34 -12.62,5.17 -20.32,5.17 -7.7,0 -14.91,-1.84 -20.32,-5.17 -5.22,-3.22 -8.1,-7.44 -8.1,-11.88 0,-4.44 2.88,-8.66 8.1,-11.88 5.41,-3.33 12.62,-5.17 20.32,-5.17 7.7,0 14.91,1.84 20.32,5.17 5.23,3.22 8.1,7.44 8.1,11.88 z" />
        <path
           inkscape:connector-curvature="0"
           id="path2265"
           d="m 97.79,142.92 c 0.06,0.05 0.5,0.4 0.64,0.48 0.31,0.28 2.49,1.75 2.59,1.8 0.3,0.25 3.1,1.92 3.36,2 0.26,0.08 2.92,1.58 3.08,1.65 0.16,0.07 1.22,0.61 1.36,0.66 0.14,0.05 2.11,1 2.45,1.12 l 0.74,0.32 0.23,0.1 a 3.07,3.07 0 0 0 0.5,0.22 1.35,1.35 0 0 0 0.54,0.11 1.32,1.32 0 0 0 0.4,-2.58 2.38,2.38 0 0 0 -0.35,-0.12 l -0.33,-0.12 -2.34,-1 -1.54,-0.74 c 0,0 -2.27,-1.15 -2.5,-1.3 l -1.94,-1.12 -2.68,-1.63 -2.24,-1.62 c 0,0 -0.32,-0.26 -0.4,-0.31 a 1.32,1.32 0 1 0 -1.61,2.08 z" />
        <path
           inkscape:connector-curvature="0"
           id="path2267"
           d="m 79.53,120.16 c 0.14,0.37 1.66,3.18 1.88,3.5 0.22,0.32 2.38,3.89 2.72,4.33 0.34,0.44 2,2.9 2.44,3.39 v 0.06 0 a 1.34,1.34 0 0 0 0.21,0.28 1.32,1.32 0 1 0 2,-1.67 1.29,1.29 0 0 0 -0.21,-0.23 l -0.12,-0.14 c -2.17,-2.84 -2,-2.68 -2.13,-2.87 l -2.58,-4.06 -1.79,-3.32 -1.34,-3 a 1.28,1.28 0 0 0 -0.1,-0.24 1.24,1.24 0 0 0 -0.1,-0.24 1.32,1.32 0 1 0 -2.43,1 c 0.22,0.4 1.37,2.92 1.55,3.21 z" />
        <path
           inkscape:connector-curvature="0"
           id="path2269"
           d="m 196.65,102.42 a 1.35,1.35 0 0 0 0.21,-0.66 1.37,1.37 0 0 0 0,-0.27 c 0,-0.1 0.06,-0.48 0.06,-0.54 0.09,-0.4 0.34,-3.75 0.34,-5.06 0,-0.42 0,-0.21 0,-2.12 0,-0.36 0,-0.72 0,-0.9 0,-1.27 -0.25,-5 -0.33,-5.45 0,-0.23 -0.21,-2 -0.25,-2.27 0,0 0,-0.15 0,-0.19 v 0 a 1.3,1.3 0 0 0 0,-0.31 1.3513789,1.3513789 0 1 0 -2.68,0.35 1.51,1.51 0 0 0 0.06,0.32 v 0.18 0.08 c 0.26,1.92 0.25,1.92 0.25,1.92 0,0 0.32,3.18 0.32,5.12 0,0.09 0,0 0,0.22 0,2.78 0,2.78 0,2.78 0,2.08 -0.44,5.49 -0.44,5.49 a 1.72,1.72 0 0 0 0,0.25 1.39,1.39 0 0 0 0,0.32 1.32,1.32 0 0 0 2.44,0.71 z" />
        <path
           inkscape:connector-curvature="0"
           id="path2271"
           d="m 133,154.12 c 0.53,0 0.53,0 2.64,0 2.36,0 5.25,-0.2 5.35,-0.22 0.1,-0.02 2.55,-0.21 2.93,-0.28 l 0.85,-0.1 a 3.48,3.48 0 0 0 0.49,-0.05 h 0.23 a 1.32,1.32 0 0 0 1,-1.27 1.13,1.13 0 0 0 0,-0.35 1.32,1.32 0 0 0 -1.27,-1 1.4,1.4 0 0 0 -0.28,0 h -0.24 c -0.77,0.21 -4.17,0.49 -4.17,0.49 -0.5,0 -1,0.16 -5,0.16 -1,0 -1.15,0 -1.27,0 l -5.41,-0.44 a 5.2,5.2 0 0 0 -0.57,-0.08 1.325,1.325 0 0 0 0,2.65 5.11,5.11 0 0 0 0.54,0.07 c 0.28,0.17 3.57,0.42 4.18,0.42 z" />
        <path
           inkscape:connector-curvature="0"
           id="path2273"
           d="m 191.91,68.84 c -0.06,-0.17 -0.46,-1.06 -0.55,-1.21 -0.09,-0.15 -1.19,-2.41 -1.27,-2.52 -0.18,-0.43 -2.11,-3.73 -2.36,-4.06 0,-0.05 -0.76,-1.22 -0.9,-1.39 -0.14,-0.17 -1.84,-2.7 -2.07,-3 -0.06,-0.08 -0.47,-0.65 -0.59,-0.8 l -0.26,-0.34 a 3.25,3.25 0 0 0 -0.32,-0.44 1.32,1.32 0 1 0 -2,1.67 2.61,2.61 0 0 0 0.24,0.27 l 0.22,0.27 0.85,1.1 1.75,2.49 3.1,5.19 1.71,3.55 c 0,0.14 0.26,0.63 0.29,0.7 0.03,0.07 0.14,0.38 0.19,0.47 a 1.32,1.32 0 1 0 2.43,-1 c -0.1,-0.17 -0.37,-0.86 -0.46,-0.95 z" />
        <path
           inkscape:connector-curvature="0"
           id="path2275"
           d="m 112.7,37.35 a 1.3,1.3 0 0 0 -0.62,0.16 c -0.13,0 -1,0.4 -1.23,0.53 -0.23,0.13 -1.62,0.75 -1.67,0.78 -0.22,0.08 -1.67,0.83 -1.82,0.93 -0.15,0.1 -1.68,0.9 -1.91,1.06 -0.06,0 -0.5,0.27 -0.61,0.36 -0.11,0.09 -1.34,0.79 -1.53,0.93 -0.19,0.14 -2.37,1.54 -2.49,1.63 -0.12,0.09 -1.06,0.72 -1.21,0.85 -0.15,0.13 -1,0.68 -1.25,0.91 l -0.58,0.44 a 3.32,3.32 0 0 0 -0.43,0.32 1.32,1.32 0 1 0 1.66,2 l 0.55,-0.47 0.61,-0.48 1.68,-1.23 1.78,-1.2 c 0.14,-0.08 1,-0.63 1,-0.65 0.22,-0.11 2.59,-1.51 2.66,-1.56 l 1.71,-0.86 0.22,-0.11 2.23,-1.06 c 0,0 1,-0.41 1.16,-0.5 l 0.24,-0.1 0.24,-0.1 a 1.32,1.32 0 0 0 -0.37,-2.6 z" />
        <path
           inkscape:connector-curvature="0"
           id="path2277"
           d="m 75,102.58 a 1.32,1.32 0 0 0 2.63,-0.14 1.37,1.37 0 0 0 0,-0.29 1.34,1.34 0 0 0 -0.06,-0.29 v -0.11 c -0.5,-3.8 -0.39,-3.48 -0.44,-3.81 0,0 0,-0.28 0,-0.35 l -0.16,-5 c 0,-0.16 0,-1.1 0,-1.15 l 0.48,-5.66 a 1.28,1.28 0 0 0 0,-0.32 1.32,1.32 0 0 0 -2.45,-0.68 1.3,1.3 0 0 0 -0.21,0.67 1.25,1.25 0 0 0 0,0.27 57.6,57.6 0 0 0 -0.41,5.83 c 0,0.3 0,0.61 0,0.83 0,0.6 0,0.53 0,0.67 0,1.24 0.13,4.43 0.2,4.9 0,0.17 0.18,2.42 0.41,4.2 v 0.12 a 1.33,1.33 0 0 0 0.01,0.31 z" />
        <path
           inkscape:connector-curvature="0"
           id="path2279"
           d="m 184.2,131.54 a 1.33,1.33 0 0 0 1.12,-0.62 1.47,1.47 0 0 0 0.17,-0.22 c 0.21,-0.23 1.35,-1.86 1.4,-1.94 0.23,-0.27 1.77,-2.67 1.92,-3 0.15,-0.33 2.21,-3.87 2.4,-4.34 0,-0.08 1.11,-2.23 1.26,-2.59 0.11,-0.21 0.86,-1.92 0.95,-2.13 0.09,-0.21 0.29,-0.65 0.31,-0.72 a 1.29,1.29 0 0 0 0.11,-0.54 1.32,1.32 0 0 0 -2.58,-0.41 1.28,1.28 0 0 0 -0.1,0.31 l -0.07,0.19 c -0.54,1.37 -1,2.45 -1.07,2.52 -0.14,0.25 -1,2 -1.26,2.58 l -2.14,3.81 -2.16,3.25 c 0,0 -1,1.33 -1.05,1.41 a 1.16,1.16 0 0 0 -0.16,0.2 1.32,1.32 0 0 0 1,2.24 z" />
        <path
           inkscape:connector-curvature="0"
           id="path2281"
           d="m 158.58,150 a 1.29,1.29 0 0 0 0.62,-0.16 5.22,5.22 0 0 0 0.5,-0.21 c 0.44,-0.14 3.78,-1.75 4.22,-2 0.44,-0.25 4.3,-2.44 4.78,-2.81 0.33,-0.18 3,-2 3.12,-2.12 0.12,-0.12 1.25,-0.9 1.43,-1 l 0.42,-0.32 v 0 a 1.37,1.37 0 0 0 0.27,-0.2 l 0.17,-0.15 a 1.3225922,1.3225922 0 0 0 -1.83,-1.91 1.44,1.44 0 0 0 -0.19,0.16 l -0.12,0.12 -0.38,0.3 -1.18,0.9 -3.27,2.23 -4.43,2.56 -4,1.89 c -0.1,0 -0.43,0.17 -0.47,0.19 a 1.32,1.32 0 0 0 0.36,2.6 z" />
        <path
           inkscape:connector-curvature="0"
           id="path2283"
           d="m 173,45.5 a 1.47,1.47 0 0 0 -0.22,-0.17 c -0.06,-0.05 -0.51,-0.4 -0.64,-0.48 -0.13,-0.08 -1.84,-1.33 -2.16,-1.5 -0.32,-0.17 -3.06,-1.9 -3.18,-2 -0.31,-0.21 -3.12,-1.71 -3.3,-1.78 -0.18,-0.07 -1.49,-0.74 -1.54,-0.76 -0.05,-0.02 -1.32,-0.62 -1.47,-0.68 -0.15,-0.06 -0.78,-0.36 -1,-0.43 l -0.89,-0.38 -0.57,-0.25 a 1.33,1.33 0 0 0 -1.49,0.28 1.31,1.31 0 0 0 0,1.86 1.35,1.35 0 0 0 0.51,0.31 4.18,4.18 0 0 0 0.49,0.17 l 1.24,0.5 1.59,0.71 1.59,0.77 2.35,1.33 5,3.11 1.22,0.89 c 0.11,0.1 0.54,0.42 0.6,0.46 a 1.55,1.55 0 0 0 1.06,0.52 h 0.06 a 1.32,1.32 0 0 0 1.32,-1.26 V 46.66 A 1.32,1.32 0 0 0 173,45.5 Z" />
        <path
           inkscape:connector-curvature="0"
           id="path2285"
           d="m 88.2,55.66 a 1.47,1.47 0 0 0 -1.29,0.84 c -0.15,0.16 -0.59,0.77 -0.64,0.87 -0.27,0.31 -2,3 -2.16,3.22 -0.16,0.22 -1.74,2.94 -1.82,3.1 -0.22,0.33 -1.71,3.24 -1.86,3.62 -0.06,0.1 -1.17,2.46 -1.57,3.48 a 2.47,2.47 0 0 0 -0.19,0.44 1.3214102,1.3214102 0 1 0 2.47,0.94 c 0,-0.06 0.09,-0.25 0.22,-0.62 l 0.19,-0.49 1.65,-3.63 1.43,-2.71 1.53,-2.56 2.38,-3.46 c 0.09,-0.1 0.54,-0.69 0.62,-0.8 a 1.32,1.32 0 0 0 -1,-2.24 z" />
        <path
           inkscape:connector-curvature="0"
           id="path2287"
           d="m 139.58,33.32 c -0.26,0 -2.37,-0.09 -2.64,-0.09 h -1.86 c 0,0 -1.71,0 -1.89,0.06 -0.18,0.06 -2.76,0.15 -3.06,0.19 -0.3,0.04 -2,0.19 -2.28,0.22 l -0.71,0.08 h -0.07 -0.16 l -0.6,0.07 a 1.32,1.32 0 0 0 0.2,2.63 3.78,3.78 0 0 0 0.71,-0.11 l 0.53,-0.08 h 0.11 l 0.76,-0.1 h 0.13 c 0.26,0 1.08,-0.11 1.12,-0.12 H 130 l 2.27,-0.17 c 0.1,0 1.72,-0.09 3,-0.09 h 1.25 l 2.08,0.07 c 0.53,0 2.7,0.21 2.76,0.21 0.06,0 1.5,0.18 1.5,0.18 h 0.26 a 1.32,1.32 0 1 0 0.41,-2.6 c -0.12,0 -0.47,-0.07 -0.58,-0.07 -0.29,-0.06 -3.03,-0.28 -3.37,-0.28 z" />
        <circle
           id="circle2289"
           transform="rotate(-57.42,90.804181,119.6575)"
           r="1.3200001"
           cy="119.66"
           cx="90.800003" />
        <circle
           id="circle2291"
           transform="rotate(-57.51,84.481281,93.791755)"
           r="1.3200001"
           cy="93.790001"
           cx="84.470001" />
        <circle
           id="circle2293"
           transform="rotate(-57.51,194.09808,107.7053)"
           r="1.3200001"
           cy="107.71"
           cx="194.09" />
        <circle
           id="circle2295"
           transform="rotate(-57.51,192.72939,76.47358)"
           r="1.3200001"
           cy="76.480003"
           cx="192.72" />
        <circle
           id="circle2297"
           transform="rotate(-57.42,180.52302,135.34312)"
           r="1.3200001"
           cy="135.34"
           cx="180.50999" />
        <circle
           id="circle2299"
           r="1.3200001"
           cy="105.46"
           cx="90.379997" />
        <circle
           id="circle2301"
           r="1.3200001"
           cy="61.200001"
           cx="102.1" />
        <circle
           id="circle2303"
           r="1.3200001"
           cy="81.879997"
           cx="90.860001" />
        <circle
           id="circle2305"
           r="1.3200001"
           cy="49.779999"
           cx="122.67" />
        <circle
           id="circle2307"
           r="1.3200001"
           cy="49.830002"
           cx="146.06" />
        <circle
           id="circle2309"
           r="1.3200001"
           cy="60.830002"
           cx="167.14999" />
        <circle
           id="circle2311"
           r="1.3200001"
           cy="124.29"
           cx="168.27" />
        <circle
           id="circle2313"
           r="1.3200001"
           cy="104.03"
           cx="179.33" />
        <circle
           id="circle2315"
           r="1.3200001"
           cy="137.5"
           cx="123.75" />
        <circle
           id="circle2317"
           r="1.3200001"
           cy="125.79"
           cx="102.23" />
        <circle
           id="circle2319"
           r="1.3200001"
           cy="136.64"
           cx="147.47" />
        <circle
           id="circle2321"
           r="1.3200001"
           cy="80.889999"
           cx="179.12" />
        <circle
           id="circle2323"
           r="1.3200001"
           cy="49.52"
           cx="160.14" />
        <circle
           id="circle2325"
           r="1.3200001"
           cy="75.650002"
           cx="103.69" />
        <circle
           id="circle2327"
           r="1.3200001"
           cy="74.980003"
           cx="167.05" />
        <circle
           id="circle2329"
           r="1.3200001"
           cy="93.650002"
           cx="99.400002" />
        <circle
           id="circle2331"
           r="1.3200001"
           cy="111.57"
           cx="103.51" />
        <circle
           id="circle2333"
           r="1.3200001"
           cy="124.63"
           cx="117.21" />
        <circle
           id="circle2335"
           r="1.3200001"
           cy="129.99001"
           cx="135.64999" />
        <circle
           id="circle2337"
           r="1.3200001"
           cy="124.19"
           cx="154.16" />
        <circle
           id="circle2339"
           r="1.3200001"
           cy="110.87"
           cx="167.12" />
        <circle
           id="circle2341"
           r="1.3200001"
           cy="92.779999"
           cx="171.91" />
        <circle
           id="circle2343"
           r="1.3200001"
           cy="92.400002"
           cx="186.49001" />
        <circle
           id="circle2345"
           r="1.3200001"
           cy="78.220001"
           cx="77.470001" />
        <circle
           id="circle2347"
           r="1.3200001"
           cy="51.209999"
           cx="92.169998" />
        <circle
           id="circle2349"
           r="1.3200001"
           cy="36.529999"
           cx="119.33" />
        <circle
           id="circle2351"
           r="1.3200001"
           cy="36.080002"
           cx="149.8" />
        <circle
           id="circle2353"
           r="1.3200001"
           cy="51.139999"
           cx="176.96001" />
        <circle
           id="circle2355"
           r="1.3200001"
           cy="117.96"
           cx="180.45" />
        <circle
           id="circle2357"
           r="1.3200001"
           cy="136.7"
           cx="161.7" />
        <circle
           id="circle2359"
           r="1.3200001"
           cy="150.81"
           cx="152.66" />
        <circle
           id="circle2361"
           r="1.3200001"
           cy="151.64"
           cx="119.83" />
        <circle
           id="circle2363"
           r="1.3200001"
           cy="143.60001"
           cx="136.09" />
        <circle
           id="circle2365"
           r="1.3200001"
           cy="137.63"
           cx="109.92" />
        <circle
           id="circle2367"
           r="1.3200001"
           cy="136.75"
           cx="92.230003" />
        <circle
           id="circle2369"
           r="1.3200001"
           cy="68.93"
           cx="91.110001" />
        <circle
           id="circle2371"
           r="1.3200001"
           cy="50.02"
           cx="108.8" />
        <circle
           id="circle2373"
           r="1.3200001"
           cy="41.759998"
           cx="134.03999" />
        <circle
           id="circle2375"
           r="1.3200001"
           cy="109.2"
           cx="76.839996" />
      </g>
      <path
         style="fill:#997b6d"
         inkscape:connector-curvature="0"
         id="path2379"
         d="m 101.87,115.69 0.2,6.06 a 2.22,2.22 0 0 0 2.27,2.11 l 6.07,-0.15 c 1.11,0.07 1.9,-1.75 0.14,-2.47 0,0 -4.9,-1 -6,-5.45 l -0.09,-0.36 c -0.79,-1.83 -2.62,-0.93 -2.59,0.26 z"
         class="cls-7" />
      <path
         style="fill:#997b6d"
         inkscape:connector-curvature="0"
         id="path2381"
         d="m 92.1,121.44 -0.36,0.09 c -1.84,0.8 -0.93,2.63 0.25,2.59 l 6.07,-0.2 a 2.21,2.21 0 0 0 2.11,-2.26 l -0.15,-6.06 c 0.07,-1.11 -1.75,-1.9 -2.47,-0.14 0,-0.01 -0.96,4.88 -5.45,5.98 z"
         class="cls-7" />
      <path
         style="fill:#997b6d"
         inkscape:connector-curvature="0"
         id="path2383"
         d="m 97.86,61.31 -6.07,0.15 c -1.11,-0.07 -1.9,1.75 -0.14,2.47 0,0 4.9,1 6,5.45 l 0.09,0.36 c 0.8,1.83 2.63,0.93 2.59,-0.26 l -0.2,-6.06 a 2.21,2.21 0 0 0 -2.27,-2.11 z"
         class="cls-7" />
      <path
         style="fill:#997b6d"
         inkscape:connector-curvature="0"
         id="path2385"
         d="m 107.76,71 -2.36,4.25 c -0.5,0.76 0.58,1.64 1.85,0.55 a 18.37,18.37 0 0 1 6.66,-3.18 h 0.31 c 1.74,-0.22 1.8,-1.66 0.86,-1.85 l -4.76,-1 A 2.55,2.55 0 0 0 107.76,71 Z"
         class="cls-7" />
      <path
         style="fill:#997b6d"
         inkscape:connector-curvature="0"
         id="path2387"
         d="m 92.61,105.12 5.3,3 c 0.92,0.62 2.52,-0.54 1.38,-2 0,0 -3.72,-3.33 -2.38,-7.74 l 0.11,-0.35 c 0.25,-2 -1.79,-2.14 -2.36,-1.1 l -2.92,5.32 a 2.21,2.21 0 0 0 0.87,2.87 z"
         class="cls-7" />
      <path
         style="fill:#997b6d"
         inkscape:connector-curvature="0"
         id="path2389"
         d="m 130.08,130.89 c 1,-0.51 0.74,-2.47 -1.14,-2.19 0,0 -4.71,1.68 -7.95,-1.61 l -0.26,-0.26 c -1.63,-1.17 -2.74,0.55 -2.1,1.55 l 3.28,5.11 a 2.22,2.22 0 0 0 3,0.65 z"
         class="cls-7" />
      <path
         style="fill:#997b6d"
         inkscape:connector-curvature="0"
         id="path2391"
         d="m 92.39,83 3.24,5.13 c 0.51,1 2.47,0.73 2.19,-1.14 0,0 -1.68,-4.7 1.62,-7.94 l 0.26,-0.26 c 1.17,-1.63 -0.55,-2.74 -1.55,-2.1 L 93,80 a 2.21,2.21 0 0 0 -0.61,3 z"
         class="cls-7" />
      <path
         style="fill:#997b6d"
         inkscape:connector-curvature="0"
         id="path2393"
         d="m 117.25,113.42 a 18.37,18.37 0 0 1 -6.81,-2.83 l -0.2,-0.24 c -1.33,-1.15 -2.44,-0.22 -2,0.6 l 2.45,4.19 a 2.56,2.56 0 0 0 2.59,1.1 l 4.75,-1.08 c 0.97,-0.16 0.89,-1.52 -0.78,-1.74 z"
         class="cls-7" />
      <path
         style="fill:#997b6d"
         inkscape:connector-curvature="0"
         id="path2395"
         d="m 110.76,128 c 1.83,-0.8 0.93,-2.63 -0.26,-2.59 l -6.07,0.2 a 2.21,2.21 0 0 0 -2.11,2.27 l 0.15,6.07 c -0.07,1.11 1.75,1.9 2.47,0.14 0,0 1,-4.9 5.46,-6 z"
         class="cls-7" />
      <path
         style="fill:#997b6d"
         inkscape:connector-curvature="0"
         id="path2397"
         d="m 110.38,60.84 -6.07,0.2 a 2.21,2.21 0 0 0 -2.11,2.27 l 0.15,6.06 c -0.07,1.11 1.75,1.9 2.47,0.14 0,0 1,-4.9 5.46,-6 l 0.36,-0.09 c 1.83,-0.79 0.93,-2.61 -0.26,-2.58 z"
         class="cls-7" />
      <path
         style="fill:#997b6d"
         inkscape:connector-curvature="0"
         id="path2399"
         d="m 126.24,119.5 a 2.56,2.56 0 0 0 -2.46,-1.37 l -4.84,0.57 c -0.91,0 -1,1.42 0.63,1.82 a 18.29,18.29 0 0 1 6.47,3.54 l 0.18,0.25 c 1.2,1.28 2.4,0.48 2,-0.39 z"
         class="cls-7" />
      <path
         style="fill:#997b6d"
         inkscape:connector-curvature="0"
         id="path2401"
         d="m 81.73,111 c -0.25,2 1.79,2.14 2.36,1.1 L 87,106.76 a 2.21,2.21 0 0 0 -0.88,-3 l -5.3,-3 c -0.92,-0.62 -2.52,0.54 -1.38,2 0,0 3.72,3.33 2.38,7.74 z"
         class="cls-7" />
      <path
         style="fill:#997b6d"
         inkscape:connector-curvature="0"
         id="path2403"
         d="m 91.07,94.67 c 0,0 -3.33,3.71 -7.75,2.33 L 83,96.93 c -2,-0.25 -2.14,1.79 -1.1,2.36 l 5.32,2.92 a 2.22,2.22 0 0 0 3,-0.88 l 3,-5.29 c 0.53,-0.91 -0.63,-2.52 -2.15,-1.37 z"
         class="cls-7" />
      <path
         style="fill:#997b6d"
         inkscape:connector-curvature="0"
         id="path2405"
         d="m 104.43,51.21 -0.09,-0.36 c -0.8,-1.84 -2.63,-0.93 -2.6,0.25 l 0.2,6.06 a 2.21,2.21 0 0 0 2.27,2.1 l 6.07,-0.15 c 1.11,0.07 1.9,-1.75 0.14,-2.47 0.01,0.02 -4.89,-0.95 -5.99,-5.43 z"
         class="cls-7" />
      <path
         style="fill:#997b6d"
         inkscape:connector-curvature="0"
         id="path2407"
         d="m 82.5,86.72 c -1,0.51 -0.74,2.47 1.14,2.19 0,0 4.71,-1.68 7.95,1.61 l 0.26,0.26 c 1.63,1.17 2.74,-0.55 2.1,-1.55 l -3.28,-5.11 a 2.22,2.22 0 0 0 -3,-0.65 z"
         class="cls-7" />
      <path
         style="fill:#997b6d"
         inkscape:connector-curvature="0"
         id="path2409"
         d="m 120.15,58.68 c 0,0 3.32,-3.73 7.75,-2.39 l 0.35,0.11 c 2,0.24 2.14,-1.79 1.1,-2.36 L 124,51.12 A 2.22,2.22 0 0 0 121,52 l -3,5.3 c -0.52,0.92 0.64,2.52 2.15,1.38 z"
         class="cls-7" />
      <path
         style="fill:#997b6d"
         inkscape:connector-curvature="0"
         id="path2411"
         d="m 80,82.94 c -1.17,1.63 0.55,2.74 1.55,2.1 l 5.11,-3.27 a 2.21,2.21 0 0 0 0.65,-3 L 84.1,73.6 c -0.51,-1 -2.47,-0.73 -2.19,1.14 0,0 1.68,4.7 -1.62,7.94 z"
         class="cls-7" />
      <path
         style="fill:#997b6d"
         inkscape:connector-curvature="0"
         id="path2413"
         d="m 187,50.82 a 1.85,1.85 0 1 0 2.23,2.94 l 4.28,-3.23 a 1.85,1.85 0 1 0 -2.23,-2.95 z"
         class="cls-7" />
      <path
         style="fill:#997b6d"
         inkscape:connector-curvature="0"
         id="path2415"
         d="m 181.1,47.13 a 1.9,1.9 0 0 0 2.68,0 l 3.84,-3.75 A 1.873953,1.873953 0 1 0 185,40.7 l -3.84,3.75 a 1.89,1.89 0 0 0 -0.06,2.68 z"
         class="cls-7" />
      <path
         style="fill:#997b6d"
         inkscape:connector-curvature="0"
         id="path2417"
         d="m 111.65,47.18 c 0,0 3.73,3.32 2.39,7.74 l -0.11,0.35 c -0.24,2 1.79,2.14 2.37,1.1 L 119.22,51 a 2.21,2.21 0 0 0 -0.88,-3 l -5.31,-3 c -0.92,-0.5 -2.52,0.67 -1.38,2.18 z"
         class="cls-7" />
      <path
         style="fill:#997b6d"
         inkscape:connector-curvature="0"
         id="path2419"
         d="m 192,57.9 a 1.85,1.85 0 1 0 1.84,3.2 l 4.66,-2.67 a 1.85,1.85 0 1 0 -1.84,-3.2 z"
         class="cls-7" />
      <path
         style="fill:#997b6d"
         inkscape:connector-curvature="0"
         id="path2421"
         d="m 168,36.83 a 1.9,1.9 0 0 0 2.58,-0.72 l 2.75,-4.6 a 1.85,1.85 0 1 0 -3.17,-1.9 l -2.75,4.6 a 1.89,1.89 0 0 0 0.59,2.62 z"
         class="cls-7" />
      <path
         style="fill:#997b6d"
         inkscape:connector-curvature="0"
         id="path2423"
         d="m 174.9,41.56 a 1.9,1.9 0 0 0 2.65,-0.38 L 180.88,37 a 1.85,1.85 0 1 0 -2.9,-2.29 l -3.32,4.21 a 1.89,1.89 0 0 0 0.24,2.64 z"
         class="cls-7" />
      <path
         style="fill:#997b6d"
         inkscape:connector-curvature="0"
         id="path2425"
         d="m 95.51,112.13 0.35,0.11 c 2,0.25 2.14,-1.79 1.1,-2.36 L 91.64,107 a 2.22,2.22 0 0 0 -3,0.88 l -3,5.29 c -0.62,0.92 0.54,2.52 2.05,1.38 0.07,-0.05 3.4,-3.76 7.82,-2.42 z"
         class="cls-7" />
      <path
         style="fill:#997b6d"
         inkscape:connector-curvature="0"
         id="path2427"
         d="m 87.84,71.2 c -1.63,-1.16 -2.74,0.55 -2.1,1.55 l 3.26,5.1 a 2.22,2.22 0 0 0 3,0.65 l 5.14,-3.23 c 1,-0.51 0.74,-2.47 -1.14,-2.19 0,0 -4.71,1.68 -7.95,-1.61 z"
         class="cls-7" />
      <path
         style="fill:#997b6d"
         inkscape:connector-curvature="0"
         id="path2429"
         d="m 92,56.85 -0.36,0.09 c -1.83,0.8 -0.93,2.63 0.26,2.59 l 6.07,-0.2 A 2.21,2.21 0 0 0 100,57.07 L 99.9,51 c 0.07,-1.11 -1.75,-1.89 -2.47,-0.14 0,0 -0.97,4.9 -5.43,5.99 z"
         class="cls-7" />
      <path
         style="fill:#997b6d"
         inkscape:connector-curvature="0"
         id="path2431"
         d="m 97.77,134 0.09,0.36 c 0.8,1.83 2.63,0.93 2.59,-0.26 l -0.2,-6.06 A 2.21,2.21 0 0 0 98,125.89 l -6.07,0.15 c -1.11,-0.07 -1.9,1.75 -0.14,2.47 -0.02,0 4.89,0.96 5.98,5.49 z"
         class="cls-7" />
      <path
         style="fill:#997b6d"
         inkscape:connector-curvature="0"
         id="path2433"
         d="m 176.8,126.53 c 1.84,-0.8 0.93,-2.63 -0.25,-2.59 l -6.07,0.2 a 2.21,2.21 0 0 0 -2.11,2.27 l 0.15,6.06 c -0.07,1.11 1.75,1.89 2.47,0.14 0,0 1,-4.9 5.46,-6 z"
         class="cls-7" />
      <path
         style="fill:#997b6d"
         inkscape:connector-curvature="0"
         id="path2435"
         d="m 156.32,137.31 c 0,0 -3.73,-3.32 -2.4,-7.74 l 0.11,-0.35 c 0.24,-2 -1.79,-2.14 -2.37,-1.1 l -2.91,5.32 a 2.21,2.21 0 0 0 0.88,3 l 5.31,3 c 0.93,0.56 2.53,-0.62 1.38,-2.13 z"
         class="cls-7" />
      <path
         style="fill:#997b6d"
         inkscape:connector-curvature="0"
         id="path2437"
         d="m 114.47,140.66 5.11,-3.28 a 2.21,2.21 0 0 0 0.65,-3 L 117,129.23 c -0.51,-1 -2.47,-0.73 -2.19,1.14 0,0 1.68,4.7 -1.62,7.94 l -0.26,0.26 c -1.17,1.62 0.54,2.73 1.54,2.09 z"
         class="cls-7" />
      <path
         style="fill:#997b6d"
         inkscape:connector-curvature="0"
         id="path2439"
         d="m 135.8,125.16 c 0,0 3.64,-6.53 7,-8.49 0,0 1.4,-1.26 -0.47,-1.07 l -1.64,-0.19 c 0,0 -0.93,-0.19 -1.82,1.21 a 8.83,8.83 0 0 0 -1,1.91 c 0,0 -2,-2.85 -3.08,-3 h -0.05 c -1.08,0.19 -3.08,3 -3.08,3 a 9,9 0 0 0 -1,-1.91 c -0.89,-1.4 -1.82,-1.21 -1.82,-1.21 l -1.63,0.19 c -1.87,-0.19 -0.47,1.07 -0.47,1.07 3.37,2 7,8.49 7,8.49 0,0 0.76,2.3 2.06,0 z m -1,-8.65 c 0.37,0 0.67,1 0.67,2.31 0,1.31 -0.3,2.31 -0.67,2.31 -0.37,0 -0.67,-1 -0.67,-2.31 0,-1.31 0.27,-2.31 0.64,-2.31 z"
         class="cls-7" />
      <path
         style="fill:#997b6d"
         inkscape:connector-curvature="0"
         id="path2441"
         d="m 129.24,42.36 c 0.24,-2 -1.79,-2.14 -2.37,-1.1 L 124,46.58 a 2.21,2.21 0 0 0 0.88,3 l 5.31,3 c 0.92,0.62 2.52,-0.54 1.38,-2.05 0,0 -3.73,-3.32 -2.39,-7.74 z"
         class="cls-7" />
      <path
         style="fill:#997b6d"
         inkscape:connector-curvature="0"
         id="path2443"
         d="m 115.17,41.15 c -2,-0.24 -2.14,1.79 -1.1,2.36 l 5.33,2.91 a 2.22,2.22 0 0 0 3,-0.88 l 3,-5.3 c 0.62,-0.92 -0.54,-2.52 -2.05,-1.37 0,0 -3.33,3.73 -7.75,2.39 z"
         class="cls-7" />
      <path
         style="fill:#997b6d"
         inkscape:connector-curvature="0"
         id="path2445"
         d="m 124.74,146.41 c 1.63,1.17 2.74,-0.54 2.1,-1.54 l -3.28,-5.11 a 2.22,2.22 0 0 0 -3,-0.65 l -5.14,3.23 c -1,0.51 -0.73,2.47 1.14,2.19 0,0 4.71,-1.68 7.95,1.61 z"
         class="cls-7" />
      <path
         style="fill:#997b6d"
         inkscape:connector-curvature="0"
         id="path2447"
         d="m 132.59,134.41 c 1.17,-1.63 -0.55,-2.74 -1.55,-2.1 l -5.11,3.27 a 2.21,2.21 0 0 0 -0.65,3 l 3.24,5.13 c 0.51,1 2.47,0.74 2.19,-1.14 0,0 -1.68,-4.7 1.62,-7.94 z"
         class="cls-7" />
      <path
         style="fill:#997b6d"
         inkscape:connector-curvature="0"
         id="path2449"
         d="m 138.74,142.13 c -0.24,2 1.79,2.14 2.37,1.1 L 144,137.9 a 2.21,2.21 0 0 0 -0.88,-3 l -5.31,-3 c -0.92,-0.62 -2.52,0.54 -1.38,2.05 0,0 3.73,3.32 2.4,7.74 z"
         class="cls-7" />
      <path
         style="fill:#997b6d"
         inkscape:connector-curvature="0"
         id="path2451"
         d="M 154.15,140.89 148.82,138 a 2.22,2.22 0 0 0 -3,0.88 l -3,5.3 c -0.62,0.92 0.54,2.52 2.06,1.38 0,0 3.32,-3.73 7.75,-2.39 l 0.35,0.11 c 2.02,0.22 2.21,-1.82 1.17,-2.39 z"
         class="cls-7" />
      <path
         style="fill:#997b6d"
         inkscape:connector-curvature="0"
         id="path2453"
         d="m 188.16,100.94 c 1.17,-1.63 -0.55,-2.74 -1.55,-2.1 l -5.11,3.28 a 2.21,2.21 0 0 0 -0.65,3 l 3.24,5.13 c 0.51,1 2.47,0.73 2.19,-1.14 0,0 -1.68,-4.7 1.62,-7.94 z"
         class="cls-7" />
      <path
         style="fill:#997b6d"
         inkscape:connector-curvature="0"
         id="path2455"
         d="m 143.57,39.36 -0.25,-0.27 c -1.59,-1.21 -2.75,0.47 -2.14,1.49 l 3.13,5.2 a 2.22,2.22 0 0 0 3,0.73 l 5.23,-3.08 c 1,-0.48 0.8,-2.45 -1.08,-2.22 0.01,-0.01 -4.75,1.54 -7.89,-1.85 z"
         class="cls-7" />
      <path
         style="fill:#997b6d"
         inkscape:connector-curvature="0"
         id="path2457"
         d="m 132.51,77.36 -5.57,2.81 c -1.1,0.47 -0.26,1.72 2,1.29 a 36.12,36.12 0 0 1 10.38,0 l 0.39,0.14 c 2.35,0.55 3.28,-0.72 2.21,-1.3 l -5.48,-2.93 a 4.86,4.86 0 0 0 -3.93,-0.01 z"
         class="cls-7" />
      <path
         style="fill:#997b6d"
         inkscape:connector-curvature="0"
         id="path2459"
         d="m 135.44,50.36 -0.27,0.25 c -1.21,1.59 0.47,2.75 1.49,2.14 l 5.2,-3.13 a 2.21,2.21 0 0 0 0.73,-3 L 139.5,41.4 c -0.48,-1 -2.45,-0.81 -2.23,1.08 0.01,-0.01 1.56,4.74 -1.83,7.88 z"
         class="cls-7" />
      <path
         style="fill:#997b6d"
         inkscape:connector-curvature="0"
         id="path2461"
         d="M 207.33,92 H 202 a 1.85,1.85 0 1 0 0,3.69 h 5.37 a 1.85,1.85 0 1 0 0,-3.69 z"
         class="cls-7" />
      <path
         style="fill:#997b6d"
         inkscape:connector-curvature="0"
         id="path2463"
         d="m 206.44,82 -5.32,0.71 a 1.85,1.85 0 1 0 0.48,3.66 l 5.32,-0.71 A 1.85,1.85 0 1 0 206.43,82 Z"
         class="cls-7" />
      <path
         style="fill:#997b6d"
         inkscape:connector-curvature="0"
         id="path2465"
         d="m 204.29,72.55 -5.18,1.39 a 1.8537057,1.8537057 0 1 0 1,3.57 l 5.18,-1.39 a 1.8537057,1.8537057 0 1 0 -1,-3.57 z"
         class="cls-7" />
      <path
         style="fill:#997b6d"
         inkscape:connector-curvature="0"
         id="path2467"
         d="m 196,65.64 a 1.85,1.85 0 1 0 1.41,3.41 l 5,-2 A 1.8681341,1.8681341 0 1 0 201,63.59 Z"
         class="cls-7" />
      <path
         style="fill:#997b6d"
         inkscape:connector-curvature="0"
         id="path2469"
         d="m 182.41,111.39 -3.28,-5.11 a 2.22,2.22 0 0 0 -3,-0.65 l -5.13,3.25 c -1,0.51 -0.74,2.47 1.14,2.19 0,0 4.71,-1.68 7.95,1.61 l 0.26,0.26 c 1.59,1.17 2.7,-0.55 2.06,-1.55 z"
         class="cls-7" />
      <path
         style="fill:#997b6d"
         inkscape:connector-curvature="0"
         id="path2471"
         d="m 185.65,97.41 c 1,-0.51 0.73,-2.47 -1.14,-2.19 0,0 -4.71,1.68 -7.95,-1.61 l -0.26,-0.26 c -1.63,-1.17 -2.74,0.55 -2.1,1.55 l 3.28,5.11 a 2.21,2.21 0 0 0 3,0.65 z"
         class="cls-7" />
      <path
         style="fill:#997b6d"
         inkscape:connector-curvature="0"
         id="path2473"
         d="m 170.38,122.36 6.07,-0.15 c 1.11,0.07 1.9,-1.75 0.14,-2.46 0,0 -4.9,-1 -6,-5.45 l -0.09,-0.36 c -0.8,-1.83 -2.63,-0.93 -2.6,0.25 l 0.2,6.06 a 2.22,2.22 0 0 0 2.28,2.11 z"
         class="cls-7" />
      <path
         style="fill:#997b6d"
         inkscape:connector-curvature="0"
         id="path2475"
         d="m 175.8,100.89 -3.24,-5.13 c -0.51,-1 -2.47,-0.73 -2.19,1.14 0,0 1.68,4.7 -1.61,7.94 l -0.26,0.26 c -1.17,1.62 0.55,2.74 1.55,2.1 l 5.11,-3.27 a 2.21,2.21 0 0 0 0.64,-3.04 z"
         class="cls-7" />
      <path
         style="fill:#997b6d"
         inkscape:connector-curvature="0"
         id="path2477"
         d="m 172,72.37 -0.35,-0.11 c -2,-0.24 -2.14,1.79 -1.1,2.36 l 5.33,2.91 a 2.22,2.22 0 0 0 3,-0.88 l 3,-5.3 c 0.62,-0.92 -0.54,-2.52 -2.06,-1.37 -0.1,0.02 -3.43,3.72 -7.82,2.39 z"
         class="cls-7" />
      <path
         style="fill:#997b6d"
         inkscape:connector-curvature="0"
         id="path2479"
         d="m 148.07,125.72 c 0,0 -3.32,3.73 -7.75,2.39 L 140,128 c -2,-0.24 -2.14,1.79 -1.1,2.36 l 5.33,2.91 a 2.21,2.21 0 0 0 3,-0.88 l 3,-5.3 c 0.51,-0.91 -0.65,-2.51 -2.16,-1.37 z"
         class="cls-7" />
      <path
         style="fill:#997b6d"
         inkscape:connector-curvature="0"
         id="path2481"
         d="m 153.46,44.88 -5.2,3.12 a 2.21,2.21 0 0 0 -0.74,3 l 3.09,5.22 c 0.48,1 2.45,0.81 2.23,-1.08 0,0 -1.54,-4.75 1.84,-7.89 L 155,47 c 1.16,-1.57 -0.52,-2.73 -1.54,-2.12 z"
         class="cls-7" />
      <path
         style="fill:#997b6d"
         inkscape:connector-curvature="0"
         id="path2483"
         d="m 140.22,103.13 a 36.18,36.18 0 0 1 -10.38,0.33 l -0.4,-0.13 c -2.37,-0.48 -3.26,0.83 -2.17,1.37 l 5.57,2.75 a 4.85,4.85 0 0 0 4,-0.1 l 5.47,-3 c 1.06,-0.49 0.17,-1.73 -2.09,-1.22 z"
         class="cls-7" />
      <path
         style="fill:#997b6d"
         inkscape:connector-curvature="0"
         id="path2485"
         d="m 137.53,54.46 c -1,0.48 -0.8,2.45 1.08,2.22 0,0 4.75,-1.54 7.9,1.84 l 0.25,0.27 c 1.59,1.21 2.75,-0.47 2.14,-1.48 l -3.13,-5.2 a 2.22,2.22 0 0 0 -3,-0.73 z"
         class="cls-7" />
      <path
         style="fill:#997b6d"
         inkscape:connector-curvature="0"
         id="path2487"
         d="m 169.47,50.83 -0.09,-0.36 c -0.8,-1.83 -2.63,-0.93 -2.6,0.26 l 0.2,6.06 a 2.21,2.21 0 0 0 2.27,2.11 l 6.07,-0.15 c 1.11,0.07 1.9,-1.75 0.14,-2.47 0.01,0 -4.89,-0.96 -5.99,-5.45 z"
         class="cls-7" />
      <path
         style="fill:#997b6d"
         inkscape:connector-curvature="0"
         id="path2489"
         d="m 162.78,69.35 c 0.8,1.83 2.63,0.93 2.6,-0.26 l -0.2,-6.06 a 2.22,2.22 0 0 0 -2.27,-2.11 l -6.07,0.15 c -1.11,-0.07 -1.9,1.75 -0.14,2.47 0,0 4.9,1 6,5.45 z"
         class="cls-7" />
      <path
         style="fill:#997b6d"
         inkscape:connector-curvature="0"
         id="path2491"
         d="m 157.42,69.76 -4.75,1.08 c -0.9,0.13 -0.84,1.52 0.82,1.74 a 18.33,18.33 0 0 1 6.81,2.83 l 0.2,0.24 c 1.33,1.15 2.44,0.23 2,-0.6 L 160,70.86 a 2.56,2.56 0 0 0 -2.58,-1.1 z"
         class="cls-7" />
      <path
         style="fill:#997b6d"
         inkscape:connector-curvature="0"
         id="path2493"
         d="m 158.69,114.95 2.6,-4.12 c 0.54,-0.73 -0.48,-1.67 -1.81,-0.65 a 18.35,18.35 0 0 1 -6.82,2.81 h -0.31 c -1.75,0.13 -1.88,1.56 -1,1.8 l 4.7,1.23 a 2.55,2.55 0 0 0 2.64,-1.07 z"
         class="cls-7" />
      <path
         style="fill:#997b6d"
         inkscape:connector-curvature="0"
         id="path2495"
         d="m 158,122.62 6.07,-0.2 a 2.21,2.21 0 0 0 2.11,-2.27 l -0.15,-6.06 c 0.07,-1.11 -1.75,-1.9 -2.47,-0.14 0,0 -1,4.9 -5.46,6 l -0.36,0.09 c -1.8,0.79 -0.9,2.62 0.26,2.58 z"
         class="cls-7" />
      <path
         style="fill:#997b6d"
         inkscape:connector-curvature="0"
         id="path2497"
         d="m 151.1,120.2 c 1.68,-0.51 1.49,-1.94 0.53,-2 l -4.86,-0.15 a 2.55,2.55 0 0 0 -2.31,1.61 l -1.61,4.59 c -0.37,0.83 0.84,1.52 1.91,0.23 a 18.33,18.33 0 0 1 6,-4.26 z"
         class="cls-7" />
      <path
         style="fill:#997b6d"
         inkscape:connector-curvature="0"
         id="path2499"
         d="m 156.66,56.57 c -1.84,0.8 -0.93,2.63 0.26,2.59 L 163,59 a 2.21,2.21 0 0 0 2.11,-2.27 l -0.15,-6.06 c 0.07,-1.11 -1.75,-1.9 -2.47,-0.14 0,0 -1,4.9 -5.46,6 z"
         class="cls-7" />
      <path
         style="fill:#997b6d"
         inkscape:connector-curvature="0"
         id="path2501"
         d="m 174.78,79.19 -5.31,-3 c -0.92,-0.62 -2.52,0.54 -1.38,2.05 0,0 3.73,3.32 2.4,7.74 l -0.11,0.35 c -0.24,2 1.79,2.14 2.37,1.1 l 2.91,-5.32 a 2.21,2.21 0 0 0 -0.88,-2.92 z"
         class="cls-7" />
      <path
         style="fill:#997b6d"
         inkscape:connector-curvature="0"
         id="path2503"
         d="m 175.32,63.15 0.36,-0.09 c 1.83,-0.8 0.93,-2.63 -0.25,-2.59 l -6.07,0.2 a 2.21,2.21 0 0 0 -2.11,2.27 L 167.4,69 c -0.07,1.11 1.75,1.9 2.47,0.14 -0.01,0 0.96,-4.9 5.45,-5.99 z"
         class="cls-7" />
      <path
         style="fill:#997b6d"
         inkscape:connector-curvature="0"
         id="path2505"
         d="m 185.68,73.47 c 0.24,-2 -1.79,-2.14 -2.37,-1.1 l -2.91,5.33 a 2.21,2.21 0 0 0 0.88,3 l 5.3,3 c 0.92,0.62 2.52,-0.54 1.38,-2.05 0,0 -3.73,-3.32 -2.39,-7.74 z"
         class="cls-7" />
      <path
         style="fill:#997b6d"
         inkscape:connector-curvature="0"
         id="path2507"
         d="m 176.6,89.79 c 0,0 3.32,-3.73 7.75,-2.39 l 0.35,0.11 c 2,0.24 2.14,-1.79 1.1,-2.36 l -5.33,-2.91 a 2.22,2.22 0 0 0 -3,0.88 l -3,5.3 c -0.55,0.91 0.62,2.51 2.13,1.37 z"
         class="cls-7" />
      <path
         style="fill:#997b6d"
         inkscape:connector-curvature="0"
         id="path2509"
         d="m 163.9,132.82 c 0.8,1.83 2.63,0.93 2.6,-0.25 l -0.2,-6.06 A 2.21,2.21 0 0 0 164,124.4 l -6.07,0.15 c -1.11,-0.07 -1.9,1.74 -0.14,2.46 0,0 4.9,1 6,5.45 z"
         class="cls-7" />
      <path
         style="fill:#997b6d"
         inkscape:connector-curvature="0"
         id="path2511"
         d="m 94.66,144.84 a 1.9,1.9 0 0 0 -2.65,0.38 l -3.33,4.21 a 1.85,1.85 0 1 0 2.9,2.29 l 3.32,-4.21 a 1.9,1.9 0 0 0 -0.24,-2.67 z"
         class="cls-7" />
      <path
         style="fill:#997b6d"
         inkscape:connector-curvature="0"
         id="path2513"
         d="m 88.46,139.27 a 1.9,1.9 0 0 0 -2.68,0 l -3.83,3.75 a 1.85,1.85 0 1 0 2.59,2.64 l 3.83,-3.75 a 1.89,1.89 0 0 0 0.09,-2.64 z"
         class="cls-7" />
      <path
         style="fill:#997b6d"
         inkscape:connector-curvature="0"
         id="path2515"
         d="m 101.53,149.56 a 1.9,1.9 0 0 0 -2.58,0.71 l -2.75,4.6 a 1.85,1.85 0 1 0 3.17,1.9 l 2.75,-4.6 a 1.89,1.89 0 0 0 -0.59,-2.61 z"
         class="cls-7" />
      <path
         style="fill:#997b6d"
         inkscape:connector-curvature="0"
         id="path2517"
         d="m 82.57,135.58 a 1.85,1.85 0 1 0 -2.23,-2.95 l -4.28,3.23 a 1.85,1.85 0 1 0 2.23,2.95 z"
         class="cls-7" />
      <path
         style="fill:#997b6d"
         inkscape:connector-curvature="0"
         id="path2519"
         d="m 116.93,156.19 a 1.9,1.9 0 0 0 -2.3,1.37 l -1.45,5.16 a 1.85,1.85 0 1 0 3.56,1 l 1.45,-5.16 a 1.89,1.89 0 0 0 -1.26,-2.37 z"
         class="cls-7" />
      <path
         style="fill:#997b6d"
         inkscape:connector-curvature="0"
         id="path2521"
         d="m 109,153.37 a 1.89,1.89 0 0 0 -2.47,1 l -2.13,4.92 a 1.8501081,1.8501081 0 1 0 3.4,1.46 l 2.13,-4.92 A 1.89,1.89 0 0 0 109,153.37 Z"
         class="cls-7" />
      <path
         style="fill:#997b6d"
         inkscape:connector-curvature="0"
         id="path2523"
         d="m 125.32,157.93 a 1.9,1.9 0 0 0 -2.1,1.67 l -0.74,5.31 a 1.85,1.85 0 1 0 3.66,0.51 l 0.74,-5.31 a 1.89,1.89 0 0 0 -1.56,-2.18 z"
         class="cls-7" />
      <path
         style="fill:#997b6d"
         inkscape:connector-curvature="0"
         id="path2525"
         d="m 62.23,94.44 h 5.37 a 1.85,1.85 0 1 0 0,-3.69 h -5.37 a 1.85,1.85 0 1 0 0,3.69 z"
         class="cls-7" />
      <path
         style="fill:#997b6d"
         inkscape:connector-curvature="0"
         id="path2527"
         d="m 63.13,104.36 5.32,-0.71 A 1.85,1.85 0 1 0 68,100 l -5.32,0.71 a 1.85,1.85 0 1 0 0.49,3.66 z"
         class="cls-7" />
      <path
         style="fill:#997b6d"
         inkscape:connector-curvature="0"
         id="path2529"
         d="m 62.47,84.39 5.32,0.73 A 1.85,1.85 0 1 0 68.3,81.46 L 63,80.73 a 1.85,1.85 0 1 0 -0.51,3.66 z"
         class="cls-7" />
      <path
         style="fill:#997b6d"
         inkscape:connector-curvature="0"
         id="path2531"
         d="m 65.27,113.84 5.18,-1.39 a 1.8537057,1.8537057 0 1 0 -1,-3.57 l -5.18,1.39 a 1.8537057,1.8537057 0 1 0 1,3.57 z"
         class="cls-7" />
      <path
         style="fill:#997b6d"
         inkscape:connector-curvature="0"
         id="path2533"
         d="m 77.6,128.49 a 1.85,1.85 0 1 0 -1.84,-3.21 L 71.1,128 a 1.85,1.85 0 1 0 1.84,3.21 z"
         class="cls-7" />
      <path
         style="fill:#997b6d"
         inkscape:connector-curvature="0"
         id="path2535"
         d="m 73.53,120.75 a 1.85,1.85 0 1 0 -1.41,-3.41 l -5,2 a 1.85,1.85 0 1 0 1.41,3.41 z"
         class="cls-7" />
      <path
         style="fill:#997b6d"
         inkscape:connector-curvature="0"
         id="path2537"
         d="m 153.68,157.26 a 1.8537057,1.8537057 0 1 0 -3.57,1 l 1.39,5.17 a 1.8537057,1.8537057 0 1 0 3.57,-1 z"
         class="cls-7" />
      <path
         style="fill:#997b6d"
         inkscape:connector-curvature="0"
         id="path2539"
         d="m 202.1,120 -4.93,-2.12 a 1.85,1.85 0 1 0 -1.47,3.39 l 4.93,2.12 A 1.85,1.85 0 1 0 202.1,120 Z"
         class="cls-7" />
      <path
         style="fill:#997b6d"
         inkscape:connector-curvature="0"
         id="path2541"
         d="m 183.21,139.36 a 1.85,1.85 0 1 0 -2.64,2.58 l 3.76,3.83 a 1.85,1.85 0 1 0 2.64,-2.58 z"
         class="cls-7" />
      <path
         style="fill:#997b6d"
         inkscape:connector-curvature="0"
         id="path2543"
         d="m 198.06,128.38 -4.61,-2.75 a 1.85,1.85 0 1 0 -1.9,3.17 l 4.61,2.75 a 1.85,1.85 0 1 0 1.9,-3.17 z"
         class="cls-7" />
      <path
         style="fill:#997b6d"
         inkscape:connector-curvature="0"
         id="path2545"
         d="m 193,136.15 -4.21,-3.32 a 1.85,1.85 0 1 0 -2.29,2.9 l 4.2,3.27 a 1.85,1.85 0 1 0 2.29,-2.9 z"
         class="cls-7" />
      <path
         style="fill:#997b6d"
         inkscape:connector-curvature="0"
         id="path2547"
         d="m 206.72,101.63 -5.31,-0.73 a 1.85,1.85 0 1 0 -0.51,3.66 l 5.32,0.73 a 1.85,1.85 0 1 0 0.51,-3.66 z"
         class="cls-7" />
      <path
         style="fill:#997b6d"
         inkscape:connector-curvature="0"
         id="path2549"
         d="m 205,111 -5.17,-1.45 a 1.85,1.85 0 1 0 -1,3.56 l 5.17,1.45 a 1.85,1.85 0 1 0 1,-3.55 z"
         class="cls-7" />
      <path
         style="fill:#997b6d"
         inkscape:connector-curvature="0"
         id="path2551"
         d="m 144.88,159.26 a 1.8512833,1.8512833 0 1 0 -3.67,0.49 l 0.71,5.31 a 1.8506283,1.8506283 0 1 0 3.67,-0.48 z"
         class="cls-7" />
      <path
         style="fill:#997b6d"
         inkscape:connector-curvature="0"
         id="path2553"
         d="m 133.8,158.17 a 1.9,1.9 0 0 0 -1.85,1.94 v 5.36 a 1.85,1.85 0 1 0 3.7,0 v -5.36 a 1.9,1.9 0 0 0 -1.85,-1.94 z"
         class="cls-7" />
      <path
         style="fill:#997b6d"
         inkscape:connector-curvature="0"
         id="path2555"
         d="m 176.84,145.15 a 1.85,1.85 0 1 0 -2.95,2.23 l 3.24,4.27 a 1.8690171,1.8690171 0 1 0 3,-2.23 z"
         class="cls-7" />
      <path
         style="fill:#997b6d"
         inkscape:connector-curvature="0"
         id="path2557"
         d="m 169.74,150.12 a 1.85,1.85 0 1 0 -3.21,1.84 l 2.67,4.65 a 1.85,1.85 0 1 0 3.21,-1.83 z"
         class="cls-7" />
      <path
         style="fill:#997b6d"
         inkscape:connector-curvature="0"
         id="path2559"
         d="m 162,154.18 a 1.85,1.85 0 1 0 -3.42,1.41 l 2.05,5 a 1.85,1.85 0 1 0 3.42,-1.41 z"
         class="cls-7" />
      <path
         style="fill:#997b6d"
         inkscape:connector-curvature="0"
         id="path2561"
         d="m 99.44,35.9 a 1.85,1.85 0 1 0 3.21,-1.84 L 100,29.41 a 1.85,1.85 0 1 0 -3.21,1.84 z"
         class="cls-7" />
      <path
         style="fill:#997b6d"
         inkscape:connector-curvature="0"
         id="path2563"
         d="m 92.34,40.86 a 1.85,1.85 0 1 0 2.95,-2.23 l -3.24,-4.27 a 1.85,1.85 0 1 0 -2.95,2.23 z"
         class="cls-7" />
      <path
         style="fill:#997b6d"
         inkscape:connector-curvature="0"
         id="path2565"
         d="m 76.19,49.87 4.21,3.32 a 1.85,1.85 0 1 0 2.29,-2.9 L 78.49,47 a 1.85,1.85 0 1 0 -2.29,2.9 z"
         class="cls-7" />
      <path
         style="fill:#997b6d"
         inkscape:connector-curvature="0"
         id="path2567"
         d="m 71.12,57.64 4.61,2.75 a 1.85,1.85 0 1 0 1.9,-3.17 L 73,54.47 a 1.85,1.85 0 1 0 -1.9,3.17 z"
         class="cls-7" />
      <path
         style="fill:#997b6d"
         inkscape:connector-curvature="0"
         id="path2569"
         d="m 135.38,27.85 a 1.9,1.9 0 0 0 1.85,-1.94 v -5.36 a 1.85,1.85 0 1 0 -3.7,0 v 5.36 a 1.9,1.9 0 0 0 1.85,1.94 z"
         class="cls-7" />
      <path
         style="fill:#997b6d"
         inkscape:connector-curvature="0"
         id="path2571"
         d="m 64.18,75 5.17,1.45 a 1.85,1.85 0 1 0 1,-3.56 l -5.17,-1.45 a 1.85,1.85 0 1 0 -1,3.56 z"
         class="cls-7" />
      <path
         style="fill:#997b6d"
         inkscape:connector-curvature="0"
         id="path2573"
         d="m 144.24,28.46 a 1.9,1.9 0 0 0 2.1,-1.67 l 0.73,-5.31 a 1.85,1.85 0 1 0 -3.66,-0.51 l -0.74,5.31 a 1.9,1.9 0 0 0 1.57,2.18 z"
         class="cls-7" />
      <path
         style="fill:#997b6d"
         inkscape:connector-curvature="0"
         id="path2575"
         d="m 86,46.66 a 1.85,1.85 0 1 0 2.64,-2.58 l -3.75,-3.83 a 1.85,1.85 0 1 0 -2.64,2.58 z"
         class="cls-7" />
      <path
         style="fill:#997b6d"
         inkscape:connector-curvature="0"
         id="path2577"
         d="m 124.31,26.76 a 1.8512833,1.8512833 0 1 0 3.67,-0.49 L 127.27,21 a 1.8512833,1.8512833 0 1 0 -3.67,0.49 z"
         class="cls-7" />
      <path
         style="fill:#997b6d"
         inkscape:connector-curvature="0"
         id="path2579"
         d="m 152.63,30.21 a 1.9,1.9 0 0 0 2.3,-1.37 l 1.45,-5.16 a 1.85,1.85 0 1 0 -3.56,-1 l -1.45,5.16 a 1.89,1.89 0 0 0 1.26,2.37 z"
         class="cls-7" />
      <path
         style="fill:#997b6d"
         inkscape:connector-curvature="0"
         id="path2581"
         d="M 67.09,66 72,68.16 a 1.85,1.85 0 1 0 1.46,-3.39 L 68.53,62.65 A 1.85,1.85 0 1 0 67.09,66 Z"
         class="cls-7" />
      <path
         style="fill:#997b6d"
         inkscape:connector-curvature="0"
         id="path2583"
         d="m 115.5,28.76 a 1.8537057,1.8537057 0 1 0 3.57,-1 l -1.39,-5.18 a 1.8537057,1.8537057 0 1 0 -3.57,1 z"
         class="cls-7" />
      <path
         style="fill:#997b6d"
         inkscape:connector-curvature="0"
         id="path2585"
         d="m 107.19,31.84 a 1.85,1.85 0 1 0 3.42,-1.41 l -2,-5 a 1.85,1.85 0 1 0 -3.42,1.41 z"
         class="cls-7" />
      <path
         style="fill:#997b6d"
         inkscape:connector-curvature="0"
         id="path2587"
         d="m 160.59,33 a 1.9,1.9 0 0 0 2.47,-1 l 2.13,-4.92 a 1.8501081,1.8501081 0 1 0 -3.4,-1.46 l -2.13,4.92 a 1.89,1.89 0 0 0 0.93,2.46 z"
         class="cls-7" />
      <path
         style="fill:#997b6d"
         inkscape:connector-curvature="0"
         id="path2589"
         d="m 115.5,83.94 a 5.33,5.33 0 0 0 -5.32,5.32 v 6.19 a 5.325,5.325 0 0 0 10.65,0 v -6.19 a 5.32,5.32 0 0 0 -5.33,-5.32 z m 2.84,11.51 a 2.84,2.84 0 0 1 -5.68,0 v -6.19 a 2.84,2.84 0 0 1 5.68,0 z"
         class="cls-7" />
      <path
         style="fill:#997b6d"
         inkscape:connector-curvature="0"
         id="path2591"
         d="m 153.41,100.46 a 5.33,5.33 0 0 0 5.32,-5.32 V 89 a 5.325,5.325 0 0 0 -10.65,0 v 6.19 a 5.33,5.33 0 0 0 5.33,5.27 z M 150.57,89 a 2.84,2.84 0 0 1 5.68,0 v 6.19 a 2.84,2.84 0 0 1 -5.68,0 z"
         class="cls-7" />
      <path
         style="fill:#997b6d"
         inkscape:connector-curvature="0"
         id="path2593"
         d="m 135.82,85 v 13.68 a 1.24,1.24 0 0 0 1.24,1.24 h 8.15 a 1.24,1.24 0 0 0 0,-2.48 h -6.91 v -4.76 h 5.56 v 0 a 1.24,1.24 0 0 0 0,-2.48 h -5.58 v -4 h 7 a 1.24,1.24 0 1 0 0,-2.48 h -8.21 A 1.24,1.24 0 0 0 135.82,85 Z"
         class="cls-7" />
      <path
         style="fill:#997b6d"
         inkscape:connector-curvature="0"
         id="path2595"
         d="m 132.4,99.88 a 1.240252,1.240252 0 0 0 2.27,-1 l -3.3,-7.4 a 4.58,4.58 0 0 0 1.76,-3.57 5.07,5.07 0 0 0 -2.41,-3.73 1.24,1.24 0 0 0 -0.65,-0.19 h -5.41 a 1.24,1.24 0 0 0 -1.24,1.24 v 14.83 a 1.24,1.24 0 1 0 2.48,0 v -7.7 h 3.1 z m -6.51,-13.42 h 3.77 a 2.39,2.39 0 0 1 1,1.54 2.71,2.71 0 0 1 -1.22,1.86 h -3.53 z"
         class="cls-7" />
      <path
         style="fill:#997b6d"
         inkscape:connector-curvature="0"
         id="path2597"
         d="m 133.8,54.47 v 0 a 1.24,1.24 0 0 0 -1.23,1.25 v 4.72 h -11.1 a 1.24,1.24 0 1 0 0,2.48 h 11.14 v 3.74 h -15.38 a 1.24,1.24 0 0 0 0,2.48 h 15.43 v 3.5 a 40.92,40.92 0 0 0 -19.75,5.5 c -6,3.69 -9.28,8.66 -9.28,14 0,5.34 3.3,10.3 9.28,14 5.79,3.58 13.47,5.54 21.62,5.54 8.15,0 15.83,-2 21.62,-5.54 6,-3.69 9.28,-8.66 9.28,-14 0,-5.34 -3.29,-10.3 -9.27,-14 -5.65,-3.48 -13.09,-5.44 -21,-5.53 v -3.47 h 15.73 a 1.24,1.24 0 1 0 0,-2.48 h -15.77 v -3.74 h 11.66 a 1.24,1.24 0 1 0 0,-2.48 h -11.7 V 55.7 A 1.24,1.24 0 0 0 133.8,54.47 Z M 163,92.14 c 0,4.44 -2.87,8.66 -8.1,11.88 -5.41,3.34 -12.62,5.17 -20.32,5.17 -7.7,0 -14.91,-1.84 -20.32,-5.17 -5.22,-3.22 -8.1,-7.44 -8.1,-11.88 0,-4.44 2.88,-8.66 8.1,-11.88 5.41,-3.34 12.62,-5.17 20.32,-5.17 7.7,0 14.91,1.84 20.32,5.17 5.19,3.22 8.1,7.44 8.1,11.88 z"
         class="cls-7" />
      <path
         style="fill:#997b6d"
         inkscape:connector-curvature="0"
         id="path2599"
         d="m 96.81,141.94 c 0.06,0.05 0.5,0.4 0.64,0.48 0.31,0.28 2.49,1.75 2.59,1.8 0.3,0.25 3.1,1.92 3.36,2 0.26,0.08 2.92,1.58 3.08,1.65 0.16,0.07 1.21,0.61 1.35,0.66 0.14,0.05 2.11,1 2.45,1.12 l 0.74,0.32 0.23,0.1 a 3,3 0 0 0 0.5,0.22 1.34,1.34 0 0 0 0.54,0.11 1.32,1.32 0 0 0 0.4,-2.58 2.3,2.3 0 0 0 -0.35,-0.12 l -0.33,-0.12 -2.34,-1 -1.54,-0.73 c 0,0 -2.27,-1.15 -2.5,-1.3 l -1.94,-1.12 -2.63,-1.67 -2.24,-1.62 c 0,0 -0.32,-0.26 -0.4,-0.32 a 1.32,1.32 0 1 0 -1.61,2.08 z"
         class="cls-7" />
      <path
         style="fill:#997b6d"
         inkscape:connector-curvature="0"
         id="path2601"
         d="m 78.55,119.18 c 0.14,0.37 1.66,3.18 1.88,3.5 0.22,0.32 2.38,3.89 2.72,4.33 0.34,0.44 2,2.9 2.43,3.39 v 0.06 0 a 1.23,1.23 0 0 0 0.2,0.28 1.32,1.32 0 1 0 2,-1.67 1.3,1.3 0 0 0 -0.21,-0.24 l -0.12,-0.14 c -2.17,-2.84 -2,-2.68 -2.13,-2.87 l -2.58,-4.06 -1.79,-3.32 -1.34,-3 a 1.27,1.27 0 0 0 -0.1,-0.23 1.73,1.73 0 0 0 -1.37,-1.19 1.32,1.32 0 0 0 -1.02,1.98 c 0.1,0.37 1.25,2.89 1.43,3.18 z"
         class="cls-7" />
      <path
         style="fill:#997b6d"
         inkscape:connector-curvature="0"
         id="path2603"
         d="m 195.66,101.44 a 1.33,1.33 0 0 0 0.2,-0.66 1.38,1.38 0 0 0 0,-0.27 A 5.06,5.06 0 0 0 196,100 c 0.09,-0.41 0.34,-3.75 0.34,-5.06 0,-0.42 0,-0.21 0,-2.12 0,-0.36 0,-0.72 0,-0.9 0,-1.27 -0.25,-5 -0.33,-5.46 0,-0.23 -0.22,-2 -0.25,-2.27 V 84 84 a 1.34,1.34 0 1 0 -2.67,-0.17 1.33,1.33 0 0 0 0,0.28 1.62,1.62 0 0 0 0.06,0.32 v 0.18 0.08 c 0.25,1.92 0.25,1.92 0.25,1.92 0,0 0.33,3.18 0.33,5.12 0,0.09 0,0 0,0.22 0,2.78 0,2.78 0,2.78 0,2.08 -0.44,5.49 -0.44,5.49 a 10.59,10.59 0 0 0 -0.07,0.57 1.32,1.32 0 0 0 2.44,0.71 z"
         class="cls-7" />
      <path
         style="fill:#997b6d"
         inkscape:connector-curvature="0"
         id="path2605"
         d="m 132,153.14 c 0.53,0 0.53,0 2.64,0 2.36,0 5.25,-0.2 5.35,-0.22 0.1,-0.02 2.56,-0.21 2.93,-0.28 l 0.85,-0.1 a 3.47,3.47 0 0 0 0.49,-0.05 h 0.23 a 1.32,1.32 0 0 0 1,-1.27 1.11,1.11 0 0 0 0,-0.35 1.32,1.32 0 0 0 -1.27,-1 1.37,1.37 0 0 0 -0.28,0 h -0.24 c -0.77,0.21 -4.17,0.49 -4.17,0.49 -0.5,0 -1,0.16 -5,0.16 -1,0 -1.15,0 -1.27,0 l -5.41,-0.44 a 5.15,5.15 0 0 0 -0.57,-0.08 1.325,1.325 0 0 0 0,2.65 5.09,5.09 0 0 0 0.54,0.07 c 0.29,0.17 3.59,0.42 4.18,0.42 z"
         class="cls-7" />
      <path
         style="fill:#997b6d"
         inkscape:connector-curvature="0"
         id="path2607"
         d="m 190.93,67.86 c -0.05,-0.17 -0.46,-1.06 -0.55,-1.21 -0.09,-0.15 -1.19,-2.41 -1.27,-2.52 -0.18,-0.43 -2.11,-3.73 -2.36,-4.06 0,-0.05 -0.76,-1.22 -0.9,-1.39 -0.14,-0.17 -1.84,-2.7 -2.07,-3 -0.05,-0.08 -0.47,-0.65 -0.59,-0.8 l -0.26,-0.34 a 3.18,3.18 0 0 0 -0.32,-0.44 1.32,1.32 0 1 0 -2,1.67 2.94,2.94 0 0 0 0.24,0.27 l 0.22,0.27 0.85,1.11 1.75,2.49 3.09,5.19 1.71,3.55 c 0,0.14 0.26,0.63 0.3,0.7 0.04,0.07 0.14,0.39 0.19,0.48 a 1.32,1.32 0 0 0 2.59,-0.37 1.31,1.31 0 0 0 -0.16,-0.63 C 191.29,68.64 191,68 190.93,67.86 Z"
         class="cls-7" />
      <path
         style="fill:#997b6d"
         inkscape:connector-curvature="0"
         id="path2609"
         d="m 111.72,36.37 a 1.31,1.31 0 0 0 -0.62,0.15 c -0.13,0 -1,0.4 -1.23,0.53 -0.23,0.13 -1.62,0.75 -1.67,0.78 -0.22,0.08 -1.67,0.83 -1.82,0.93 -0.15,0.1 -1.68,0.9 -1.92,1.06 -0.06,0 -0.5,0.27 -0.61,0.36 -0.11,0.09 -1.34,0.79 -1.53,0.93 -0.19,0.14 -2.37,1.54 -2.49,1.63 -0.12,0.09 -1.06,0.72 -1.21,0.85 -0.15,0.13 -1,0.68 -1.25,0.91 l -0.58,0.44 a 3.35,3.35 0 0 0 -0.43,0.32 1.32,1.32 0 1 0 1.66,2 l 0.55,-0.47 0.61,-0.48 1.68,-1.23 1.78,-1.2 c 0.14,-0.08 1,-0.63 1,-0.65 0.22,-0.11 2.59,-1.51 2.66,-1.57 l 1.68,-0.89 0.21,-0.11 2.23,-1.06 c 0,0 1,-0.41 1.16,-0.5 l 0.24,-0.1 0.24,-0.09 a 1.32,1.32 0 0 0 -0.37,-2.6 z"
         class="cls-7" />
      <path
         style="fill:#997b6d"
         inkscape:connector-curvature="0"
         id="path2611"
         d="m 74,101.6 a 1.32,1.32 0 0 0 2.63,-0.14 3.26,3.26 0 0 0 -0.09,-0.59 v -0.11 c -0.5,-3.8 -0.39,-3.48 -0.44,-3.81 0,0 0,-0.28 0,-0.35 l -0.16,-5 c 0,-0.16 0,-1.1 0,-1.15 l 0.48,-5.66 a 1.32,1.32 0 0 0 -2.4,-1 1.3,1.3 0 0 0 -0.21,0.67 1.39,1.39 0 0 0 0,0.27 56.93,56.93 0 0 0 -0.41,5.83 c 0,0.3 0,0.61 0,0.83 0,0.6 0,0.53 0,0.67 0,1.24 0.13,4.42 0.2,4.9 0,0.17 0.18,2.42 0.42,4.2 v 0.12 A 1.35,1.35 0 0 0 74,101.6 Z"
         class="cls-7" />
      <path
         style="fill:#997b6d"
         inkscape:connector-curvature="0"
         id="path2613"
         d="m 183.22,130.56 a 1.32,1.32 0 0 0 1.12,-0.62 1.34,1.34 0 0 0 0.17,-0.22 c 0.21,-0.23 1.36,-1.86 1.4,-1.94 0.23,-0.27 1.77,-2.68 1.92,-3 0.15,-0.32 2.21,-3.87 2.4,-4.34 0,-0.07 1.12,-2.23 1.26,-2.59 0.11,-0.21 0.86,-1.92 0.95,-2.13 0.09,-0.21 0.29,-0.65 0.31,-0.72 a 1.32,1.32 0 1 0 -2.46,-0.94 1.28,1.28 0 0 0 -0.1,0.31 l -0.07,0.19 c -0.54,1.37 -1,2.45 -1.07,2.52 -0.14,0.25 -1,2 -1.26,2.58 l -2.14,3.81 -2.16,3.25 c 0,0 -1,1.34 -1.05,1.41 a 1.2,1.2 0 0 0 -0.16,0.2 1.32,1.32 0 0 0 1,2.24 z"
         class="cls-7" />
      <path
         style="fill:#997b6d"
         inkscape:connector-curvature="0"
         id="path2615"
         d="m 157.6,149.06 a 1.28,1.28 0 0 0 0.62,-0.16 c 0.1,0 0.46,-0.19 0.5,-0.21 0.44,-0.14 3.78,-1.75 4.22,-2 0.44,-0.25 4.3,-2.44 4.78,-2.81 0.33,-0.18 3,-2 3.12,-2.12 0.12,-0.12 1.25,-0.9 1.43,-1 l 0.42,-0.32 v 0 a 1.34,1.34 0 0 0 0.27,-0.2 1.32,1.32 0 1 0 -1.65,-2.06 1.34,1.34 0 0 0 -0.2,0.16 l -0.12,0.11 -0.38,0.3 -1.18,0.9 -3.27,2.23 -4.43,2.56 -4,1.89 c -0.1,0 -0.43,0.17 -0.47,0.19 a 1.32,1.32 0 0 0 0.36,2.6 z"
         class="cls-7" />
      <path
         style="fill:#997b6d"
         inkscape:connector-curvature="0"
         id="path2617"
         d="m 172,44.52 a 1.38,1.38 0 0 0 -0.22,-0.17 c -0.06,-0.05 -0.51,-0.4 -0.64,-0.48 -0.13,-0.08 -1.84,-1.33 -2.16,-1.49 -0.32,-0.16 -3.06,-1.9 -3.18,-2 -0.31,-0.21 -3.12,-1.71 -3.3,-1.78 -0.18,-0.07 -1.49,-0.74 -1.54,-0.76 -0.05,-0.02 -1.32,-0.62 -1.47,-0.68 -0.15,-0.06 -0.78,-0.36 -1,-0.43 l -0.89,-0.38 -0.57,-0.25 a 1.33,1.33 0 0 0 -1.49,0.28 1.32,1.32 0 0 0 0,1.86 1.37,1.37 0 0 0 0.51,0.31 c 0.09,0 0,0 0.49,0.17 l 1.24,0.5 1.59,0.71 1.59,0.77 2.37,1.3 5,3.12 1.22,0.89 c 0.11,0.1 0.54,0.42 0.61,0.46 a 1.56,1.56 0 0 0 1.06,0.53 h 0.06 a 1.32,1.32 0 0 0 1.32,-1.26 V 45.68 A 1.33,1.33 0 0 0 172,44.52 Z"
         class="cls-7" />
      <path
         style="fill:#997b6d"
         inkscape:connector-curvature="0"
         id="path2619"
         d="m 87.22,54.68 a 1.47,1.47 0 0 0 -1.29,0.84 c -0.14,0.16 -0.59,0.77 -0.64,0.87 -0.27,0.31 -2,3 -2.16,3.22 -0.16,0.22 -1.74,2.94 -1.82,3.1 -0.22,0.34 -1.71,3.24 -1.86,3.62 -0.06,0.1 -1.17,2.46 -1.57,3.48 a 2.54,2.54 0 0 0 -0.19,0.44 1.32,1.32 0 1 0 2.46,0.94 c 0,-0.06 0.09,-0.25 0.22,-0.62 l 0.19,-0.49 1.65,-3.62 1.43,-2.71 1.52,-2.56 2.38,-3.46 c 0.09,-0.1 0.54,-0.69 0.61,-0.8 a 1.32,1.32 0 0 0 -1,-2.24 z"
         class="cls-7" />
      <path
         style="fill:#997b6d"
         inkscape:connector-curvature="0"
         id="path2621"
         d="m 138.6,32.34 c -0.26,0 -2.37,-0.09 -2.64,-0.09 h -1.86 c 0,0 -1.71,0 -1.89,0.07 -0.18,0.07 -2.76,0.15 -3.06,0.19 -0.3,0.04 -2.05,0.19 -2.28,0.22 l -0.71,0.08 h -0.07 -0.16 l -0.6,0.07 a 1.32,1.32 0 0 0 0.2,2.63 3.67,3.67 0 0 0 0.71,-0.11 l 0.54,-0.08 h 0.11 l 0.76,-0.1 h 0.12 c 0.26,0 1.08,-0.12 1.12,-0.12 H 129 l 2.27,-0.17 c 0.1,0 1.71,-0.09 3,-0.09 h 1.25 l 2.08,0.07 c 0.53,0 2.7,0.21 2.76,0.21 0.06,0 1.5,0.18 1.5,0.18 h 0.26 a 1.31,1.31 0 0 0 0.32,0 1.3207668,1.3207668 0 0 0 0.09,-2.64 c -0.12,0 -0.47,-0.07 -0.58,-0.07 -0.27,-0.03 -3.01,-0.25 -3.35,-0.25 z"
         class="cls-7" />
      <circle
         style="fill:#997b6d"
         id="circle2623"
         transform="rotate(-57.43,89.805144,118.67366)"
         r="1.3200001"
         cy="118.68"
         cx="89.82"
         class="cls-7" />
      <circle
         style="fill:#997b6d"
         id="circle2625"
         transform="rotate(-57.52,83.487691,92.812142)"
         r="1.3200001"
         cy="92.809998"
         cx="83.489998"
         class="cls-7" />
      <circle
         style="fill:#997b6d"
         id="circle2627"
         transform="rotate(-57.53,193.10638,106.7306)"
         r="1.3200001"
         cy="106.73"
         cx="193.11"
         class="cls-7" />
      <circle
         style="fill:#997b6d"
         id="circle2629"
         transform="rotate(-57.49,191.73344,75.497561)"
         r="1.3200001"
         cy="75.5"
         cx="191.74001"
         class="cls-7" />
      <circle
         style="fill:#997b6d"
         id="circle2631"
         transform="rotate(-57.42,179.54452,134.35622)"
         r="1.3200001"
         cy="134.36"
         cx="179.53"
         class="cls-7" />
      <circle
         style="fill:#997b6d"
         id="circle2633"
         r="1.3200001"
         cy="104.48"
         cx="89.400002"
         class="cls-7" />
      <circle
         style="fill:#997b6d"
         id="circle2635"
         r="1.3200001"
         cy="60.220001"
         cx="101.12"
         class="cls-7" />
      <circle
         style="fill:#997b6d"
         id="circle2637"
         r="1.3200001"
         cy="80.900002"
         cx="89.879997"
         class="cls-7" />
      <circle
         style="fill:#997b6d"
         id="circle2639"
         r="1.3200001"
         cy="48.799999"
         cx="121.69"
         class="cls-7" />
      <circle
         style="fill:#997b6d"
         id="circle2641"
         r="1.3200001"
         cy="48.849998"
         cx="145.08"
         class="cls-7" />
      <circle
         style="fill:#997b6d"
         id="circle2643"
         r="1.3200001"
         cy="59.849998"
         cx="166.17"
         class="cls-7" />
      <circle
         style="fill:#997b6d"
         id="circle2645"
         r="1.3200001"
         cy="123.31"
         cx="167.28999"
         class="cls-7" />
      <circle
         style="fill:#997b6d"
         id="circle2647"
         r="1.3200001"
         cy="103.05"
         cx="178.35001"
         class="cls-7" />
      <circle
         style="fill:#997b6d"
         id="circle2649"
         r="1.3200001"
         cy="136.52"
         cx="122.77"
         class="cls-7" />
      <circle
         style="fill:#997b6d"
         id="circle2651"
         r="1.3200001"
         cy="124.81"
         cx="101.25"
         class="cls-7" />
      <circle
         style="fill:#997b6d"
         id="circle2653"
         r="1.3200001"
         cy="135.66"
         cx="146.49001"
         class="cls-7" />
      <circle
         style="fill:#997b6d"
         id="circle2655"
         r="1.3200001"
         cy="79.910004"
         cx="178.14"
         class="cls-7" />
      <circle
         style="fill:#997b6d"
         id="circle2657"
         r="1.3200001"
         cy="48.540001"
         cx="159.16"
         class="cls-7" />
      <circle
         style="fill:#997b6d"
         id="circle2659"
         r="1.3200001"
         cy="74.669998"
         cx="102.71"
         class="cls-7" />
      <circle
         style="fill:#997b6d"
         id="circle2661"
         r="1.3200001"
         cy="74"
         cx="166.07001"
         class="cls-7" />
      <circle
         style="fill:#997b6d"
         id="circle2663"
         r="1.3200001"
         cy="92.669998"
         cx="98.419998"
         class="cls-7" />
      <circle
         style="fill:#997b6d"
         id="circle2665"
         r="1.3200001"
         cy="110.59"
         cx="102.53"
         class="cls-7" />
      <circle
         style="fill:#997b6d"
         id="circle2667"
         r="1.3200001"
         cy="123.65"
         cx="116.23"
         class="cls-7" />
      <circle
         style="fill:#997b6d"
         id="circle2669"
         r="1.3200001"
         cy="129.00999"
         cx="134.67"
         class="cls-7" />
      <circle
         style="fill:#997b6d"
         id="circle2671"
         r="1.3200001"
         cy="123.2"
         cx="153.17999"
         class="cls-7" />
      <circle
         style="fill:#997b6d"
         id="circle2673"
         r="1.3200001"
         cy="109.89"
         cx="166.14"
         class="cls-7" />
      <circle
         style="fill:#997b6d"
         id="circle2675"
         r="1.3200001"
         cy="91.800003"
         cx="170.92999"
         class="cls-7" />
      <circle
         style="fill:#997b6d"
         id="circle2677"
         r="1.3200001"
         cy="91.419998"
         cx="185.50999"
         class="cls-7" />
      <circle
         style="fill:#997b6d"
         id="circle2679"
         r="1.3200001"
         cy="77.239998"
         cx="76.489998"
         class="cls-7" />
      <circle
         style="fill:#997b6d"
         id="circle2681"
         r="1.3200001"
         cy="50.23"
         cx="91.190002"
         class="cls-7" />
      <circle
         style="fill:#997b6d"
         id="circle2683"
         r="1.3200001"
         cy="35.549999"
         cx="118.35"
         class="cls-7" />
      <circle
         style="fill:#997b6d"
         id="circle2685"
         r="1.3200001"
         cy="35.099998"
         cx="148.82001"
         class="cls-7" />
      <circle
         style="fill:#997b6d"
         id="circle2687"
         r="1.3200001"
         cy="50.16"
         cx="175.98"
         class="cls-7" />
      <circle
         style="fill:#997b6d"
         id="circle2689"
         r="1.3200001"
         cy="116.98"
         cx="179.47"
         class="cls-7" />
      <circle
         style="fill:#997b6d"
         id="circle2691"
         r="1.3200001"
         cy="135.72"
         cx="160.72"
         class="cls-7" />
      <circle
         style="fill:#997b6d"
         id="circle2693"
         r="1.3200001"
         cy="149.83"
         cx="151.67999"
         class="cls-7" />
      <circle
         style="fill:#997b6d"
         id="circle2695"
         r="1.3200001"
         cy="150.66"
         cx="118.85"
         class="cls-7" />
      <circle
         style="fill:#997b6d"
         id="circle2697"
         r="1.3200001"
         cy="142.62"
         cx="135.11"
         class="cls-7" />
      <circle
         style="fill:#997b6d"
         id="circle2699"
         r="1.3200001"
         cy="136.64"
         cx="108.94"
         class="cls-7" />
      <circle
         style="fill:#997b6d"
         id="circle2701"
         r="1.3200001"
         cy="135.77"
         cx="91.25"
         class="cls-7" />
      <circle
         style="fill:#997b6d"
         id="circle2703"
         r="1.3200001"
         cy="67.949997"
         cx="90.129997"
         class="cls-7" />
      <circle
         style="fill:#997b6d"
         id="circle2705"
         r="1.3200001"
         cy="49.040001"
         cx="107.82"
         class="cls-7" />
      <circle
         style="fill:#997b6d"
         id="circle2707"
         r="1.3200001"
         cy="40.779999"
         cx="133.05"
         class="cls-7" />
      <circle
         style="fill:#997b6d"
         id="circle2709"
         r="1.3200001"
         cy="108.22"
         cx="75.860001"
         class="cls-7" />
    </g>
  </g>
</svg>
